{"glyphs":{"0":{"ha":792,"x_min":82,"x_max":711,"o":"m 711 376 q 627 86 711 187 q 397 -14 543 -14 q 167 87 252 -14 q 82 376 82 188 l 82 610 q 166 900 82 799 q 395 1002 250 1002 q 626 900 541 1002 q 711 610 711 799 l 711 376 m 577 639 q 531 832 577 767 q 395 897 484 897 q 262 832 308 897 q 216 639 216 767 l 216 349 q 262 156 216 221 q 397 90 309 90 q 531 155 486 90 q 577 349 577 220 l 577 639 z "},"1":{"ha":572,"x_min":79,"x_max":520,"o":"m 82 85 l 235 104 l 235 844 l 79 842 l 79 925 l 368 987 l 368 104 l 520 85 l 520 0 l 82 0 l 82 85 z "},"2":{"ha":767,"x_min":48,"x_max":705,"o":"m 66 0 l 66 92 l 389 451 q 507 605 476 548 q 538 722 538 662 q 494 846 538 795 q 380 897 451 897 q 229 844 277 897 q 181 696 181 792 l 53 696 l 52 701 q 136 915 48 828 q 380 1002 224 1002 q 592 924 513 1002 q 671 726 671 846 q 624 565 671 646 q 489 391 576 484 l 229 108 l 231 104 l 581 104 l 592 218 l 705 218 l 705 0 l 66 0 z "},"3":{"ha":750,"x_min":47,"x_max":674,"o":"m 246 555 l 363 555 q 489 600 452 555 q 526 724 526 644 q 484 852 526 808 q 359 897 441 897 q 234 851 281 897 q 187 729 187 805 l 59 729 l 58 733 q 139 923 54 845 q 359 1002 223 1002 q 578 929 496 1002 q 659 721 659 856 q 622 599 659 660 q 511 507 585 538 q 637 415 600 477 q 674 275 674 353 q 586 63 674 140 q 359 -14 497 -14 q 136 59 224 -14 q 51 256 47 132 l 53 260 l 180 260 q 228 136 180 182 q 359 90 276 90 q 492 136 444 90 q 541 273 541 182 q 498 408 541 364 q 363 451 455 451 l 246 451 l 246 555 z "},"4":{"ha":805,"x_min":43,"x_max":755,"o":"m 619 332 l 755 332 l 755 228 l 619 228 l 619 104 l 730 85 l 730 0 l 376 0 l 376 85 l 486 104 l 486 228 l 43 228 l 43 303 l 478 987 l 619 987 l 619 332 m 185 332 l 486 332 l 486 797 l 482 798 l 469 762 l 185 332 z "},"5":{"ha":733,"x_min":62,"x_max":666,"o":"m 555 792 l 543 869 l 248 869 l 216 591 q 284 630 246 614 q 373 646 323 645 q 588 557 509 648 q 666 315 666 467 q 586 76 666 166 q 354 -14 507 -14 q 145 54 229 -14 q 66 256 62 123 l 67 260 l 188 260 q 234 135 188 180 q 354 90 281 90 q 486 150 439 90 q 532 313 532 210 q 485 470 532 409 q 355 530 438 530 q 240 507 276 530 q 189 434 205 483 l 77 446 l 134 987 l 656 987 l 656 792 l 555 792 z "},"6":{"ha":776,"x_min":82,"x_max":724,"o":"m 450 1002 q 550 990 500 1002 q 633 961 600 979 l 607 861 q 537 887 575 877 q 450 897 499 897 q 285 818 347 897 q 220 582 224 740 l 222 579 q 315 635 260 614 q 434 656 370 656 q 645 564 566 656 q 724 332 724 473 q 640 82 724 179 q 416 -14 556 -14 q 177 91 272 -14 q 82 389 82 196 l 82 522 q 185 879 82 756 q 450 1002 288 1002 m 405 556 q 288 529 336 556 q 215 455 240 501 l 215 376 q 272 164 215 238 q 416 90 330 90 q 544 160 498 90 q 590 332 590 229 q 541 493 590 430 q 405 556 492 556 z "},"7":{"ha":765,"x_min":52,"x_max":719,"o":"m 719 882 q 477 505 540 669 q 387 106 414 340 l 376 0 l 242 0 l 253 106 q 363 524 281 340 q 588 882 446 707 l 176 882 l 165 769 l 52 769 l 52 987 l 719 987 l 719 882 z "},"8":{"ha":767,"x_min":62,"x_max":705,"o":"m 677 730 q 634 594 677 652 q 517 508 591 536 q 653 414 602 478 q 705 267 705 351 q 615 58 705 130 q 384 -14 526 -14 q 151 58 239 -14 q 62 267 62 130 q 113 414 62 351 q 248 508 163 478 q 132 594 174 536 q 90 730 90 652 q 171 931 90 860 q 382 1002 251 1002 q 595 931 513 1002 q 677 730 677 860 m 572 270 q 518 404 572 351 q 382 456 465 456 q 248 404 300 456 q 196 270 196 352 q 247 138 196 186 q 384 90 298 90 q 519 138 467 90 q 572 270 572 186 m 544 727 q 498 848 544 800 q 382 897 452 897 q 268 850 311 897 q 224 727 224 804 q 268 606 224 652 q 384 561 312 561 q 499 606 454 561 q 544 727 544 652 z "},"9":{"ha":783,"x_min":57,"x_max":696,"o":"m 347 90 q 499 164 443 90 q 557 401 555 237 l 554 404 q 478 334 527 359 q 368 310 429 310 q 140 399 224 310 q 57 650 57 488 q 146 903 57 804 q 363 1002 235 1002 q 607 905 517 1002 q 696 619 696 808 l 696 441 q 601 98 696 210 q 347 -14 505 -14 q 241 -4 295 -14 q 144 26 187 5 l 165 127 q 249 99 206 107 q 347 90 292 90 m 368 415 q 491 447 442 415 q 562 528 541 479 l 562 633 q 512 830 562 764 q 367 897 463 897 q 242 827 293 897 q 191 650 191 758 q 238 479 191 543 q 368 415 286 415 z "},"\u0000":{"ha":0,"x_min":0,"x_max":0,"o":""},"\r":{"ha":345,"x_min":0,"x_max":0,"o":""}," ":{"ha":345,"x_min":0,"x_max":0,"o":""},"\"":{"ha":519,"x_min":113,"x_max":429,"o":"m 220 875 l 178 705 l 113 705 l 113 1058 l 220 1058 l 220 875 m 429 875 l 387 705 l 321 705 l 321 1058 l 429 1058 l 429 875 z "},"#":{"ha":845,"x_min":43,"x_max":800,"o":"m 478 278 l 304 278 l 250 0 l 148 0 l 202 278 l 43 278 l 43 373 l 221 373 l 267 609 l 94 609 l 94 705 l 286 705 l 342 987 l 444 987 l 389 705 l 562 705 l 617 987 l 720 987 l 664 705 l 800 705 l 800 609 l 646 609 l 600 373 l 749 373 l 749 278 l 581 278 l 526 0 l 424 0 l 478 278 m 323 373 l 497 373 l 543 609 l 370 609 l 323 373 z "},"$":{"ha":753,"x_min":53,"x_max":686,"o":"m 553 255 q 510 359 553 316 q 367 436 467 402 q 160 547 230 477 q 90 731 90 616 q 155 913 90 843 q 332 998 219 984 l 332 1148 l 439 1148 l 439 998 q 615 900 552 981 q 677 683 677 819 l 545 683 q 502 832 545 775 q 384 889 460 889 q 264 847 304 889 q 224 733 224 806 q 265 627 224 667 q 414 549 307 586 q 619 438 552 505 q 686 256 686 371 q 616 71 686 140 q 425 -12 547 1 l 425 -141 l 319 -141 l 319 -12 q 127 74 202 1 q 56 288 53 146 l 57 291 l 186 291 q 238 142 186 186 q 368 98 291 98 q 504 139 455 98 q 553 255 553 181 z "},"%":{"ha":990,"x_min":52,"x_max":939,"o":"m 52 798 q 108 943 52 884 q 256 1002 163 1002 q 405 943 349 1002 q 460 798 460 884 l 460 745 q 405 601 460 659 q 257 543 349 543 q 108 601 164 543 q 52 745 52 659 l 52 798 m 151 745 q 179 660 151 695 q 257 625 206 625 q 334 660 307 625 q 361 745 361 694 l 361 798 q 334 883 361 848 q 256 919 306 919 q 178 883 205 919 q 151 798 151 848 l 151 745 m 530 242 q 586 387 530 328 q 734 446 642 446 q 883 387 827 446 q 939 242 939 328 l 939 189 q 883 44 939 102 q 735 -14 827 -14 q 586 44 642 -14 q 530 189 530 102 l 530 242 m 629 189 q 657 103 629 138 q 735 68 684 68 q 812 103 785 68 q 840 189 840 138 l 840 242 q 812 328 840 292 q 734 363 784 363 q 656 328 684 363 q 629 242 629 292 l 629 189 m 300 75 l 226 120 l 708 892 l 782 846 l 300 75 z "},"&":{"ha":874,"x_min":50,"x_max":842,"o":"m 50 266 q 98 411 50 349 q 241 535 146 473 q 162 655 188 602 q 136 763 136 707 q 202 940 136 878 q 385 1002 269 1002 q 559 940 492 1002 q 626 791 626 878 q 590 676 626 725 q 485 577 555 628 l 411 523 l 642 245 q 685 343 669 290 q 701 456 701 397 l 820 456 q 793 292 820 368 q 717 155 767 216 l 842 3 l 841 0 l 686 0 l 628 69 q 508 7 574 28 q 372 -14 442 -14 q 137 64 224 -14 q 50 266 50 142 m 372 90 q 468 107 420 90 q 557 155 515 123 l 313 450 l 286 430 q 204 342 224 384 q 184 266 184 300 q 232 140 184 189 q 372 90 280 90 m 270 764 q 288 689 270 728 q 343 604 307 650 l 437 669 q 489 725 475 694 q 503 791 503 755 q 470 865 503 833 q 385 897 437 897 q 300 858 330 897 q 270 764 270 820 z "},"'":{"ha":312,"x_min":113,"x_max":220,"o":"m 220 907 l 178 715 l 113 715 l 113 1058 l 220 1058 l 220 907 z "},"(":{"ha":449,"x_min":77,"x_max":441,"o":"m 77 401 q 185 857 77 668 q 412 1109 293 1046 l 416 1109 l 441 1030 q 279 798 348 958 q 211 402 211 637 l 211 393 q 279 -2 211 157 q 441 -241 347 -162 l 416 -314 l 412 -314 q 185 -62 293 -251 q 77 395 77 127 l 77 401 z "},")":{"ha":444,"x_min":7,"x_max":371,"o":"m 371 395 q 263 -62 371 127 q 37 -314 155 -251 l 33 -314 l 7 -241 q 168 -6 99 -170 q 237 393 237 157 l 237 402 q 166 798 237 635 q 7 1036 95 962 l 33 1109 l 37 1109 q 263 857 155 1046 q 371 401 371 668 l 371 395 z "},"*":{"ha":650,"x_min":45,"x_max":606,"o":"m 245 666 l 45 726 l 78 831 l 279 755 l 272 987 l 381 987 l 374 751 l 573 826 l 606 720 l 401 660 l 532 477 l 443 412 l 320 606 l 201 417 l 111 480 l 245 666 z "},"+":{"ha":777,"x_min":50,"x_max":726,"o":"m 455 531 l 726 531 l 726 410 l 455 410 l 455 99 l 321 99 l 321 410 l 50 410 l 50 531 l 321 531 l 321 818 l 455 818 l 455 531 z "},",":{"ha":274,"x_min":16,"x_max":214,"o":"m 214 49 q 180 -90 214 -18 q 91 -211 147 -163 l 16 -161 q 64 -61 47 -112 q 80 47 80 -10 l 80 150 l 214 150 l 214 49 z "},"-":{"ha":541,"x_min":104,"x_max":436,"o":"m 436 365 l 104 365 l 104 469 l 436 469 l 436 365 z "},".":{"ha":334,"x_min":98,"x_max":232,"o":"m 232 0 l 98 0 l 98 137 l 232 137 l 232 0 z "},"/":{"ha":559,"x_min":0,"x_max":525,"o":"m 113 -85 l 0 -85 l 412 987 l 525 987 l 113 -85 z "},":":{"ha":284,"x_min":98,"x_max":232,"o":"m 98 0 m 232 0 l 98 0 l 98 137 l 232 137 l 232 0 m 232 597 l 98 597 l 98 734 l 232 734 l 232 597 z "},";":{"ha":288,"x_min":36,"x_max":234,"o":"m 36 0 m 233 597 l 99 597 l 99 734 l 233 734 l 233 597 m 234 49 q 201 -90 234 -18 q 111 -211 168 -163 l 36 -161 q 84 -61 68 -112 q 100 47 100 -10 l 100 150 l 234 150 l 234 49 z "},"<":{"ha":690,"x_min":52,"x_max":605,"o":"m 226 393 l 168 380 l 168 376 l 226 363 l 605 209 l 605 73 l 52 330 l 52 431 l 605 687 l 605 551 l 226 393 z "},"=":{"ha":764,"x_min":100,"x_max":665,"o":"m 665 558 l 100 558 l 100 669 l 665 669 l 665 558 m 665 276 l 100 276 l 100 387 l 665 387 l 665 276 z "},">":{"ha":719,"x_min":85,"x_max":665,"o":"m 85 541 l 85 673 l 665 417 l 665 316 l 85 59 l 85 192 l 490 353 l 547 365 l 547 369 l 490 382 l 85 541 z "},"?":{"ha":646,"x_min":43,"x_max":604,"o":"m 244 278 q 261 415 245 377 q 346 515 277 452 q 441 637 413 594 q 470 740 470 680 q 432 850 470 812 q 322 889 393 889 q 217 856 260 889 q 174 757 174 822 l 47 757 l 45 761 q 121 936 43 870 q 322 1002 200 1002 q 530 933 456 1002 q 604 743 604 865 q 556 583 604 656 q 429 435 508 511 q 386 369 393 398 q 378 278 378 340 l 244 278 m 382 0 l 243 0 l 243 141 l 382 141 l 382 0 z "},"@":{"ha":1235,"x_min":45,"x_max":1167,"o":"m 1156 340 q 1074 91 1149 195 q 849 -14 999 -14 q 763 14 800 -14 q 711 93 727 42 q 629 12 677 39 q 515 -14 580 -14 q 384 67 431 -14 q 349 282 337 149 q 443 564 365 458 q 631 670 520 670 q 746 652 703 670 q 841 598 789 635 l 838 595 l 842 595 l 808 199 q 822 96 802 124 q 878 68 843 68 q 1011 145 961 68 q 1066 340 1061 222 q 969 744 1078 600 q 633 889 860 889 q 296 732 423 889 q 159 324 170 576 q 261 -79 147 69 q 588 -227 375 -227 q 709 -213 648 -227 q 812 -174 770 -198 l 838 -247 q 722 -291 792 -275 q 585 -307 652 -307 q 186 -138 328 -307 q 58 324 45 31 q 227 791 71 611 q 635 970 383 970 q 1030 801 892 970 q 1156 340 1167 631 m 469 282 q 484 136 461 186 q 556 85 506 85 q 635 102 599 85 q 701 162 671 119 q 701 179 701 170 q 703 199 701 188 l 734 564 q 697 576 717 572 q 657 581 678 581 q 528 507 572 581 q 469 282 483 433 z "},"A":{"ha":1017,"x_min":37,"x_max":982,"o":"m 37 85 l 111 96 l 456 987 l 570 987 l 909 96 l 982 85 l 982 0 l 699 0 l 699 85 l 773 98 l 708 280 l 313 280 l 245 98 l 320 85 l 320 0 l 37 0 l 37 85 m 354 392 l 667 392 l 514 816 l 510 816 l 354 392 z "},"B":{"ha":912,"x_min":48,"x_max":850,"o":"m 481 987 q 723 921 635 987 q 810 720 810 854 q 768 603 810 654 q 658 526 726 551 q 798 438 747 507 q 850 279 850 370 q 762 72 850 143 q 523 0 673 0 l 48 0 l 48 85 l 159 104 l 159 882 l 48 901 l 48 987 l 159 987 l 481 987 m 292 463 l 292 104 l 523 104 q 665 150 614 104 q 715 277 715 195 q 673 414 715 364 q 543 463 631 463 l 292 463 m 292 568 l 515 568 q 632 610 587 570 q 676 723 676 651 q 626 843 676 803 q 481 882 576 882 l 292 882 l 292 568 z "},"C":{"ha":896,"x_min":48,"x_max":814,"o":"m 814 684 l 720 684 l 694 824 q 614 876 662 856 q 501 897 567 897 q 264 785 347 897 q 182 502 182 673 l 182 486 q 263 202 182 315 q 488 90 344 90 q 610 111 555 90 q 694 163 665 132 l 720 302 l 814 302 l 814 127 q 686 29 771 72 q 488 -14 600 -14 q 172 128 295 -14 q 48 486 48 271 l 48 500 q 170 860 48 718 q 488 1002 291 1002 q 686 958 600 1002 q 814 860 771 914 l 814 684 z "},"D":{"ha":962,"x_min":48,"x_max":890,"o":"m 462 987 q 773 868 655 987 q 890 561 890 749 l 890 426 q 773 118 890 237 q 462 0 655 0 l 48 0 l 48 85 l 159 104 l 159 882 l 48 901 l 48 987 l 159 987 l 462 987 m 292 882 l 292 104 l 462 104 q 678 195 599 104 q 757 426 757 285 l 757 562 q 678 792 757 702 q 462 882 599 882 l 292 882 z "},"E":{"ha":886,"x_min":48,"x_max":814,"o":"m 48 0 l 48 85 l 159 104 l 159 882 l 48 901 l 48 987 l 806 987 l 806 750 l 692 750 l 681 882 l 292 882 l 292 563 l 670 563 l 670 458 l 292 458 l 292 104 l 689 104 l 700 237 l 814 237 l 814 0 l 48 0 z "},"F":{"ha":863,"x_min":48,"x_max":811,"o":"m 48 85 l 159 104 l 159 882 l 48 901 l 48 987 l 811 987 l 811 750 l 697 750 l 686 882 l 292 882 l 292 542 l 674 542 l 674 437 l 292 437 l 292 104 l 403 85 l 403 0 l 48 0 l 48 85 z "},"G":{"ha":941,"x_min":37,"x_max":834,"o":"m 834 112 q 706 26 791 66 q 486 -14 621 -14 q 162 125 288 -14 q 37 486 37 264 l 37 502 q 161 863 37 725 q 490 1002 285 1002 q 683 967 600 1002 q 823 877 766 933 l 823 698 l 730 698 l 697 834 q 617 879 664 861 q 504 897 570 897 q 257 787 344 897 q 171 503 171 677 l 171 486 q 255 199 171 309 q 486 90 338 90 q 618 107 566 90 q 701 144 669 124 l 701 361 l 538 368 l 538 466 l 834 466 l 834 112 z "},"H":{"ha":1067,"x_min":48,"x_max":1015,"o":"m 48 901 l 48 987 l 403 987 l 403 901 l 292 882 l 292 541 l 771 541 l 771 882 l 661 901 l 661 987 l 771 987 l 905 987 l 1015 987 l 1015 901 l 905 882 l 905 104 l 1015 85 l 1015 0 l 661 0 l 661 85 l 771 104 l 771 436 l 292 436 l 292 104 l 403 85 l 403 0 l 48 0 l 48 85 l 159 104 l 159 882 l 48 901 z "},"I":{"ha":449,"x_min":47,"x_max":402,"o":"m 47 901 l 47 987 l 402 987 l 402 901 l 292 882 l 292 104 l 402 85 l 402 0 l 47 0 l 47 85 l 158 104 l 158 882 l 47 901 z "},"J":{"ha":802,"x_min":40,"x_max":762,"o":"m 762 987 l 762 901 l 652 882 l 652 273 q 568 63 652 141 q 351 -14 484 -14 q 124 58 208 -14 q 43 268 40 130 l 45 272 l 173 272 q 219 135 173 180 q 351 90 266 90 q 471 140 425 90 q 518 273 518 190 l 518 882 l 408 901 l 408 987 l 652 987 l 762 987 z "},"K":{"ha":985,"x_min":48,"x_max":938,"o":"m 48 85 l 159 104 l 159 882 l 48 901 l 48 987 l 403 987 l 403 901 l 292 882 l 292 551 l 395 551 l 671 892 l 597 901 l 597 987 l 910 987 l 910 901 l 817 884 l 515 510 l 845 102 l 938 85 l 938 0 l 614 0 l 614 85 l 689 95 l 408 446 l 292 446 l 292 104 l 403 85 l 403 0 l 48 0 l 48 85 z "},"L":{"ha":813,"x_min":48,"x_max":760,"o":"m 48 0 l 48 85 l 159 104 l 159 882 l 48 901 l 48 987 l 159 987 l 292 987 l 403 987 l 403 901 l 292 882 l 292 104 l 635 104 l 646 218 l 760 218 l 760 0 l 48 0 z "},"M":{"ha":1292,"x_min":48,"x_max":1244,"o":"m 1013 791 l 1010 791 l 690 0 l 602 0 l 282 791 l 279 790 l 292 391 l 292 104 l 403 85 l 403 0 l 48 0 l 48 85 l 159 104 l 159 882 l 48 901 l 48 987 l 159 987 l 330 987 l 644 185 l 648 185 l 962 987 l 1244 987 l 1244 901 l 1134 882 l 1134 104 l 1244 85 l 1244 0 l 890 0 l 890 85 l 1000 104 l 1000 391 l 1013 791 z "},"N":{"ha":1058,"x_min":48,"x_max":1015,"o":"m 1015 987 l 1015 901 l 905 882 l 905 0 l 771 0 l 296 762 l 292 761 l 292 104 l 403 85 l 403 0 l 48 0 l 48 85 l 159 104 l 159 882 l 48 901 l 48 987 l 159 987 l 292 987 l 767 226 l 771 227 l 771 882 l 661 901 l 661 987 l 905 987 l 1015 987 z "},"O":{"ha":980,"x_min":54,"x_max":928,"o":"m 928 486 q 804 128 928 271 q 484 -14 680 -14 q 173 128 292 -14 q 54 486 54 271 l 54 500 q 173 859 54 715 q 484 1002 292 1002 q 804 859 680 1002 q 928 500 928 715 l 928 486 m 794 502 q 712 783 794 674 q 484 892 629 892 q 266 783 344 892 q 187 502 187 673 l 187 486 q 266 204 187 313 q 484 95 344 95 q 713 203 631 95 q 794 486 794 312 l 794 502 z "},"P":{"ha":882,"x_min":48,"x_max":836,"o":"m 502 987 q 748 906 660 987 q 836 692 836 825 q 748 477 836 557 q 502 396 660 396 l 292 396 l 292 104 l 403 85 l 403 0 l 48 0 l 48 85 l 159 104 l 159 882 l 48 901 l 48 987 l 159 987 l 502 987 m 292 500 l 502 500 q 652 554 602 500 q 702 690 702 608 q 652 827 702 772 q 502 882 602 882 l 292 882 l 292 500 z "},"Q":{"ha":981,"x_min":54,"x_max":943,"o":"m 928 486 q 879 246 928 355 q 743 71 830 138 l 943 -70 l 851 -151 l 627 9 q 557 -8 593 -2 q 484 -14 521 -14 q 173 128 292 -14 q 54 486 54 271 l 54 500 q 173 859 54 715 q 484 1002 292 1002 q 804 859 680 1002 q 928 500 928 715 l 928 486 m 794 502 q 712 783 794 674 q 484 892 629 892 q 266 783 344 892 q 187 502 187 673 l 187 486 q 266 204 187 313 q 484 95 344 95 q 713 203 631 95 q 794 486 794 312 l 794 502 z "},"R":{"ha":940,"x_min":48,"x_max":895,"o":"m 481 987 q 729 915 643 987 q 815 712 815 844 q 775 585 815 640 q 661 497 735 529 q 777 411 741 471 q 812 264 812 351 l 812 184 q 824 117 812 139 q 862 92 836 96 l 895 87 l 895 0 l 823 0 q 712 54 745 0 q 679 186 679 109 l 679 262 q 632 392 679 343 q 507 441 585 441 l 292 441 l 292 104 l 403 85 l 403 0 l 48 0 l 48 85 l 159 104 l 159 882 l 48 901 l 48 987 l 159 987 l 481 987 m 292 546 l 468 546 q 631 589 580 546 q 682 713 682 631 q 633 837 682 791 q 481 882 584 882 l 292 882 l 292 546 z "},"S":{"ha":846,"x_min":82,"x_max":781,"o":"m 763 696 l 662 696 l 637 837 q 555 880 606 863 q 437 897 505 897 q 274 851 331 897 q 217 734 217 806 q 275 626 217 669 q 463 551 333 583 q 700 437 618 512 q 781 250 781 361 q 683 58 781 131 q 429 -14 586 -14 q 226 23 315 -14 q 82 121 138 60 l 82 304 l 182 304 l 208 163 q 300 111 247 131 q 429 90 354 90 q 588 133 530 90 q 647 249 647 176 q 596 362 647 317 q 416 439 545 408 q 172 549 260 477 q 83 732 83 622 q 182 925 83 848 q 437 1002 280 1002 q 626 966 541 1002 q 763 880 711 930 l 763 696 z "},"T":{"ha":871,"x_min":25,"x_max":846,"o":"m 846 987 l 846 769 l 732 769 l 722 882 l 503 882 l 503 104 l 613 85 l 613 0 l 258 0 l 258 85 l 369 104 l 369 882 l 149 882 l 140 769 l 25 769 l 25 987 l 846 987 z "},"U":{"ha":1045,"x_min":41,"x_max":1005,"o":"m 395 987 l 395 901 l 285 882 l 285 318 q 349 148 285 206 q 517 90 412 90 q 694 148 627 90 q 761 318 761 205 l 761 882 l 650 901 l 650 987 l 895 987 l 1005 987 l 1005 901 l 895 882 l 895 318 q 790 72 895 157 q 517 -14 685 -14 q 252 72 353 -14 q 151 318 151 157 l 151 882 l 41 901 l 41 987 l 151 987 l 395 987 z "},"V":{"ha":997,"x_min":32,"x_max":966,"o":"m 344 901 l 254 887 l 475 245 l 497 168 l 501 168 l 524 245 l 744 888 l 655 901 l 655 987 l 966 987 l 966 901 l 887 890 l 556 0 l 441 0 l 111 890 l 32 901 l 32 987 l 344 987 l 344 901 z "},"W":{"ha":1295,"x_min":18,"x_max":1277,"o":"m 332 901 l 231 886 l 358 342 l 376 218 l 380 218 l 407 342 l 589 987 l 707 987 l 889 342 l 916 215 l 920 215 l 940 342 l 1064 886 l 963 901 l 963 987 l 1277 987 l 1277 901 l 1198 891 l 983 0 l 863 0 l 668 685 l 650 774 l 646 774 l 629 685 l 431 0 l 313 0 l 98 891 l 18 901 l 18 987 l 332 987 l 332 901 z "},"X":{"ha":952,"x_min":29,"x_max":923,"o":"m 29 85 l 118 100 l 399 498 l 125 886 l 36 901 l 36 987 l 356 987 l 356 901 l 277 892 l 474 596 l 673 892 l 594 901 l 594 987 l 916 987 l 916 901 l 827 886 l 553 498 l 833 100 l 923 85 l 923 0 l 604 0 l 604 85 l 682 94 l 477 398 l 271 94 l 351 85 l 351 0 l 29 0 l 29 85 z "},"Y":{"ha":960,"x_min":37,"x_max":917,"o":"m 376 901 l 270 888 l 477 486 l 684 888 l 578 901 l 578 987 l 917 987 l 917 901 l 833 888 l 541 347 l 541 104 l 651 85 l 651 0 l 297 0 l 297 85 l 408 104 l 408 357 l 120 888 l 37 901 l 37 987 l 376 987 l 376 901 z "},"Z":{"ha":827,"x_min":62,"x_max":765,"o":"m 212 104 l 640 104 l 651 218 l 765 218 l 765 0 l 62 0 l 62 99 l 589 882 l 193 882 l 184 769 l 69 769 l 69 987 l 743 987 l 743 892 l 212 104 z "},"[":{"ha":389,"x_min":106,"x_max":367,"o":"m 367 1023 l 240 1023 l 240 -106 l 367 -106 l 367 -212 l 106 -212 l 106 1128 l 367 1128 l 367 1023 z "},"\\":{"ha":570,"x_min":24,"x_max":563,"o":"m 24 987 l 151 987 l 563 -85 l 437 -85 l 24 987 z "},"]":{"ha":374,"x_min":16,"x_max":277,"o":"m 16 1128 l 277 1128 l 277 -212 l 16 -212 l 16 -106 l 143 -106 l 143 1023 l 16 1023 l 16 1128 z "},"^":{"ha":586,"x_min":48,"x_max":544,"o":"m 172 494 l 48 494 l 251 987 l 342 987 l 544 494 l 420 494 l 308 779 l 297 826 l 293 826 l 282 779 l 172 494 z "},"_":{"ha":792,"x_min":81,"x_max":706,"o":"m 706 -104 l 81 -104 l 81 0 l 706 0 l 706 -104 z "},"`":{"ha":395,"x_min":57,"x_max":334,"o":"m 334 821 l 226 821 l 57 998 l 59 1002 l 215 1002 l 334 821 z "},"a":{"ha":765,"x_min":71,"x_max":714,"o":"m 539 0 q 530 54 533 30 q 525 101 526 77 q 428 19 486 52 q 304 -14 370 -14 q 130 42 190 -14 q 71 199 71 98 q 155 360 71 304 q 387 417 239 417 l 524 417 l 524 503 q 484 605 524 567 q 370 642 443 642 q 282 629 320 642 q 220 594 243 616 l 205 517 l 102 517 l 102 659 q 224 723 153 699 q 378 747 295 747 q 581 684 503 747 q 658 501 658 620 l 658 148 q 658 120 658 134 q 660 93 659 106 l 714 85 l 714 0 l 539 0 m 324 98 q 446 130 391 98 q 524 206 500 161 l 524 327 l 382 327 q 252 289 300 327 q 204 197 204 251 q 234 123 204 149 q 324 98 264 98 z "},"b":{"ha":804,"x_min":-5,"x_max":732,"o":"m 732 339 q 655 83 732 180 q 446 -14 579 -14 q 321 13 374 -14 q 233 94 268 41 l 220 0 l 105 0 l 105 953 l -5 972 l -5 1058 l 239 1058 l 239 647 q 325 722 273 696 q 444 747 376 747 q 656 639 580 747 q 732 353 732 530 l 732 339 m 597 353 q 551 559 597 480 q 410 639 505 639 q 306 609 349 639 q 239 529 264 579 l 239 205 q 307 124 264 154 q 412 94 350 94 q 552 161 506 94 q 597 339 597 229 l 597 353 z "},"c":{"ha":749,"x_min":61,"x_max":682,"o":"m 390 90 q 507 131 456 90 q 557 232 557 172 l 677 232 l 679 228 q 594 59 682 133 q 390 -14 507 -14 q 145 90 230 -14 q 61 353 61 195 l 61 381 q 146 643 61 538 q 390 747 231 747 q 548 718 478 747 q 665 638 618 689 l 671 475 l 564 475 l 535 591 q 474 628 511 614 q 390 642 437 642 q 240 567 285 642 q 195 381 195 491 l 195 353 q 239 165 195 240 q 390 90 284 90 z "},"d":{"ha":833,"x_min":61,"x_max":792,"o":"m 555 87 q 467 12 519 37 q 347 -14 415 -14 q 137 83 212 -14 q 61 339 61 180 l 61 353 q 137 639 61 530 q 348 747 212 747 q 463 723 413 747 q 548 654 513 699 l 548 953 l 437 972 l 437 1058 l 548 1058 l 682 1058 l 682 104 l 792 85 l 792 0 l 566 0 l 555 87 m 195 339 q 240 161 195 229 q 380 94 286 94 q 481 121 440 94 q 548 198 522 149 l 548 538 q 481 612 522 585 q 382 639 439 639 q 240 559 286 639 q 195 353 195 480 l 195 339 z "},"e":{"ha":747,"x_min":61,"x_max":675,"o":"m 395 -14 q 152 88 242 -14 q 61 353 61 190 l 61 382 q 154 643 61 539 q 375 747 248 747 q 599 658 523 747 q 675 419 675 568 l 675 336 l 199 336 l 197 332 q 251 158 199 227 q 395 90 302 90 q 514 110 463 90 q 603 163 566 129 l 655 76 q 551 12 616 38 q 395 -14 486 -14 m 375 642 q 260 586 308 642 q 202 444 213 529 l 203 440 l 542 440 l 542 458 q 500 589 542 536 q 375 642 458 642 z "},"f":{"ha":494,"x_min":47,"x_max":493,"o":"m 47 635 l 47 734 l 162 734 l 162 827 q 223 1008 162 944 q 395 1072 285 1072 q 441 1068 418 1072 q 493 1058 465 1065 l 477 956 q 447 961 465 959 q 412 963 430 963 q 324 928 353 963 q 296 827 296 893 l 296 734 l 449 734 l 449 635 l 296 635 l 296 104 l 406 85 l 406 0 l 52 0 l 52 85 l 162 104 l 162 635 l 47 635 z "},"g":{"ha":786,"x_min":61,"x_max":686,"o":"m 61 353 q 138 639 61 530 q 352 747 216 747 q 473 720 421 747 q 561 642 526 693 l 573 734 l 686 734 l 686 9 q 606 -215 686 -133 q 380 -296 527 -296 q 266 -282 328 -296 q 157 -242 204 -267 l 192 -138 q 280 -171 229 -158 q 379 -184 331 -184 q 510 -134 469 -184 q 552 9 552 -83 l 552 79 q 466 9 516 33 q 351 -14 416 -14 q 138 83 216 -14 q 61 339 61 181 l 61 353 m 195 339 q 241 161 195 229 q 384 94 288 94 q 485 122 444 94 q 552 199 526 149 l 552 537 q 485 611 526 584 q 385 639 444 639 q 242 559 290 639 q 195 353 195 479 l 195 339 z "},"h":{"ha":897,"x_min":42,"x_max":860,"o":"m 42 85 l 153 104 l 153 953 l 42 972 l 42 1058 l 286 1058 l 286 636 q 379 718 324 689 q 501 747 434 747 q 684 677 619 747 q 749 460 749 606 l 749 104 l 860 85 l 860 0 l 505 0 l 505 85 l 616 104 l 616 461 q 577 595 616 552 q 460 639 538 639 q 360 613 406 639 q 286 542 315 587 l 286 104 l 397 85 l 397 0 l 42 0 l 42 85 z "},"i":{"ha":456,"x_min":60,"x_max":415,"o":"m 60 85 l 171 104 l 171 629 l 60 648 l 60 734 l 304 734 l 304 104 l 415 85 l 415 0 l 60 0 l 60 85 m 304 922 l 171 922 l 171 1058 l 304 1058 l 304 922 z "},"j":{"ha":387,"x_min":-9,"x_max":288,"o":"m 288 -60 q 229 -235 288 -174 q 67 -296 171 -296 q 28 -293 45 -296 q -9 -284 10 -290 l 0 -179 q 28 -185 9 -182 q 58 -187 46 -187 q 128 -157 102 -187 q 154 -60 154 -127 l 154 629 l 43 648 l 43 734 l 288 734 l 288 -60 m 283 924 l 150 924 l 150 1058 l 283 1058 l 283 924 z "},"k":{"ha":844,"x_min":42,"x_max":804,"o":"m 42 972 l 42 1058 l 286 1058 l 286 445 l 372 445 l 528 639 l 461 648 l 461 734 l 768 734 l 768 648 l 679 630 l 486 399 l 721 102 l 804 85 l 804 0 l 500 0 l 500 85 l 568 94 l 374 338 l 286 338 l 286 104 l 397 85 l 397 0 l 42 0 l 42 85 l 153 104 l 153 953 l 42 972 z "},"l":{"ha":437,"x_min":42,"x_max":397,"o":"m 42 972 l 42 1058 l 286 1058 l 286 104 l 397 85 l 397 0 l 42 0 l 42 85 l 153 104 l 153 953 l 42 972 z "},"m":{"ha":1312,"x_min":34,"x_max":1276,"o":"m 34 85 l 144 104 l 144 629 l 34 648 l 34 734 l 264 734 l 273 638 q 364 719 309 690 q 493 747 420 747 q 619 713 566 747 q 698 612 671 680 q 789 711 732 674 q 922 747 846 747 q 1100 670 1035 747 q 1165 439 1165 593 l 1165 104 l 1276 85 l 1276 0 l 920 0 l 920 85 l 1031 104 l 1031 440 q 994 594 1031 549 q 883 639 956 639 q 771 590 813 639 q 722 466 728 541 l 722 104 l 832 85 l 832 0 l 477 0 l 477 85 l 588 104 l 588 440 q 550 591 588 543 q 439 639 511 639 q 338 614 378 639 q 278 543 299 589 l 278 104 l 389 85 l 389 0 l 34 0 l 34 85 z "},"n":{"ha":894,"x_min":41,"x_max":857,"o":"m 41 85 l 151 104 l 151 629 l 41 648 l 41 734 l 271 734 l 280 625 q 372 715 317 683 q 498 747 427 747 q 682 678 616 747 q 747 463 747 608 l 747 104 l 857 85 l 857 0 l 503 0 l 503 85 l 613 104 l 613 460 q 575 598 613 557 q 458 639 536 639 q 356 611 400 639 q 285 535 311 583 l 285 104 l 395 85 l 395 0 l 41 0 l 41 85 z "},"o":{"ha":779,"x_min":61,"x_max":718,"o":"m 61 374 q 149 642 61 536 q 389 747 237 747 q 629 642 541 747 q 718 374 718 537 l 718 359 q 629 90 718 195 q 390 -14 541 -14 q 149 91 237 -14 q 61 359 61 195 l 61 374 m 195 359 q 244 166 195 242 q 390 90 293 90 q 534 166 485 90 q 584 359 584 242 l 584 374 q 534 566 584 489 q 389 642 485 642 q 243 566 292 642 q 195 374 195 489 l 195 359 z "},"p":{"ha":841,"x_min":44,"x_max":780,"o":"m 44 -196 l 155 -177 l 155 629 l 44 648 l 44 734 l 269 734 l 281 644 q 371 721 318 694 q 492 747 423 747 q 704 639 629 747 q 780 353 780 531 l 780 339 q 704 83 780 180 q 494 -14 628 -14 q 375 8 427 -14 q 288 76 324 31 l 288 -177 l 399 -196 l 399 -282 l 44 -282 l 44 -196 m 646 353 q 597 559 646 479 q 452 639 548 639 q 354 613 395 639 q 288 543 313 587 l 288 185 q 354 115 313 140 q 453 90 394 90 q 597 159 548 90 q 646 339 646 229 l 646 353 z "},"q":{"ha":783,"x_min":61,"x_max":785,"o":"m 61 353 q 137 639 61 530 q 348 747 212 747 q 463 723 412 747 q 548 653 513 699 l 559 734 l 674 734 l 674 -177 l 785 -196 l 785 -282 l 430 -282 l 430 -196 l 541 -177 l 541 69 q 457 7 505 28 q 347 -14 408 -14 q 137 83 212 -14 q 61 339 61 180 l 61 353 m 195 339 q 240 159 195 228 q 380 90 286 90 q 475 115 436 90 q 541 184 514 139 l 541 552 q 475 618 514 593 q 382 642 435 642 q 240 561 286 642 q 195 353 195 480 l 195 339 z "},"r":{"ha":574,"x_min":60,"x_max":543,"o":"m 60 648 l 60 734 l 290 734 l 303 627 q 380 715 334 684 q 485 747 426 747 q 517 745 500 747 q 543 740 534 743 l 525 616 l 449 620 q 360 595 396 620 q 304 526 324 570 l 304 104 l 415 85 l 415 0 l 60 0 l 60 85 l 171 104 l 171 629 l 60 648 z "},"s":{"ha":708,"x_min":80,"x_max":644,"o":"m 622 503 l 522 503 l 500 591 q 438 628 475 614 q 355 642 401 642 q 249 611 283 642 q 214 536 214 580 q 245 467 214 492 q 369 422 275 442 q 576 341 508 393 q 644 204 644 290 q 565 46 644 106 q 358 -14 486 -14 q 208 5 275 -14 q 90 61 142 24 l 89 229 l 189 229 l 214 130 q 277 100 237 109 q 358 90 317 90 q 470 119 429 90 q 510 195 510 148 q 476 267 510 239 q 349 317 443 296 q 148 396 216 346 q 80 532 80 446 q 156 684 80 621 q 355 747 233 747 q 505 726 438 747 q 615 665 571 704 l 622 503 z "},"t":{"ha":509,"x_min":44,"x_max":467,"o":"m 294 911 l 294 734 l 433 734 l 433 635 l 294 635 l 294 189 q 315 117 294 138 q 372 96 336 96 q 411 99 389 96 q 448 105 433 102 l 467 14 q 411 -6 448 1 q 338 -14 374 -14 q 208 35 256 -14 q 160 189 160 84 l 160 635 l 44 635 l 44 734 l 160 734 l 160 911 l 294 911 z "},"u":{"ha":844,"x_min":33,"x_max":798,"o":"m 585 109 q 496 18 551 50 q 370 -14 441 -14 q 184 62 251 -14 q 117 301 117 139 l 117 629 l 33 648 l 33 734 l 117 734 l 250 734 l 250 300 q 285 138 250 182 q 393 94 319 94 q 510 123 464 94 q 581 205 557 152 l 581 629 l 482 648 l 482 734 l 581 734 l 714 734 l 714 104 l 798 85 l 798 0 l 594 0 l 585 109 z "},"v":{"ha":775,"x_min":28,"x_max":745,"o":"m 312 648 l 224 634 l 375 216 l 387 163 l 391 163 l 404 216 l 551 634 l 462 648 l 462 734 l 745 734 l 745 648 l 685 637 l 439 0 l 338 0 l 89 637 l 28 648 l 28 734 l 312 734 l 312 648 z "},"w":{"ha":1148,"x_min":41,"x_max":1101,"o":"m 321 648 l 237 633 l 332 267 l 348 178 l 352 178 l 371 267 l 517 734 l 625 734 l 772 267 l 793 168 l 797 168 l 817 267 l 907 633 l 821 648 l 821 734 l 1101 734 l 1101 648 l 1037 638 l 852 0 l 744 0 l 602 447 l 571 570 l 567 570 l 538 447 l 399 0 l 291 0 l 106 638 l 41 648 l 41 734 l 321 734 l 321 648 z "},"x":{"ha":808,"x_min":42,"x_max":775,"o":"m 42 85 l 121 101 l 337 371 l 127 632 l 49 648 l 49 734 l 336 734 l 336 648 l 270 640 l 407 463 l 545 640 l 479 648 l 479 734 l 768 734 l 768 648 l 690 632 l 480 371 l 696 101 l 775 85 l 775 0 l 488 0 l 488 85 l 553 93 l 409 277 l 265 93 l 331 85 l 331 0 l 42 0 l 42 85 z "},"y":{"ha":788,"x_min":24,"x_max":758,"o":"m 758 648 l 692 637 l 412 -113 q 332 -241 385 -186 q 192 -296 280 -296 q 151 -293 176 -296 q 113 -286 126 -289 l 126 -180 q 150 -182 122 -180 q 186 -184 178 -184 q 255 -147 229 -184 q 301 -62 281 -110 l 333 14 l 91 637 l 24 648 l 24 734 l 320 734 l 320 648 l 237 634 l 364 272 l 389 178 l 393 178 l 545 634 l 462 648 l 462 734 l 758 734 l 758 648 z "},"z":{"ha":735,"x_min":76,"x_max":659,"o":"m 235 104 l 534 104 l 545 218 l 659 218 l 659 0 l 76 0 l 76 94 l 473 628 l 204 628 l 194 515 l 80 515 l 80 734 l 636 734 l 636 643 l 235 104 z "},"{":{"ha":475,"x_min":43,"x_max":455,"o":"m 428 -247 q 240 -128 296 -210 q 184 68 184 -47 l 184 208 q 149 326 184 283 q 43 368 115 368 l 43 468 q 149 510 115 468 q 184 628 184 551 l 184 768 q 240 965 184 884 q 428 1083 296 1046 l 455 1004 q 349 919 380 980 q 317 768 317 857 l 317 628 q 289 503 317 557 q 203 418 260 448 q 289 332 260 387 q 317 208 317 277 l 317 68 q 349 -82 317 -21 q 455 -167 380 -142 l 428 -247 z "},"|":{"ha":306,"x_min":102,"x_max":208,"o":"m 208 -183 l 102 -183 l 102 987 l 208 987 l 208 -183 z "},"}":{"ha":475,"x_min":18,"x_max":431,"o":"m 18 -167 q 123 -82 92 -142 q 155 68 155 -21 l 155 208 q 186 334 155 280 q 280 418 216 389 q 186 500 216 446 q 155 628 155 554 l 155 768 q 123 919 155 857 q 18 1004 92 980 l 45 1083 q 233 965 177 1046 q 289 768 289 884 l 289 628 q 323 510 289 551 q 431 468 358 468 l 431 368 q 323 326 358 368 q 289 208 289 283 l 289 68 q 233 -128 289 -47 q 45 -247 177 -210 l 18 -167 z "},"~":{"ha":940,"x_min":82,"x_max":852,"o":"m 852 502 q 793 340 852 409 q 646 272 734 272 q 535 294 585 272 q 428 367 486 317 q 354 416 387 399 q 288 432 321 432 q 210 396 242 432 q 178 309 178 360 l 82 321 q 140 479 82 414 q 288 545 198 545 q 398 521 347 545 q 507 450 449 498 q 579 400 547 416 q 646 385 611 385 q 723 423 690 385 q 756 514 756 462 l 852 502 z "},"¡":{"ha":326,"x_min":96,"x_max":230,"o":"m 230 -254 l 96 -254 l 96 410 l 230 410 l 230 -254 m 230 594 l 96 594 l 96 734 l 230 734 l 230 594 z "},"¢":{"ha":758,"x_min":71,"x_max":692,"o":"m 399 90 q 516 131 466 90 q 567 232 567 172 l 688 232 l 689 228 q 622 75 692 144 q 450 -10 551 6 l 450 -166 l 317 -166 l 317 -5 q 133 119 196 20 q 71 353 71 217 l 71 381 q 133 613 71 515 q 317 739 196 711 l 317 894 l 450 894 l 450 745 q 578 709 521 736 q 674 638 635 682 l 680 475 l 574 475 l 545 591 q 484 628 521 614 q 399 642 446 642 q 249 567 294 642 q 204 381 204 491 l 204 353 q 249 165 204 240 q 399 90 294 90 z "},"£":{"ha":800,"x_min":46,"x_max":751,"o":"m 290 417 l 294 316 q 283 200 294 255 q 253 104 273 144 l 627 104 l 637 218 l 751 218 l 751 104 l 751 104 l 751 0 l 90 0 l 90 104 l 96 104 q 144 180 128 113 q 161 316 161 246 l 157 417 l 46 417 l 46 522 l 153 522 l 146 705 q 222 923 146 844 q 425 1002 298 1002 q 635 931 561 1002 q 707 743 710 860 l 706 739 l 578 739 q 535 858 578 819 q 425 897 492 897 q 319 846 358 897 q 279 705 279 795 l 286 522 l 570 522 l 570 417 l 290 417 z "},"¤":{"ha":991,"x_min":64,"x_max":922,"o":"m 737 73 q 622 9 685 31 q 491 -14 559 -14 q 360 8 422 -14 q 245 73 298 31 l 157 -18 l 64 76 l 157 171 q 105 284 123 222 q 87 412 87 345 q 107 545 87 481 q 163 662 126 609 l 64 763 l 157 857 l 254 758 q 365 816 304 795 q 491 837 426 837 q 617 816 557 837 q 728 757 677 795 l 827 858 l 922 763 l 821 659 q 875 544 856 606 q 895 412 895 481 q 877 285 895 346 q 826 173 859 224 l 922 76 l 827 -18 l 737 73 m 211 412 q 293 195 211 285 q 491 105 374 105 q 688 195 606 105 q 770 412 770 285 q 688 628 770 538 q 491 718 606 718 q 293 628 374 718 q 211 412 211 538 z "},"¥":{"ha":940,"x_min":40,"x_max":905,"o":"m 905 901 l 811 888 l 585 500 l 797 500 l 797 417 l 537 417 l 537 304 l 797 304 l 797 221 l 537 221 l 537 104 l 648 85 l 648 0 l 293 0 l 293 85 l 404 104 l 404 221 l 149 221 l 149 304 l 404 304 l 404 417 l 149 417 l 149 500 l 360 500 l 134 887 l 40 901 l 40 987 l 340 987 l 340 901 l 281 891 l 473 538 l 665 891 l 606 901 l 606 987 l 905 987 l 905 901 z "},"¦":{"ha":336,"x_min":102,"x_max":235,"o":"m 102 -183 l 102 354 l 235 354 l 235 -183 l 102 -183 m 235 473 l 102 473 l 102 987 l 235 987 l 235 473 z "},"§":{"ha":836,"x_min":58,"x_max":776,"o":"m 776 292 q 743 181 776 229 q 651 106 711 134 q 722 26 699 72 q 746 -87 746 -20 q 656 -270 746 -203 q 413 -336 566 -336 q 160 -266 262 -336 q 62 -47 58 -197 l 63 -43 l 191 -42 q 256 -185 191 -139 q 413 -231 321 -231 q 559 -190 505 -231 q 612 -88 612 -150 q 564 8 612 -26 q 376 85 515 42 q 138 191 214 127 q 61 374 61 254 q 93 483 61 435 q 183 559 124 531 q 114 640 137 593 q 92 753 92 687 q 182 933 92 865 q 425 1002 273 1002 q 671 926 583 1002 q 757 713 760 850 l 755 709 l 627 709 q 573 843 627 789 q 425 897 519 897 q 276 856 326 897 q 225 754 225 816 q 271 653 225 687 q 459 581 316 620 q 700 472 625 534 q 776 292 776 411 m 406 467 q 346 484 374 475 q 293 503 317 493 q 219 456 243 490 q 195 375 195 422 q 240 272 195 307 q 429 197 286 237 q 490 179 465 186 q 539 163 516 171 q 616 210 589 176 q 643 290 643 244 q 593 388 643 352 q 406 467 543 425 z "},"¨":{"ha":673,"x_min":103,"x_max":570,"o":"m 570 852 l 422 852 l 422 987 l 570 987 l 570 852 m 251 852 l 103 852 l 103 987 l 251 987 l 251 852 z "},"©":{"ha":1082,"x_min":62,"x_max":1025,"o":"m 755 404 l 757 400 q 700 244 760 298 q 534 191 641 191 q 362 263 426 191 q 298 454 298 335 l 298 534 q 362 724 298 652 q 534 797 426 797 q 701 743 641 797 q 758 589 760 690 l 756 585 l 657 585 q 626 679 657 649 q 534 708 595 708 q 435 660 470 708 q 401 535 401 612 l 401 454 q 435 327 401 374 q 534 279 470 279 q 626 309 595 279 q 656 404 656 338 l 755 404 m 144 494 q 260 191 144 315 q 544 68 377 68 q 826 191 709 68 q 943 494 943 315 q 826 795 943 673 q 544 918 709 918 q 260 796 377 918 q 144 494 144 673 m 62 494 q 203 854 62 708 q 544 1001 343 1001 q 884 854 744 1001 q 1025 494 1025 708 q 884 133 1025 280 q 544 -14 743 -14 q 203 133 343 -14 q 62 494 62 280 z "},"ª":{"ha":606,"x_min":72,"x_max":524,"o":"m 406 479 q 397 509 400 493 q 391 543 393 526 q 331 490 369 511 q 241 469 293 469 q 116 511 160 469 q 72 624 72 552 q 129 739 72 699 q 296 780 186 780 l 389 780 l 389 815 q 369 881 389 858 q 310 904 349 904 q 240 886 264 904 q 215 834 215 867 l 104 843 l 104 847 q 157 958 100 913 q 310 1002 215 1002 q 453 954 400 1002 q 507 814 507 905 l 507 602 q 511 537 507 567 q 524 479 515 507 l 406 479 m 269 564 q 340 584 304 564 q 389 628 377 604 l 389 703 l 296 703 q 217 680 245 703 q 189 627 189 658 q 209 580 189 596 q 269 564 229 564 z "},"«":{"ha":634,"x_min":39,"x_max":566,"o":"m 39 79 m 167 349 l 340 79 l 239 79 l 39 343 l 39 356 l 239 620 l 340 620 l 167 349 m 393 349 l 566 79 l 466 79 l 266 343 l 266 356 l 466 620 l 566 620 l 393 349 z "},"¬":{"ha":761,"x_min":82,"x_max":648,"o":"m 648 254 l 514 254 l 514 432 l 82 432 l 82 544 l 648 544 l 648 254 z "},"®":{"ha":1082,"x_min":62,"x_max":1025,"o":"m 62 494 q 203 854 62 708 q 544 1001 343 1001 q 884 854 744 1001 q 1025 494 1025 708 q 884 133 1025 280 q 544 -14 743 -14 q 203 133 343 -14 q 62 494 62 280 m 144 494 q 260 191 144 315 q 544 68 377 68 q 826 191 709 68 q 943 494 943 315 q 826 795 943 673 q 544 918 709 918 q 260 796 377 918 q 144 494 144 673 m 446 444 l 446 214 l 345 214 l 345 791 l 534 791 q 696 746 637 791 q 754 616 754 702 q 732 543 754 575 q 667 490 709 511 q 732 436 712 472 q 752 349 752 400 l 752 311 q 754 261 752 283 q 764 225 757 239 l 764 214 l 660 214 q 652 256 654 229 q 651 312 651 283 l 651 349 q 628 420 651 397 q 553 444 606 444 l 446 444 m 446 532 l 549 532 q 623 554 593 532 q 654 613 654 575 q 627 683 654 663 q 534 703 601 703 l 446 703 l 446 532 z "},"¯":{"ha":697,"x_min":104,"x_max":593,"o":"m 593 888 l 104 888 l 104 987 l 593 987 l 593 888 z "},"°":{"ha":513,"x_min":84,"x_max":429,"o":"m 84 825 q 135 949 84 897 q 258 1002 186 1002 q 379 949 328 1002 q 429 825 429 897 q 379 701 429 751 q 258 650 328 650 q 135 701 186 650 q 84 825 84 751 m 172 825 q 197 763 172 787 q 258 739 222 739 q 317 763 293 739 q 341 825 341 787 q 317 887 341 862 q 258 913 293 913 q 197 887 222 913 q 172 825 172 862 z "},"±":{"ha":717,"x_min":51,"x_max":672,"o":"m 429 581 l 672 581 l 672 476 l 429 476 l 429 196 l 309 196 l 309 476 l 51 476 l 51 581 l 309 581 l 309 859 l 429 859 l 429 581 m 650 3 l 84 3 l 84 109 l 650 109 l 650 3 z "},"²":{"ha":561,"x_min":77,"x_max":484,"o":"m 484 452 l 83 452 l 83 541 l 288 718 q 349 784 334 758 q 363 838 363 809 q 345 893 363 872 q 286 914 326 914 q 216 892 241 914 q 191 837 191 871 l 82 837 l 81 841 q 134 956 77 908 q 286 1003 191 1003 q 429 960 378 1003 q 481 838 481 916 q 451 745 481 783 q 342 636 420 707 l 238 545 l 239 541 l 484 541 l 484 452 z "},"³":{"ha":573,"x_min":71,"x_max":502,"o":"m 288 771 q 355 790 333 771 q 376 845 376 810 q 352 894 376 875 q 281 913 328 913 q 219 897 243 913 q 195 854 195 881 l 85 854 l 84 858 q 137 962 80 922 q 281 1002 195 1002 q 436 962 379 1002 q 493 847 493 922 q 469 779 493 810 q 403 730 445 748 q 476 682 451 714 q 502 604 502 650 q 441 486 502 528 q 281 444 380 444 q 133 484 195 444 q 75 598 71 523 l 76 602 l 186 602 q 212 552 186 571 q 281 532 237 532 q 358 552 330 532 q 386 605 386 572 q 361 667 386 648 q 288 686 337 686 l 197 686 l 197 771 l 288 771 z "},"´":{"ha":406,"x_min":64,"x_max":347,"o":"m 189 1002 l 345 1002 l 347 998 l 164 822 l 64 822 l 189 1002 z "},"µ":{"ha":892,"x_min":45,"x_max":847,"o":"m 610 74 q 537 8 581 31 q 437 -14 494 -14 q 352 -3 389 -14 q 288 32 315 8 l 288 -282 l 155 -282 l 155 629 l 45 648 l 45 734 l 155 734 l 288 734 l 288 312 q 326 137 288 184 q 432 90 363 90 q 541 115 499 90 q 603 188 582 140 l 603 629 l 492 648 l 492 734 l 736 734 l 736 104 l 847 85 l 847 0 l 616 0 l 610 74 z "},"¶":{"ha":739,"x_min":53,"x_max":687,"o":"m 387 353 q 140 440 228 353 q 53 670 53 528 q 141 899 53 810 q 387 987 229 987 l 687 987 l 687 901 l 576 882 l 576 104 l 687 85 l 687 0 l 332 0 l 332 85 l 443 104 l 443 353 l 387 353 z "},"·":{"ha":350,"x_min":108,"x_max":242,"o":"m 242 423 l 108 423 l 108 567 l 242 567 l 242 423 z "},"¸":{"ha":319,"x_min":70,"x_max":281,"o":"m 187 0 l 179 -35 q 252 -71 223 -43 q 281 -153 281 -98 q 228 -256 281 -218 q 75 -295 174 -295 l 70 -221 q 148 -204 119 -221 q 178 -155 178 -188 q 153 -109 178 -122 q 70 -92 129 -96 l 92 0 l 187 0 z "},"¹":{"ha":371,"x_min":64,"x_max":269,"o":"m 269 451 l 151 451 l 151 895 l 64 895 l 64 986 l 269 1002 l 269 451 z "},"º":{"ha":638,"x_min":82,"x_max":551,"o":"m 82 774 q 145 938 82 875 q 316 1002 209 1002 q 487 938 423 1002 q 551 774 551 875 l 551 695 q 487 531 551 594 q 317 469 424 469 q 146 531 210 469 q 82 695 82 594 l 82 774 m 199 695 q 229 600 199 635 q 317 564 258 564 q 404 600 374 564 q 433 695 433 636 l 433 774 q 403 868 433 831 q 316 904 373 904 q 229 868 259 904 q 199 774 199 831 l 199 695 z "},"»":{"ha":636,"x_min":71,"x_max":606,"o":"m 71 103 m 172 644 l 372 380 l 372 367 l 172 103 l 71 103 l 243 373 l 71 644 l 172 644 m 406 644 l 606 380 l 606 367 l 406 103 l 305 103 l 477 373 l 305 644 l 406 644 z "},"¼":{"ha":979,"x_min":124,"x_max":1021,"o":"m 124 0 m 328 450 l 210 450 l 210 895 l 124 895 l 124 985 l 328 1001 l 328 450 m 292 80 l 218 125 l 700 897 l 774 852 l 292 80 m 936 191 l 1021 191 l 1021 103 l 936 103 l 936 0 l 821 0 l 821 103 l 538 103 l 532 172 l 818 543 l 936 543 l 936 191 m 656 191 l 821 191 l 821 401 l 817 402 l 808 387 l 656 191 z "},"½":{"ha":1004,"x_min":124,"x_max":1034,"o":"m 124 0 m 300 80 l 227 125 l 709 897 l 783 852 l 300 80 m 328 450 l 210 450 l 210 895 l 124 895 l 124 985 l 328 1001 l 328 450 m 1034 0 l 632 0 l 632 88 l 837 266 q 898 331 884 306 q 913 386 913 357 q 894 441 913 420 q 836 462 875 462 q 765 440 790 462 q 741 385 741 418 l 631 385 l 630 389 q 683 503 626 456 q 836 551 740 551 q 979 507 927 551 q 1030 385 1030 464 q 1000 293 1030 331 q 891 184 970 255 l 787 92 l 789 88 l 1034 88 l 1034 0 z "},"¾":{"ha":1146,"x_min":82,"x_max":1149,"o":"m 82 0 m 416 80 l 342 125 l 825 897 l 899 852 l 416 80 m 1064 191 l 1149 191 l 1149 103 l 1064 103 l 1064 0 l 949 0 l 949 103 l 666 103 l 661 172 l 946 543 l 1064 543 l 1064 191 m 784 191 l 949 191 l 949 401 l 945 402 l 936 387 l 784 191 m 298 772 q 366 791 344 772 q 387 846 387 810 q 363 895 387 876 q 292 914 338 914 q 230 898 254 914 q 206 854 206 882 l 96 854 l 95 859 q 148 963 91 922 q 292 1003 205 1003 q 447 963 390 1003 q 504 848 504 922 q 480 780 504 810 q 414 731 456 749 q 487 683 462 715 q 513 604 513 650 q 452 487 513 529 q 292 445 391 445 q 144 484 205 445 q 86 599 82 524 l 87 603 l 197 603 q 223 552 197 572 q 292 533 248 533 q 369 553 340 533 q 397 606 397 573 q 372 667 397 648 q 298 686 348 686 l 208 686 l 208 772 l 298 772 z "},"¿":{"ha":604,"x_min":39,"x_max":600,"o":"m 399 456 q 381 319 397 357 q 296 219 365 281 q 200 96 228 138 q 173 -5 173 54 q 211 -116 173 -78 q 320 -155 248 -155 q 425 -121 381 -155 q 469 -22 469 -87 l 596 -22 l 598 -26 q 520 -201 600 -136 q 320 -267 441 -267 q 113 -199 186 -267 q 39 -9 39 -131 q 86 150 39 77 q 213 299 134 222 q 257 364 249 335 q 265 456 265 393 l 399 456 m 261 734 l 400 734 l 400 593 l 261 593 l 261 734 z "},"Æ":{"ha":1421,"x_min":35,"x_max":1366,"o":"m 35 85 l 130 99 l 668 987 l 1324 987 l 1324 769 l 1210 769 l 1200 882 l 855 882 l 869 566 l 1269 566 l 1269 461 l 873 461 l 888 104 l 1242 104 l 1253 218 l 1366 218 l 1366 0 l 648 0 l 648 85 l 754 104 l 749 237 l 372 237 l 290 95 l 345 85 l 345 0 l 35 0 l 35 85 m 441 359 l 744 359 l 723 840 l 720 842 l 441 359 z "},"×":{"ha":726,"x_min":54,"x_max":667,"o":"m 54 238 l 275 465 l 54 691 l 139 777 l 360 551 l 582 777 l 667 691 l 445 465 l 667 238 l 582 153 l 360 378 l 139 153 l 54 238 z "},"Ø":{"ha":952,"x_min":54,"x_max":928,"o":"m 928 486 q 804 128 928 271 q 484 -14 680 -14 q 368 1 422 -14 q 267 47 313 17 l 201 -64 l 100 -64 l 197 102 q 91 270 128 170 q 54 486 54 369 l 54 500 q 173 859 54 715 q 484 1002 292 1002 q 596 987 543 1002 q 699 945 650 972 l 748 1029 l 849 1029 l 769 894 q 886 723 844 825 q 928 500 928 621 l 928 486 m 794 502 q 772 662 794 589 q 708 785 749 735 l 704 785 l 324 144 q 397 107 357 120 q 484 95 437 95 q 713 203 631 95 q 794 486 794 312 l 794 502 m 187 486 q 206 333 187 403 q 260 214 224 262 l 264 214 l 641 848 q 568 881 607 869 q 484 892 528 892 q 266 783 344 892 q 187 502 187 673 l 187 486 z "},"Þ":{"ha":866,"x_min":47,"x_max":807,"o":"m 47 85 l 158 104 l 158 882 l 47 901 l 47 987 l 292 987 l 402 987 l 402 901 l 292 882 l 292 789 l 474 789 q 719 709 631 789 q 807 500 807 629 q 719 292 807 372 q 474 212 631 212 l 292 212 l 292 104 l 402 85 l 402 0 l 47 0 l 47 85 m 292 684 l 292 317 l 474 317 q 623 370 573 317 q 673 499 673 422 q 623 630 673 576 q 474 684 573 684 l 292 684 z "},"ß":{"ha":873,"x_min":37,"x_max":825,"o":"m 281 0 l 37 0 l 37 85 l 148 104 l 148 734 q 227 970 148 885 q 431 1055 307 1055 q 608 996 540 1055 q 677 825 677 938 q 633 670 677 745 q 590 557 590 595 q 707 405 590 501 q 825 214 825 309 q 754 43 825 101 q 563 -14 684 -14 q 446 0 506 -14 q 361 34 386 14 l 390 142 q 463 106 418 123 q 549 90 508 90 q 657 122 623 90 q 691 208 691 154 q 574 362 691 264 q 456 558 456 459 q 504 687 456 612 q 551 814 551 762 q 517 914 551 878 q 438 950 483 950 q 324 894 367 950 q 281 734 281 838 l 281 0 z "},"æ":{"ha":1217,"x_min":66,"x_max":1152,"o":"m 882 -14 q 720 19 790 -14 q 604 112 649 52 q 490 22 566 58 q 307 -14 414 -14 q 129 45 191 -14 q 66 206 66 104 q 143 372 66 313 q 370 431 221 431 l 526 431 l 526 488 q 491 601 526 560 q 389 642 456 642 q 278 605 319 642 q 237 515 237 568 l 109 527 l 108 531 q 182 686 104 625 q 389 747 260 747 q 526 720 467 747 q 619 640 585 692 q 722 719 663 691 q 850 747 781 747 q 1074 659 996 747 q 1152 416 1152 571 l 1152 336 l 671 336 l 669 332 q 723 157 670 224 q 882 90 777 90 q 997 109 952 90 q 1095 162 1042 127 l 1141 68 q 1040 12 1103 38 q 882 -14 976 -14 m 333 90 q 440 119 385 90 q 526 187 496 149 l 526 334 l 372 334 q 245 296 290 334 q 199 203 199 258 q 233 122 199 153 q 333 90 267 90 m 850 642 q 726 585 773 642 q 672 437 680 528 l 673 434 l 1019 434 l 1019 455 q 978 590 1019 538 q 850 642 937 642 z "},"ð":{"ha":808,"x_min":53,"x_max":731,"o":"m 583 872 q 692 677 653 790 q 731 429 731 565 l 731 363 q 633 91 731 197 q 390 -14 536 -14 q 148 81 242 -14 q 53 316 53 176 q 146 567 53 471 q 385 663 240 663 q 491 642 441 663 q 577 585 542 620 l 580 588 q 538 710 566 654 q 469 807 509 765 l 285 702 l 233 771 l 399 866 q 348 894 374 882 q 294 918 322 907 l 334 1029 q 431 990 385 1014 q 518 935 477 966 l 676 1025 l 728 956 l 583 872 m 597 431 q 597 448 597 436 q 597 465 597 459 q 518 531 573 504 q 385 558 464 558 q 241 488 296 558 q 186 316 186 417 q 242 158 186 227 q 393 90 298 90 q 540 168 483 90 q 597 363 597 245 l 597 431 z "},"÷":{"ha":779,"x_min":50,"x_max":727,"o":"m 727 405 l 50 405 l 50 532 l 727 532 l 727 405 m 456 677 l 322 677 l 322 815 l 456 815 l 456 677 m 456 122 l 322 122 l 322 260 l 456 260 l 456 122 z "},"ø":{"ha":779,"x_min":61,"x_max":718,"o":"m 61 374 q 149 642 61 536 q 389 747 237 747 q 460 740 426 747 q 526 720 494 732 l 576 820 l 663 820 l 593 677 q 685 549 652 627 q 718 374 718 470 l 718 359 q 629 90 718 195 q 390 -14 541 -14 q 323 -8 355 -14 q 262 9 291 -2 l 213 -92 l 125 -92 l 194 48 q 95 178 130 97 q 61 359 61 258 l 61 374 m 195 359 q 208 248 195 298 q 248 164 221 197 l 252 164 l 477 620 q 435 636 458 631 q 389 642 413 642 q 243 566 292 642 q 195 374 195 489 l 195 359 m 584 374 q 572 477 584 429 q 538 557 560 525 l 534 557 l 311 107 q 348 94 328 98 q 390 90 368 90 q 534 166 485 90 q 584 359 584 242 l 584 374 z "},"þ":{"ha":863,"x_min":17,"x_max":753,"o":"m 17 972 l 17 1058 l 261 1058 l 261 652 q 348 723 297 699 q 466 747 399 747 q 677 639 602 747 q 753 353 753 531 l 753 339 q 677 83 753 180 q 468 -14 602 -14 q 349 8 400 -14 q 261 77 297 31 l 261 -177 l 372 -196 l 372 -282 l 17 -282 l 17 -196 l 127 -177 l 127 953 l 17 972 m 619 353 q 570 559 619 479 q 425 639 522 639 q 327 613 368 639 q 261 541 286 587 l 261 186 q 327 116 286 141 q 427 90 368 90 q 570 159 522 90 q 619 339 619 229 l 619 353 z "},"Ħ":{"ha":1036,"x_min":31,"x_max":998,"o":"m 998 987 l 998 901 l 888 882 l 888 746 l 977 746 l 977 648 l 888 648 l 888 104 l 998 85 l 998 0 l 644 0 l 644 85 l 754 104 l 754 436 l 275 436 l 275 104 l 386 85 l 386 0 l 31 0 l 31 85 l 142 104 l 142 648 l 33 648 l 33 746 l 142 746 l 142 882 l 31 901 l 31 987 l 386 987 l 386 901 l 275 882 l 275 746 l 754 746 l 754 882 l 644 901 l 644 987 l 754 987 l 888 987 l 998 987 m 275 541 l 754 541 l 754 648 l 275 648 l 275 541 z "},"ı":{"ha":456,"x_min":61,"x_max":416,"o":"m 61 648 l 61 734 l 305 734 l 305 104 l 416 85 l 416 0 l 61 0 l 61 85 l 172 104 l 172 629 l 61 648 z "},"ĸ":{"ha":852,"x_min":42,"x_max":804,"o":"m 42 85 l 153 104 l 153 629 l 48 648 l 48 733 l 286 733 l 286 445 l 372 445 l 543 640 l 481 648 l 481 734 l 788 734 l 788 648 l 699 630 l 488 397 l 721 102 l 804 85 l 804 0 l 644 0 l 374 338 l 286 338 l 286 104 l 397 85 l 397 0 l 42 0 l 42 85 z "},"Ł":{"ha":813,"x_min":48,"x_max":760,"o":"m 403 901 l 292 882 l 292 578 l 454 629 l 454 517 l 292 466 l 292 104 l 635 104 l 646 218 l 760 218 l 760 0 l 48 0 l 48 85 l 159 104 l 159 424 l 54 391 l 54 503 l 159 536 l 159 882 l 48 901 l 48 987 l 403 987 l 403 901 z "},"ł":{"ha":437,"x_min":42,"x_max":397,"o":"m 286 592 l 387 631 l 387 519 l 286 480 l 286 104 l 397 85 l 397 0 l 42 0 l 42 85 l 153 104 l 153 429 l 55 392 l 55 504 l 153 541 l 153 953 l 42 972 l 42 1058 l 153 1058 l 286 1058 l 286 592 z "},"Ŋ":{"ha":1057,"x_min":47,"x_max":1015,"o":"m 47 85 l 158 104 l 158 882 l 47 901 l 47 987 l 292 987 l 766 233 l 770 235 l 770 882 l 660 901 l 660 987 l 770 987 l 904 987 l 1015 987 l 1015 901 l 904 882 l 904 -60 q 846 -235 904 -174 q 683 -296 787 -296 q 644 -293 662 -296 q 607 -284 627 -290 l 616 -182 q 648 -189 625 -186 q 683 -191 671 -191 q 747 -156 724 -191 q 770 -60 770 -121 l 770 0 l 296 754 l 292 753 l 292 104 l 402 85 l 402 0 l 47 0 l 47 85 z "},"ŋ":{"ha":857,"x_min":61,"x_max":762,"o":"m 61 648 l 61 734 l 291 734 l 300 633 q 391 717 336 687 q 513 747 445 747 q 696 678 631 747 q 762 463 762 608 l 762 -60 q 703 -235 762 -174 q 541 -296 644 -296 q 501 -293 519 -296 q 464 -284 483 -290 l 473 -176 q 505 -181 482 -179 q 541 -184 528 -184 q 605 -152 582 -184 q 628 -60 628 -120 l 628 460 q 589 598 628 557 q 471 639 551 639 q 372 617 414 639 q 305 555 331 595 l 305 104 l 416 85 l 416 0 l 61 0 l 61 85 l 172 104 l 172 629 l 61 648 z "},"Œ":{"ha":1335,"x_min":77,"x_max":1278,"o":"m 653 0 q 547 -11 591 -7 q 457 -14 503 -14 q 183 98 288 -14 q 77 391 77 211 l 77 597 q 182 889 77 777 q 456 1002 287 1002 q 551 998 503 1002 q 653 987 600 994 l 1270 987 l 1270 750 l 1156 750 l 1145 882 l 756 882 l 756 563 l 1134 563 l 1134 458 l 756 458 l 756 104 l 1153 104 l 1164 237 l 1278 237 l 1278 0 l 653 0 m 457 91 q 530 93 493 91 q 602 101 566 96 l 623 104 l 623 882 l 587 888 q 520 894 553 892 q 456 897 488 897 q 276 820 341 897 q 211 598 211 743 l 211 391 q 277 168 211 245 q 457 91 342 91 z "},"œ":{"ha":1287,"x_min":71,"x_max":1215,"o":"m 71 374 q 158 642 71 536 q 397 747 246 747 q 554 710 486 747 q 665 606 622 673 q 775 710 709 672 q 915 747 841 747 q 1139 658 1063 747 q 1215 419 1215 568 l 1215 336 l 739 336 l 737 332 q 790 158 739 227 q 935 90 842 90 q 1054 110 1003 90 q 1143 163 1105 129 l 1195 76 q 1091 12 1155 37 q 935 -14 1027 -14 q 777 22 846 -14 q 664 123 707 58 q 553 22 621 58 q 399 -14 486 -14 q 159 91 247 -14 q 71 359 71 195 l 71 374 m 204 359 q 253 166 204 242 q 399 90 302 90 q 544 166 494 90 q 593 359 593 242 l 593 374 q 544 566 593 489 q 397 642 494 642 q 253 566 302 642 q 204 374 204 489 l 204 359 m 915 642 q 800 586 848 642 q 742 444 753 529 l 743 440 l 1082 440 l 1082 458 q 1040 589 1082 536 q 915 642 998 642 z "},"ſ":{"ha":498,"x_min":39,"x_max":480,"o":"m 39 85 l 149 104 l 149 827 q 211 1008 149 944 q 382 1072 272 1072 q 428 1068 405 1072 q 480 1058 452 1065 l 463 960 q 435 965 450 963 q 404 967 420 967 q 314 930 345 967 q 283 827 283 893 l 283 104 l 393 85 l 393 0 l 39 0 l 39 85 z "},"ƒ":{"ha":520,"x_min":-2,"x_max":491,"o":"m 427 635 l 294 635 l 294 -60 q 236 -235 294 -174 q 74 -296 178 -296 q 35 -293 52 -296 q -2 -284 17 -290 l 7 -182 q 39 -189 16 -186 q 74 -191 62 -191 q 137 -156 114 -191 q 161 -60 161 -121 l 161 635 l 45 635 l 45 734 l 161 734 l 161 827 q 222 1008 161 944 q 393 1072 283 1072 q 439 1068 416 1072 q 491 1058 463 1065 l 475 956 q 445 961 463 959 q 410 963 428 963 q 322 928 351 963 q 294 827 294 893 l 294 734 l 427 734 l 427 635 z "},"Ơ":{"ha":1008,"x_min":50,"x_max":984,"o":"m 924 486 q 801 128 924 271 q 480 -14 677 -14 q 170 128 289 -14 q 50 486 50 271 l 50 500 q 170 859 50 715 q 480 1002 289 1002 q 631 975 561 1002 q 758 901 702 949 q 838 957 813 911 q 863 1080 863 1002 l 984 1080 q 945 912 984 979 q 830 821 906 846 q 900 673 876 755 q 924 500 924 591 l 924 486 m 791 502 q 708 783 791 674 q 480 892 626 892 q 262 783 340 892 q 184 502 184 673 l 184 486 q 262 204 184 313 q 480 95 340 95 q 709 203 628 95 q 791 486 791 312 l 791 502 z "},"ơ":{"ha":873,"x_min":71,"x_max":806,"o":"m 71 374 q 159 642 71 536 q 398 747 247 747 q 525 724 467 747 q 625 656 583 700 q 684 706 669 667 q 699 814 699 744 l 806 814 q 776 664 806 722 q 677 585 745 606 q 714 486 701 540 q 727 374 727 433 l 727 359 q 639 90 727 195 q 399 -14 551 -14 q 159 91 247 -14 q 71 359 71 195 l 71 374 m 204 359 q 253 166 204 242 q 399 90 302 90 q 544 166 494 90 q 593 359 593 242 l 593 374 q 544 566 593 489 q 398 642 494 642 q 253 566 302 642 q 204 374 204 489 l 204 359 z "},"Ư":{"ha":1163,"x_min":9,"x_max":1139,"o":"m 864 848 l 868 848 q 986 899 952 848 q 1020 1050 1020 950 l 1136 1050 l 1137 1047 q 1073 829 1139 905 q 864 748 1007 753 l 864 318 q 759 72 864 157 q 486 -14 654 -14 q 221 72 323 -14 q 120 318 120 157 l 120 882 l 9 901 l 9 987 l 120 987 l 365 987 l 365 901 l 254 882 l 254 318 q 318 148 254 206 q 486 90 382 90 q 663 148 596 90 q 730 318 730 206 l 730 882 l 620 901 l 620 987 l 864 987 l 864 848 z "},"ư":{"ha":976,"x_min":43,"x_max":931,"o":"m 724 646 l 728 644 q 818 676 798 644 q 837 792 837 709 l 928 792 l 929 789 q 886 624 931 677 q 724 566 841 570 l 724 104 l 808 85 l 808 0 l 604 0 l 595 109 q 506 18 561 50 q 380 -14 452 -14 q 194 62 261 -14 q 127 301 127 139 l 127 629 l 43 648 l 43 734 l 127 734 l 260 734 l 260 300 q 295 138 260 182 q 403 94 330 94 q 520 123 474 94 q 591 205 567 152 l 591 629 l 492 648 l 492 734 l 724 734 l 724 646 z "},"ȷ":{"ha":393,"x_min":-3,"x_max":294,"o":"m 294 -60 q 235 -235 294 -174 q 73 -296 177 -296 q 34 -293 52 -296 q -3 -284 16 -290 l 6 -182 q 38 -189 16 -186 q 73 -191 61 -191 q 137 -156 113 -191 q 160 -60 160 -121 l 160 629 l 50 648 l 50 734 l 294 734 l 294 -60 z "},"ə":{"ha":756,"x_min":70,"x_max":684,"o":"m 350 748 q 593 646 503 748 q 684 381 684 543 l 684 351 q 591 90 684 194 q 371 -13 498 -14 q 146 76 222 -13 q 70 315 70 165 l 70 398 l 545 398 l 547 401 q 494 575 545 507 q 350 644 443 644 q 231 624 281 644 q 142 570 180 604 l 90 658 q 194 722 130 696 q 350 748 258 748 m 371 92 q 484 148 437 92 q 543 290 532 203 l 541 293 l 203 293 l 203 276 q 245 144 203 197 q 371 92 288 92 z "},"ˆ":{"ha":562,"x_min":71,"x_max":486,"o":"m 486 866 l 486 849 l 377 849 l 277 949 l 179 849 l 71 849 l 71 867 l 237 1027 l 318 1027 l 486 866 z "},"ˇ":{"ha":549,"x_min":61,"x_max":488,"o":"m 273 927 l 372 1027 l 488 1027 l 488 1015 l 313 849 l 233 849 l 61 1014 l 61 1027 l 174 1027 l 273 927 z "},"˘":{"ha":567,"x_min":81,"x_max":488,"o":"m 484 987 l 485 983 q 433 855 488 905 q 285 806 378 806 q 136 855 191 806 q 85 983 81 905 l 86 987 l 188 987 q 211 915 188 943 q 285 887 235 887 q 357 915 334 887 q 381 987 381 943 l 484 987 z "},"˙":{"ha":358,"x_min":103,"x_max":250,"o":"m 250 851 l 103 851 l 103 987 l 250 987 l 250 851 z "},"˚":{"ha":466,"x_min":94,"x_max":374,"o":"m 94 887 q 135 983 94 944 q 235 1021 176 1021 q 333 983 292 1021 q 374 887 374 945 q 333 792 374 829 q 235 755 292 755 q 135 792 176 755 q 94 887 94 829 m 163 887 q 184 837 163 858 q 235 817 205 817 q 283 837 263 817 q 304 887 304 857 q 283 939 304 918 q 235 960 263 960 q 184 939 205 960 q 163 887 163 918 z "},"˛":{"ha":321,"x_min":37,"x_max":307,"o":"m 253 0 q 179 -67 205 -35 q 152 -136 152 -100 q 167 -181 152 -165 q 217 -197 182 -197 q 251 -192 235 -197 q 284 -180 267 -187 l 307 -263 q 253 -284 282 -276 q 182 -293 223 -293 q 78 -256 119 -293 q 37 -151 37 -218 q 78 -48 37 -97 q 205 39 119 1 l 253 0 z "},"˜":{"ha":643,"x_min":86,"x_max":556,"o":"m 556 1011 q 516 903 556 947 q 414 859 475 859 q 314 891 366 859 q 227 922 262 922 q 179 900 199 922 q 159 847 159 878 l 86 865 q 126 974 86 928 q 227 1021 165 1021 q 322 989 265 1021 q 414 957 379 957 q 463 979 442 957 q 483 1033 483 1001 l 556 1011 z "},"˝":{"ha":627,"x_min":71,"x_max":573,"o":"m 416 1029 l 571 1029 l 573 1025 l 370 849 l 254 849 l 253 852 l 416 1029 m 195 1029 l 338 1029 l 340 1026 l 177 849 l 71 849 l 195 1029 z "},"˳":{"ha":302,"x_min":49,"x_max":259,"o":"m 49 -159 q 80 -86 49 -115 q 155 -58 111 -58 q 229 -86 198 -58 q 259 -159 259 -115 q 229 -231 259 -203 q 155 -258 199 -258 q 80 -231 111 -258 q 49 -159 49 -203 m 109 -159 q 123 -190 109 -177 q 155 -203 136 -203 q 186 -191 173 -203 q 199 -159 199 -178 q 186 -126 199 -139 q 155 -113 173 -113 q 123 -126 136 -113 q 109 -159 109 -140 z "},"̀":{"ha":347,"x_min":59,"x_max":267,"o":"m 267 821 l 178 821 l 59 1057 l 184 1057 l 267 821 z "},"́":{"ha":342,"x_min":80,"x_max":289,"o":"m 165 1057 l 289 1057 l 161 821 l 80 821 l 165 1057 z "},"̃":{"ha":625,"x_min":-604,"x_max":-134,"o":"m -134 847 m -134 1011 q -174 903 -134 947 q -275 859 -214 859 q -376 891 -323 859 q -463 922 -428 922 q -511 900 -491 922 q -531 847 -531 878 l -604 865 q -564 974 -604 928 q -463 1021 -524 1021 q -368 989 -425 1021 q -275 957 -311 957 q -227 979 -248 957 q -207 1033 -207 1001 l -134 1011 z "},"̉":{"ha":389,"x_min":92,"x_max":302,"o":"m 104 842 l 104 947 q 177 960 155 949 q 199 996 199 970 q 170 1036 199 1023 q 92 1048 140 1048 l 96 1122 q 249 1087 195 1122 q 302 994 302 1052 q 273 921 302 946 q 200 890 243 897 l 199 842 l 104 842 z "},"̏":{"ha":627,"x_min":58,"x_max":561,"o":"m 378 852 l 377 849 l 261 849 l 58 1025 l 60 1029 l 215 1029 l 378 852 m 561 849 l 454 849 l 292 1026 l 293 1029 l 436 1029 l 561 849 z "},"̣":{"ha":262,"x_min":55,"x_max":203,"o":"m 203 -229 l 55 -229 l 55 -93 l 203 -93 l 203 -229 z "},"΄":{"ha":334,"x_min":92,"x_max":274,"o":"m 133 1126 l 274 1126 l 155 861 l 92 861 l 133 1126 z "},"΅":{"ha":684,"x_min":102,"x_max":582,"o":"m 582 852 l 448 852 l 448 987 l 582 987 l 582 852 m 237 852 l 102 852 l 102 987 l 237 987 l 237 852 m 320 1135 l 468 1135 l 382 955 l 286 955 l 320 1135 z "},"·":{"ha":350,"x_min":108,"x_max":242,"o":"m 108 423 m 242 423 l 108 423 l 108 567 l 242 567 l 242 423 z "},"Γ":{"ha":825,"x_min":52,"x_max":768,"o":"m 52 85 l 163 104 l 163 882 l 52 901 l 52 987 l 768 987 l 768 769 l 654 769 l 644 882 l 296 882 l 296 104 l 407 85 l 407 0 l 52 0 l 52 85 z "},"Δ":{"ha":971,"x_min":21,"x_max":944,"o":"m 439 987 l 553 987 l 944 0 l 21 0 l 439 987 m 200 104 l 768 104 l 496 817 l 492 817 l 200 104 z "},"Θ":{"ha":951,"x_min":54,"x_max":928,"o":"m 650 447 l 305 447 l 305 551 l 650 551 l 650 447 m 928 486 q 804 128 928 271 q 484 -14 680 -14 q 173 128 292 -14 q 54 486 54 271 l 54 500 q 173 859 54 715 q 484 1002 292 1002 q 804 859 680 1002 q 928 500 928 715 l 928 486 m 794 502 q 712 783 794 674 q 484 892 629 892 q 266 783 344 892 q 187 502 187 673 l 187 486 q 266 204 187 313 q 484 95 344 95 q 713 203 631 95 q 794 486 794 312 l 794 502 z "},"Λ":{"ha":983,"x_min":35,"x_max":947,"o":"m 35 85 l 106 96 l 433 987 l 549 987 l 876 96 l 947 85 l 947 0 l 664 0 l 664 85 l 739 98 l 493 794 l 489 794 l 242 98 l 318 85 l 318 0 l 35 0 l 35 85 z "},"Ξ":{"ha":800,"x_min":45,"x_max":761,"o":"m 45 218 l 159 218 l 169 104 l 637 104 l 648 218 l 761 218 l 761 0 l 45 0 l 45 218 m 753 987 l 753 769 l 639 769 l 629 882 l 170 882 l 159 769 l 45 769 l 45 987 l 753 987 m 189 565 l 611 565 l 611 460 l 189 460 l 189 565 z "},"Π":{"ha":1069,"x_min":52,"x_max":1021,"o":"m 52 85 l 163 104 l 163 882 l 52 901 l 52 987 l 1021 987 l 1021 901 l 910 882 l 910 104 l 1021 85 l 1021 0 l 666 0 l 666 85 l 777 104 l 777 882 l 296 882 l 296 104 l 407 85 l 407 0 l 52 0 l 52 85 z "},"Σ":{"ha":801,"x_min":54,"x_max":749,"o":"m 520 485 l 218 109 l 220 105 l 625 105 l 635 218 l 749 218 l 749 0 l 54 0 l 54 100 l 378 494 l 54 888 l 54 987 l 715 987 l 715 769 l 601 769 l 591 882 l 220 882 l 218 879 l 520 501 l 520 485 z "},"Φ":{"ha":998,"x_min":54,"x_max":944,"o":"m 427 144 q 160 241 267 144 q 54 490 54 338 q 160 738 54 641 q 427 836 267 836 l 432 836 l 432 882 l 321 901 l 321 987 l 432 987 l 676 987 l 676 901 l 566 882 l 566 836 l 570 836 q 837 739 730 836 q 944 491 944 642 q 837 242 944 339 q 570 144 729 144 l 566 144 l 566 104 l 676 85 l 676 0 l 321 0 l 321 85 l 432 104 l 432 144 l 427 144 m 427 731 q 249 666 311 731 q 186 490 186 601 q 248 314 186 378 q 427 250 311 250 l 432 250 l 432 731 l 427 731 m 566 731 l 566 250 l 571 250 q 748 314 685 250 q 811 491 811 379 q 748 666 811 602 q 571 731 685 731 l 566 731 z "},"Ψ":{"ha":1129,"x_min":37,"x_max":1085,"o":"m 732 987 l 732 901 l 622 882 l 622 356 l 626 355 q 782 439 724 368 q 841 627 841 510 l 841 987 l 1085 987 l 1085 901 l 975 882 l 975 627 q 878 360 975 461 q 622 243 781 260 l 622 104 l 732 85 l 732 0 l 378 0 l 378 85 l 488 104 l 488 244 q 241 361 334 260 q 148 627 148 461 l 148 882 l 37 901 l 37 987 l 148 987 l 281 987 l 281 627 q 336 441 281 512 q 484 356 392 370 l 488 357 l 488 882 l 378 901 l 378 987 l 622 987 l 732 987 z "},"Ω":{"ha":918,"x_min":63,"x_max":850,"o":"m 500 134 q 659 249 602 151 q 716 517 716 347 l 716 555 q 647 808 716 720 q 456 897 577 897 q 266 808 334 897 q 197 555 197 720 l 197 517 q 255 248 197 346 q 417 134 313 150 l 417 0 l 81 0 l 81 104 l 267 104 q 118 280 174 167 q 63 517 63 393 l 63 554 q 172 877 63 752 q 456 1002 281 1002 q 740 877 631 1002 q 850 554 850 752 l 850 517 q 794 280 850 393 q 646 104 739 167 l 837 104 l 837 0 l 500 0 l 500 134 z "},"α":{"ha":819,"x_min":71,"x_max":779,"o":"m 690 734 l 690 201 q 703 122 690 144 q 741 100 717 100 q 752 101 747 100 q 762 104 758 102 l 779 9 q 738 -9 758 -5 q 692 -14 718 -14 q 613 11 644 -14 q 568 92 582 37 q 479 13 532 39 q 356 -14 427 -14 q 146 83 222 -14 q 71 339 71 180 l 71 353 q 146 639 71 530 q 357 747 222 747 q 477 721 425 747 q 565 644 529 694 l 576 734 l 690 734 m 204 339 q 250 159 204 227 q 390 90 295 90 q 489 121 449 90 q 556 210 530 153 l 556 522 q 489 610 529 578 q 391 642 448 642 q 250 562 296 642 q 204 353 204 481 l 204 339 z "},"β":{"ha":795,"x_min":97,"x_max":738,"o":"m 401 1002 q 614 927 534 1002 q 694 734 694 852 q 660 621 694 673 q 568 538 627 570 q 693 442 648 509 q 738 288 738 376 q 652 66 738 146 q 429 -14 566 -14 q 322 1 374 -14 q 231 47 270 16 l 231 -260 l 97 -260 l 97 728 q 187 921 97 840 q 401 1002 277 1002 m 399 583 q 521 624 481 583 q 560 737 560 665 q 518 849 560 802 q 401 897 475 897 q 280 848 329 897 q 231 728 231 800 l 231 164 q 308 110 260 130 q 416 90 356 90 q 554 144 503 90 q 604 286 604 199 q 560 420 604 361 q 440 478 515 478 l 343 478 l 343 583 l 399 583 z "},"γ":{"ha":736,"x_min":14,"x_max":721,"o":"m 721 648 l 663 638 l 443 41 l 443 -282 l 309 -282 l 309 35 l 115 586 q 94 620 105 612 q 60 628 83 628 q 50 627 54 628 q 26 623 46 627 l 14 724 q 57 737 31 732 q 105 742 84 742 q 178 723 154 742 q 222 646 203 704 l 363 216 l 374 159 l 378 159 l 393 216 l 529 633 l 437 648 l 437 734 l 721 734 l 721 648 z "},"δ":{"ha":789,"x_min":66,"x_max":723,"o":"m 150 860 q 218 1007 150 953 q 408 1061 287 1061 q 513 1045 459 1061 q 621 1003 566 1029 l 591 913 q 503 940 552 928 q 406 953 453 953 q 317 928 349 953 q 285 863 285 903 q 318 799 285 831 q 436 737 351 766 q 651 592 580 687 q 723 359 723 498 l 723 345 q 635 87 723 188 q 395 -14 547 -14 q 154 87 243 -14 q 66 345 66 188 l 66 359 q 129 561 66 475 q 285 669 191 646 l 288 677 q 186 751 222 703 q 150 860 150 799 m 200 345 q 250 162 200 234 q 395 90 299 90 q 539 162 490 90 q 589 345 589 234 l 589 359 q 535 523 589 448 q 395 615 481 598 q 250 542 300 615 q 200 359 200 469 l 200 345 z "},"ε":{"ha":744,"x_min":71,"x_max":684,"o":"m 71 207 q 106 312 71 269 q 208 377 140 355 q 117 442 149 401 q 84 533 84 484 q 163 691 84 635 q 378 746 241 746 q 587 687 503 746 q 668 533 671 627 l 667 529 l 541 529 q 493 610 541 576 q 378 643 446 643 q 259 611 300 643 q 218 533 218 578 q 254 454 218 483 q 369 425 291 425 l 511 425 l 511 323 l 369 323 q 247 295 288 323 q 205 207 205 266 q 252 123 205 157 q 378 90 298 90 q 504 127 454 90 q 553 217 553 165 l 679 217 l 680 213 q 593 45 684 103 q 378 -13 503 -13 q 156 46 241 -13 q 71 207 71 104 z "},"ζ":{"ha":726,"x_min":78,"x_max":658,"o":"m 658 987 l 658 904 l 426 618 q 300 438 338 515 q 262 262 262 361 q 284 163 262 197 q 359 118 306 130 l 449 92 q 590 38 553 62 q 627 -58 627 15 q 588 -166 626 -107 q 507 -260 549 -224 l 436 -201 q 485 -135 469 -163 q 500 -79 500 -106 q 475 -38 500 -55 q 397 -6 451 -20 l 336 9 q 174 96 220 40 q 128 259 128 151 q 175 449 128 340 q 320 673 222 558 l 502 879 l 500 882 l 78 882 l 78 987 l 658 987 z "},"η":{"ha":819,"x_min":-3,"x_max":724,"o":"m 134 0 l 134 557 q 121 610 134 595 q 84 625 107 625 q 53 620 71 625 q 27 611 36 615 l -3 707 q 60 736 25 726 q 132 747 96 747 q 221 720 187 747 q 264 635 255 693 q 355 718 301 688 q 476 747 409 747 q 660 681 596 747 q 724 463 724 615 l 724 -281 l 591 -281 l 591 460 q 552 600 591 557 q 435 642 513 642 q 335 620 377 642 q 268 556 294 597 l 268 0 l 134 0 z "},"θ":{"ha":788,"x_min":86,"x_max":715,"o":"m 715 376 q 631 86 715 187 q 401 -14 547 -14 q 171 87 256 -14 q 86 376 86 188 l 86 610 q 170 900 86 799 q 399 1002 254 1002 q 630 900 545 1002 q 715 610 715 799 l 715 376 m 220 545 l 581 545 l 581 639 q 535 832 581 767 q 399 897 488 897 q 266 832 312 897 q 220 639 220 767 l 220 545 m 581 439 l 220 439 l 220 349 q 267 156 220 221 q 401 90 313 90 q 535 155 490 90 q 581 349 581 220 l 581 439 z "},"ι":{"ha":454,"x_min":21,"x_max":424,"o":"m 266 182 q 283 113 266 132 q 332 94 301 94 q 365 99 349 94 q 394 112 381 104 l 424 22 q 363 -7 393 1 q 296 -14 333 -14 q 174 34 216 -14 q 132 189 132 82 l 132 629 l 21 648 l 21 734 l 266 734 l 266 182 z "},"λ":{"ha":770,"x_min":24,"x_max":734,"o":"m 172 0 l 24 0 l 288 696 l 220 858 q 188 909 205 895 q 143 924 171 924 q 127 924 137 924 q 111 923 117 923 l 111 1021 q 148 1027 122 1024 q 191 1029 174 1029 q 290 1003 257 1029 q 342 919 323 977 l 641 160 q 668 113 653 127 q 705 100 682 100 q 719 100 713 100 q 730 101 725 100 l 734 -3 q 709 -9 724 -6 q 680 -12 694 -12 q 578 15 614 -12 q 511 127 543 41 l 352 534 l 348 533 l 328 454 l 172 0 z "},"ξ":{"ha":681,"x_min":66,"x_max":637,"o":"m 595 871 q 517 889 553 883 q 444 896 480 896 q 294 860 345 896 q 243 770 243 823 q 296 662 243 701 q 459 623 348 623 l 556 623 l 556 517 l 459 517 q 266 464 332 517 q 200 301 200 410 q 252 167 200 218 q 382 98 304 116 l 458 82 q 597 33 556 59 q 637 -67 637 7 q 598 -174 636 -116 q 516 -267 559 -231 l 446 -209 q 497 -143 484 -165 q 510 -84 510 -120 q 486 -41 510 -56 q 406 -14 463 -26 l 368 -5 q 142 96 217 29 q 66 304 66 162 q 122 471 66 404 q 279 571 178 539 q 155 651 199 600 q 110 768 110 703 q 199 939 110 877 q 442 1000 289 1000 q 535 993 488 1000 q 615 975 583 985 l 595 871 z "},"π":{"ha":869,"x_min":51,"x_max":802,"o":"m 755 628 l 644 628 l 644 182 q 662 113 644 132 q 710 94 680 94 q 743 99 727 94 q 772 112 760 104 l 802 22 q 741 -7 771 1 q 675 -14 711 -14 q 552 34 594 -14 q 510 189 510 82 l 510 628 l 271 628 l 271 0 l 137 0 l 137 628 l 51 628 l 51 734 l 755 734 l 755 628 z "},"ρ":{"ha":784,"x_min":91,"x_max":713,"o":"m 713 339 q 638 83 713 180 q 431 -14 564 -14 q 313 6 365 -14 q 224 66 262 26 l 224 -282 l 91 -282 l 91 391 l 91 391 q 178 653 91 559 q 395 747 264 747 q 631 640 549 747 q 713 353 713 532 l 713 339 m 579 353 q 534 562 579 481 q 395 642 490 642 q 268 564 311 642 q 224 391 224 486 l 224 185 q 290 115 250 140 q 389 90 330 90 q 532 159 484 90 q 579 339 579 229 l 579 353 z "},"ς":{"ha":741,"x_min":67,"x_max":674,"o":"m 389 747 q 595 676 516 747 q 671 485 674 606 l 670 481 l 549 481 q 508 597 549 551 q 389 642 467 642 q 248 564 296 642 q 201 381 201 486 l 201 353 q 259 199 201 261 q 437 104 318 136 q 585 48 542 75 q 628 -54 628 21 q 588 -160 627 -102 q 507 -254 549 -218 l 437 -195 q 487 -129 473 -152 q 500 -71 500 -106 q 477 -27 500 -41 q 396 0 454 -13 q 150 123 233 35 q 67 353 67 211 l 67 381 q 154 641 67 535 q 389 747 240 747 z "},"σ":{"ha":845,"x_min":71,"x_max":783,"o":"m 783 628 l 595 628 q 693 507 659 579 q 728 347 728 435 l 728 332 q 638 88 728 190 q 399 -14 549 -14 q 159 91 248 -14 q 71 359 71 195 l 71 374 q 159 632 71 531 q 398 734 247 734 l 783 734 l 783 628 m 205 359 q 254 166 205 242 q 399 90 302 90 q 545 166 495 90 q 594 359 594 242 l 594 374 q 544 555 594 483 q 398 628 494 628 l 397 628 q 253 555 302 627 q 205 374 205 483 l 205 359 z "},"τ":{"ha":688,"x_min":42,"x_max":642,"o":"m 642 734 l 642 630 l 405 630 l 405 182 q 423 113 405 132 q 471 94 441 94 q 504 99 488 94 q 533 112 520 104 l 564 22 q 502 -7 532 1 q 436 -14 472 -14 q 313 34 355 -14 q 271 189 271 82 l 271 630 l 42 630 l 42 734 l 642 734 z "},"υ":{"ha":827,"x_min":17,"x_max":752,"o":"m 289 290 q 324 138 289 186 q 420 90 359 90 q 565 179 511 90 q 618 382 618 268 q 594 554 616 467 q 534 734 572 642 l 674 734 q 730 574 709 662 q 752 382 752 487 q 669 100 752 214 q 427 -14 585 -14 q 226 61 297 -14 q 155 291 155 136 l 155 557 q 142 611 155 596 q 104 625 128 625 q 74 620 91 625 q 47 611 56 615 l 17 707 q 81 736 45 726 q 152 747 117 747 q 254 709 218 747 q 289 588 289 671 l 289 290 z "},"φ":{"ha":1017,"x_min":77,"x_max":947,"o":"m 439 -11 q 165 115 253 6 q 77 382 77 224 q 120 586 77 496 q 250 734 163 675 l 322 642 q 239 524 266 591 q 210 382 213 456 q 265 196 210 277 q 435 100 320 115 l 439 101 l 439 559 q 493 681 439 628 q 627 734 547 734 q 853 629 759 734 q 947 369 947 524 q 856 110 947 216 q 572 -11 764 5 l 572 -324 l 439 -324 l 439 -11 m 572 100 l 576 98 q 755 191 696 113 q 814 369 814 269 q 762 551 811 475 q 627 628 713 628 q 586 610 600 628 q 572 564 572 592 l 572 100 z "},"χ":{"ha":808,"x_min":42,"x_max":775,"o":"m 42 85 l 121 101 l 330 364 l 127 632 l 49 648 l 49 734 l 226 733 l 413 467 l 545 640 l 479 648 l 479 734 l 768 734 l 768 648 l 690 632 l 481 374 l 696 101 l 775 85 l 775 0 l 608 0 l 409 277 l 265 93 l 331 85 l 331 0 l 42 0 l 42 85 z "},"ψ":{"ha":1069,"x_min":-1,"x_max":995,"o":"m 270 403 q 326 190 270 264 q 476 102 381 116 l 480 103 l 480 733 l 614 733 l 614 100 l 618 99 q 802 195 742 113 q 861 385 861 277 q 837 556 859 469 q 777 734 815 643 l 917 734 q 973 575 951 662 q 995 385 995 488 q 903 112 995 221 q 614 -12 811 2 l 614 -321 l 480 -321 l 480 -9 q 226 111 315 9 q 136 404 136 214 l 136 557 q 123 610 136 595 q 86 625 109 625 q 55 620 73 625 q 29 611 38 615 l -1 707 q 62 736 26 726 q 134 747 98 747 q 235 710 199 747 q 270 589 270 672 l 270 403 z "},"ω":{"ha":1139,"x_min":79,"x_max":1057,"o":"m 310 734 q 239 554 265 642 q 212 381 214 467 q 247 171 212 252 q 355 90 281 90 q 461 145 422 90 q 500 319 500 200 l 500 522 l 635 522 l 635 319 q 674 145 635 200 q 780 90 713 90 q 889 171 854 90 q 924 381 924 251 q 895 555 921 467 q 826 734 869 643 l 966 734 q 1032 574 1006 662 q 1057 381 1057 486 q 992 97 1057 208 q 787 -14 927 -14 q 651 26 707 -14 q 568 145 595 66 q 484 26 540 67 q 349 -14 428 -14 q 143 97 208 -14 q 79 381 79 208 q 104 574 79 486 q 170 734 129 663 l 310 734 z "},"ϑ":{"ha":910,"x_min":82,"x_max":819,"o":"m 444 95 q 620 175 555 95 q 686 397 684 256 q 449 487 538 402 q 359 703 359 572 l 359 745 q 423 932 359 862 q 589 1002 487 1002 q 757 933 695 1002 q 819 745 819 865 l 819 401 q 715 99 819 213 q 444 -14 612 -14 q 182 104 283 -14 q 82 401 82 222 l 82 849 l 216 850 l 216 401 q 277 180 216 266 q 444 95 338 95 m 492 701 q 543 566 492 620 q 682 510 594 513 l 686 511 l 686 745 q 661 855 686 818 q 589 892 636 892 q 518 855 544 892 q 492 745 492 818 l 492 701 z "},"ϒ":{"ha":835,"x_min":35,"x_max":802,"o":"m 554 840 q 630 960 589 924 q 727 995 672 995 q 767 991 750 995 q 802 979 784 988 l 786 876 q 775 879 782 878 q 759 881 768 881 q 718 869 736 881 q 688 831 699 857 l 485 393 l 485 0 l 352 0 l 352 392 l 149 831 q 118 869 136 857 q 77 881 100 881 q 61 879 68 881 q 51 876 54 878 l 35 979 q 68 991 52 988 q 109 995 85 995 q 206 960 164 995 q 283 840 248 924 l 404 565 l 416 519 l 420 519 l 433 565 l 554 840 z "},"ϖ":{"ha":1134,"x_min":71,"x_max":1077,"o":"m 1077 628 l 986 628 q 1017 511 1006 573 q 1028 381 1028 450 q 969 97 1028 208 q 785 -14 911 -14 q 649 26 705 -14 q 566 146 593 67 q 483 26 538 67 q 347 -14 427 -14 q 163 97 222 -14 q 104 381 104 209 q 115 511 104 450 q 146 628 126 573 l 71 628 l 71 734 l 1077 734 l 1077 628 m 895 381 q 879 503 892 441 q 842 628 866 565 l 290 628 q 253 503 267 564 q 238 381 239 441 q 266 171 238 252 q 355 90 294 90 q 460 145 421 90 q 500 319 500 200 l 500 488 l 634 488 l 634 319 q 673 145 634 200 q 779 90 712 90 q 866 171 838 90 q 895 381 895 252 z "},"Ђ":{"ha":1067,"x_min":50,"x_max":1019,"o":"m 844 769 l 730 769 l 720 882 l 473 882 l 473 570 q 579 595 528 585 q 666 605 630 605 q 926 523 833 605 q 1019 294 1019 441 q 933 71 1019 147 q 686 -4 847 -6 l 682 -3 l 681 93 q 838 144 791 93 q 885 294 885 196 q 829 442 884 391 q 666 493 774 493 q 572 485 624 493 q 473 462 520 476 l 473 104 l 570 85 l 570 0 l 229 0 l 229 85 l 339 104 l 339 882 l 174 882 l 164 769 l 50 769 l 50 987 l 844 987 l 844 769 z "},"Є":{"ha":871,"x_min":35,"x_max":801,"o":"m 572 447 l 172 447 l 172 551 l 572 551 l 572 447 m 801 685 l 707 685 l 682 825 q 602 877 649 857 q 488 897 554 897 q 252 786 334 897 q 169 503 169 674 l 169 487 q 250 203 169 315 q 475 91 331 91 q 597 112 542 91 q 682 163 652 133 l 707 303 l 801 303 l 801 127 q 673 30 758 73 q 475 -14 587 -14 q 159 129 282 -14 q 35 487 35 271 l 35 501 q 157 860 35 718 q 475 1002 278 1002 q 673 959 587 1002 q 801 861 758 915 l 801 685 z "},"Љ":{"ha":1498,"x_min":41,"x_max":1444,"o":"m 979 901 l 869 882 l 869 603 l 1112 603 q 1357 519 1270 603 q 1444 301 1444 435 q 1357 83 1444 167 q 1112 0 1270 0 l 735 0 l 735 882 l 393 882 l 393 522 q 319 125 392 250 q 76 0 246 0 l 41 0 l 41 104 l 68 104 q 214 201 170 104 q 260 522 259 298 l 260 882 l 149 901 l 149 987 l 979 987 l 979 901 m 869 498 l 869 104 l 1112 104 q 1262 162 1212 104 q 1312 302 1312 219 q 1262 441 1312 385 q 1112 498 1212 498 l 869 498 z "},"Њ":{"ha":1536,"x_min":52,"x_max":1487,"o":"m 52 901 l 52 987 l 407 987 l 407 901 l 296 882 l 296 561 l 777 561 l 777 882 l 666 901 l 666 987 l 777 987 l 910 987 l 1021 987 l 1021 901 l 910 882 l 910 570 l 1154 570 q 1399 492 1312 570 q 1487 288 1487 415 q 1399 80 1487 159 q 1154 0 1311 0 l 666 0 l 666 85 l 777 104 l 777 456 l 296 456 l 296 104 l 407 85 l 407 0 l 52 0 l 52 85 l 163 104 l 163 882 l 52 901 m 910 465 l 910 112 l 1154 112 q 1304 162 1254 112 q 1354 289 1354 212 q 1304 415 1354 365 q 1154 465 1254 465 l 910 465 z "},"Ћ":{"ha":1183,"x_min":38,"x_max":1146,"o":"m 832 769 l 718 769 l 707 882 l 475 882 l 475 589 q 580 609 526 602 q 704 616 633 616 q 951 544 867 616 q 1036 312 1036 472 l 1036 104 l 1146 85 l 1146 0 l 791 0 l 791 85 l 902 104 l 902 312 q 855 467 902 423 q 704 510 808 510 q 587 503 644 510 q 475 482 531 495 l 475 104 l 585 85 l 585 0 l 230 0 l 230 85 l 340 104 l 340 882 l 162 882 l 153 769 l 38 769 l 38 987 l 832 987 l 832 769 z "},"Џ":{"ha":1068,"x_min":52,"x_max":1021,"o":"m 1021 901 l 910 882 l 910 104 l 1021 85 l 1021 0 l 608 0 l 608 -243 l 474 -243 l 474 0 l 52 0 l 52 85 l 163 104 l 163 882 l 52 901 l 52 987 l 296 987 l 407 987 l 407 901 l 296 882 l 296 104 l 777 104 l 777 882 l 666 901 l 666 987 l 1021 987 l 1021 901 z "},"Б":{"ha":922,"x_min":41,"x_max":868,"o":"m 757 769 l 642 769 l 632 882 l 292 882 l 292 583 l 535 583 q 781 505 694 583 q 868 294 868 427 q 781 80 868 161 q 535 0 693 0 l 41 0 l 41 85 l 151 104 l 151 882 l 41 901 l 41 987 l 757 987 l 757 769 m 292 478 l 292 104 l 535 104 q 685 159 635 104 q 734 296 734 213 q 685 427 734 376 q 535 478 635 478 l 292 478 z "},"Д":{"ha":1065,"x_min":37,"x_max":1017,"o":"m 991 987 l 991 901 l 881 882 l 881 104 l 1017 104 l 1003 -242 l 883 -242 l 883 0 l 171 0 l 171 -243 l 57 -243 l 37 104 l 122 104 q 217 278 174 164 q 264 588 260 392 l 281 883 l 176 901 l 176 987 l 881 987 l 991 987 m 399 588 q 359 304 393 427 q 270 104 324 181 l 747 104 l 747 882 l 415 882 l 399 588 z "},"Ж":{"ha":1384,"x_min":42,"x_max":1358,"o":"m 507 430 l 302 94 l 356 85 l 356 0 l 43 0 l 43 85 l 142 100 l 405 516 l 224 804 q 175 861 198 844 q 120 878 152 878 q 91 876 105 878 q 62 871 76 874 l 42 965 q 89 987 64 979 q 147 995 114 995 q 247 968 203 995 q 337 864 290 941 l 534 543 l 630 543 l 630 882 l 519 901 l 519 987 l 763 987 l 873 987 l 873 901 l 763 882 l 763 543 l 867 543 l 1064 864 q 1154 968 1111 941 q 1254 995 1196 995 q 1312 987 1286 995 q 1358 965 1337 979 l 1339 871 q 1310 876 1324 874 q 1281 878 1295 878 q 1225 861 1249 878 q 1176 804 1202 844 l 987 510 l 1246 100 l 1345 85 l 1345 0 l 1032 0 l 1032 85 l 1085 94 l 882 430 l 763 430 l 763 104 l 873 85 l 873 0 l 519 0 l 519 85 l 630 104 l 630 430 l 507 430 z "},"З":{"ha":829,"x_min":48,"x_max":758,"o":"m 743 720 q 701 595 743 652 q 583 507 658 539 q 713 419 668 478 q 758 275 758 360 q 657 63 758 140 q 394 -14 557 -14 q 150 58 252 -14 q 52 270 48 131 l 53 274 l 180 274 q 240 143 180 197 q 394 90 300 90 q 563 141 502 90 q 625 273 625 191 q 569 407 625 363 q 405 450 513 450 l 294 450 l 294 556 l 405 556 q 559 601 509 556 q 610 723 610 645 q 553 848 610 800 q 381 897 496 897 q 267 876 315 897 q 188 824 218 855 l 162 685 l 68 685 l 68 860 q 196 958 111 914 q 394 1002 281 1002 q 650 928 556 1002 q 743 720 743 855 z "},"И":{"ha":1067,"x_min":52,"x_max":1019,"o":"m 407 987 l 407 901 l 296 882 l 296 313 l 300 312 l 775 820 l 775 882 l 665 901 l 665 987 l 775 987 l 909 987 l 1019 987 l 1019 901 l 909 882 l 909 104 l 1019 85 l 1019 0 l 665 0 l 665 85 l 775 104 l 775 655 l 771 656 l 296 148 l 296 104 l 407 85 l 407 0 l 52 0 l 52 85 l 163 104 l 163 882 l 52 901 l 52 987 l 163 987 l 296 987 l 407 987 z "},"К":{"ha":985,"x_min":48,"x_max":938,"o":"m 48 85 l 159 104 l 159 882 l 48 901 l 48 987 l 403 987 l 403 901 l 292 882 l 292 543 l 400 543 l 623 864 q 719 967 678 940 q 813 995 760 995 q 867 987 845 995 q 913 964 889 979 l 894 870 q 862 876 876 873 q 834 878 848 878 q 780 861 802 878 q 729 804 758 844 l 517 508 l 845 102 l 938 85 l 938 0 l 614 0 l 614 85 l 689 95 l 420 430 l 292 430 l 292 104 l 403 85 l 403 0 l 48 0 l 48 85 z "},"Л":{"ha":1025,"x_min":39,"x_max":977,"o":"m 392 882 l 376 522 q 298 122 363 244 q 74 0 233 0 l 39 0 l 39 104 l 66 104 q 195 198 157 104 q 243 522 233 291 l 259 883 l 153 901 l 153 987 l 977 987 l 977 901 l 867 882 l 867 104 l 977 85 l 977 0 l 623 0 l 623 85 l 733 104 l 733 882 l 392 882 z "},"У":{"ha":922,"x_min":37,"x_max":882,"o":"m 882 901 l 804 890 l 500 162 q 413 30 460 73 q 262 -14 366 -14 q 223 -12 245 -14 q 194 -8 200 -10 l 198 93 q 227 91 205 92 q 261 90 250 90 q 330 114 309 90 q 377 193 351 138 l 404 250 l 117 889 l 37 901 l 37 987 l 347 987 l 347 901 l 264 888 l 414 526 l 463 398 l 467 398 l 652 888 l 566 901 l 566 987 l 882 987 l 882 901 z "},"Ф":{"ha":1085,"x_min":57,"x_max":1028,"o":"m 456 118 q 171 222 285 118 q 57 490 57 326 q 171 758 57 653 q 456 863 286 863 l 476 863 l 476 936 l 366 956 l 366 1041 l 720 1041 l 720 956 l 610 936 l 610 863 l 627 863 q 913 759 798 863 q 1028 492 1028 654 q 913 223 1028 328 q 627 118 798 118 l 610 118 l 610 52 l 720 32 l 720 -54 l 366 -54 l 366 32 l 476 52 l 476 118 l 456 118 m 456 758 q 259 686 328 758 q 189 490 189 613 q 259 294 189 366 q 456 222 328 222 l 476 222 l 476 758 l 456 758 m 610 758 l 610 222 l 629 222 q 825 295 755 222 q 895 492 895 368 q 825 686 895 614 q 629 758 755 758 l 610 758 z "},"Ц":{"ha":1081,"x_min":52,"x_max":1039,"o":"m 1021 901 l 910 882 l 910 104 l 1039 104 l 1039 -238 l 907 -238 l 907 0 l 52 0 l 52 85 l 163 104 l 163 882 l 52 901 l 52 987 l 163 987 l 296 987 l 407 987 l 407 901 l 296 882 l 296 104 l 777 104 l 777 882 l 666 901 l 666 987 l 1021 987 l 1021 901 z "},"Ч":{"ha":1035,"x_min":40,"x_max":994,"o":"m 639 85 l 749 104 l 749 409 q 625 380 685 389 q 481 372 564 372 q 235 443 319 372 q 151 675 151 514 l 151 882 l 40 901 l 40 987 l 395 987 l 395 901 l 284 882 l 284 675 q 331 520 284 564 q 481 477 378 477 q 617 487 552 477 q 749 515 682 496 l 749 882 l 639 901 l 639 987 l 749 987 l 994 987 l 994 901 l 884 882 l 884 104 l 994 85 l 994 0 l 639 0 l 639 85 z "},"Ш":{"ha":1381,"x_min":52,"x_max":1339,"o":"m 52 85 l 163 104 l 163 882 l 52 901 l 52 987 l 296 987 l 407 987 l 407 901 l 296 882 l 296 104 l 630 104 l 630 882 l 519 901 l 519 987 l 873 987 l 873 901 l 763 882 l 763 104 l 1095 104 l 1095 882 l 985 901 l 985 987 l 1095 987 l 1229 987 l 1339 987 l 1339 901 l 1229 882 l 1229 104 l 1339 85 l 1339 0 l 52 0 l 52 85 z "},"Щ":{"ha":1386,"x_min":52,"x_max":1351,"o":"m 1339 987 l 1339 901 l 1229 882 l 1229 105 l 1351 105 l 1337 -238 l 1219 -238 l 1219 0 l 52 0 l 52 85 l 163 104 l 163 882 l 52 901 l 52 987 l 163 987 l 296 987 l 407 987 l 407 901 l 296 882 l 296 104 l 630 104 l 630 882 l 519 901 l 519 987 l 630 987 l 873 987 l 873 901 l 763 882 l 763 104 l 1095 104 l 1095 882 l 985 901 l 985 987 l 1095 987 l 1339 987 z "},"Ъ":{"ha":1180,"x_min":42,"x_max":1113,"o":"m 166 882 l 157 770 l 42 770 l 42 987 l 536 987 l 647 987 l 647 901 l 536 882 l 536 583 l 780 583 q 1026 505 939 583 q 1113 294 1113 427 q 1025 80 1113 161 q 780 0 938 0 l 292 0 l 292 85 l 403 104 l 403 882 l 166 882 m 536 478 l 536 104 l 780 104 q 930 159 880 104 q 979 296 979 213 q 930 427 979 376 q 780 478 880 478 l 536 478 z "},"Ы":{"ha":1297,"x_min":59,"x_max":1256,"o":"m 303 987 l 303 583 l 547 583 q 792 505 705 583 q 880 294 880 427 q 792 80 880 161 q 547 0 705 0 l 59 0 l 59 85 l 170 104 l 170 882 l 59 901 l 59 987 l 170 987 l 303 987 m 901 85 l 1012 104 l 1012 882 l 901 901 l 901 987 l 1256 987 l 1256 901 l 1145 882 l 1145 104 l 1256 85 l 1256 0 l 901 0 l 901 85 m 303 478 l 303 104 l 547 104 q 696 159 647 104 q 746 296 746 213 q 696 427 746 376 q 547 478 647 478 l 303 478 m 414 987 l 414 901 l 303 882 l 303 987 l 414 987 z "},"Ь":{"ha":921,"x_min":47,"x_max":868,"o":"m 292 987 l 292 583 l 535 583 q 781 505 694 583 q 868 294 868 427 q 781 80 868 161 q 535 0 693 0 l 47 0 l 47 85 l 158 104 l 158 882 l 47 901 l 47 987 l 158 987 l 292 987 m 292 478 l 292 104 l 535 104 q 685 159 635 104 q 734 296 734 213 q 685 427 734 376 q 535 478 635 478 l 292 478 m 402 987 l 402 901 l 292 882 l 292 987 l 402 987 z "},"Э":{"ha":852,"x_min":56,"x_max":808,"o":"m 56 861 q 183 958 98 914 q 382 1002 269 1002 q 693 861 577 1002 q 808 501 808 720 l 808 487 q 690 128 808 269 q 382 -14 572 -14 q 183 30 269 -14 q 56 127 98 73 l 56 303 l 150 303 l 175 163 q 259 112 204 133 q 382 91 314 91 q 588 188 513 91 q 669 437 662 284 l 668 441 l 292 441 l 292 545 l 669 545 l 670 549 q 587 800 663 703 q 368 897 511 897 q 254 877 302 897 q 175 825 207 857 l 150 685 l 56 685 l 56 861 z "},"Ю":{"ha":1352,"x_min":32,"x_max":1295,"o":"m 32 901 l 32 987 l 387 987 l 387 901 l 276 882 l 276 533 l 421 533 q 550 867 431 735 q 850 999 668 999 q 1171 856 1047 999 q 1295 498 1295 713 l 1295 484 q 1171 125 1295 268 q 850 -17 1047 -17 q 555 108 672 -17 q 422 429 438 233 l 276 429 l 276 104 l 387 85 l 387 0 l 32 0 l 32 85 l 142 104 l 142 882 l 32 901 m 1161 499 q 1079 780 1161 671 q 850 889 996 889 q 632 780 711 889 q 554 499 554 671 l 554 484 q 632 201 554 310 q 850 92 711 92 q 1080 201 998 92 q 1161 484 1161 309 l 1161 499 z "},"Я":{"ha":939,"x_min":38,"x_max":886,"o":"m 57 117 q 78 112 68 114 q 98 111 87 111 q 147 127 126 111 q 186 174 168 143 l 326 415 q 165 519 220 450 q 109 690 109 589 q 202 909 109 831 q 458 987 295 987 l 886 987 l 886 901 l 775 882 l 775 104 l 886 85 l 886 0 l 641 0 l 641 387 l 441 387 l 292 113 q 216 25 259 56 q 123 -5 174 -5 q 76 1 94 -5 q 38 23 57 8 l 57 117 m 243 692 q 298 548 243 603 q 458 492 354 492 l 641 492 l 641 882 l 458 882 q 298 831 353 882 q 243 692 243 781 m 530 0 l 530 85 l 641 104 l 641 0 l 530 0 z "},"б":{"ha":791,"x_min":72,"x_max":728,"o":"m 426 692 q 647 598 566 692 q 728 359 728 505 l 728 345 q 640 86 728 186 q 400 -14 552 -14 q 160 86 248 -14 q 72 345 72 186 l 72 439 q 163 785 72 656 q 407 945 254 914 q 531 982 492 960 q 569 1053 569 1004 l 672 1053 l 673 1049 q 617 892 675 930 q 432 833 559 855 q 274 762 339 818 q 193 598 208 706 l 196 595 q 297 665 236 637 q 426 692 357 692 m 399 587 q 254 522 303 587 q 205 359 205 457 l 205 345 q 254 162 205 234 q 400 90 303 90 q 545 162 496 90 q 595 345 595 234 l 595 359 q 545 522 595 457 q 399 587 495 587 z "},"в":{"ha":862,"x_min":66,"x_max":797,"o":"m 465 734 q 690 683 610 734 q 770 532 770 633 q 739 440 770 480 q 651 378 708 399 q 758 315 720 361 q 797 209 797 269 q 722 53 797 106 q 512 0 647 0 l 66 0 l 66 85 l 176 104 l 176 629 l 66 648 l 66 734 l 176 734 l 465 734 m 310 321 l 310 103 l 512 103 q 625 131 587 103 q 663 212 663 159 q 625 293 663 264 q 512 321 587 321 l 310 321 m 310 424 l 466 424 q 594 449 551 424 q 637 525 637 474 q 594 604 637 577 q 465 630 551 630 l 310 630 l 310 424 z "},"г":{"ha":729,"x_min":49,"x_max":648,"o":"m 159 629 l 49 648 l 49 734 l 626 734 l 626 732 l 648 732 l 648 545 l 561 545 l 551 628 l 293 628 l 293 104 l 404 85 l 404 0 l 49 0 l 49 85 l 159 104 l 159 629 z "},"д":{"ha":884,"x_min":45,"x_max":829,"o":"m 102 104 q 189 240 159 170 q 229 458 218 311 l 235 629 l 129 648 l 129 734 l 719 734 l 829 734 l 829 648 l 719 629 l 719 104 l 817 104 l 803 -216 l 683 -216 l 683 0 l 178 0 l 178 -216 l 58 -216 l 45 104 l 102 104 m 362 458 q 327 250 355 336 q 256 104 300 163 l 585 104 l 585 615 l 368 615 l 362 458 z "},"ж":{"ha":1172,"x_min":26,"x_max":1130,"o":"m 421 311 l 231 0 l 26 0 l 26 85 l 131 100 l 321 384 l 199 568 q 157 614 179 597 q 107 630 135 630 q 89 629 93 630 q 56 624 85 629 l 37 715 q 82 739 62 731 q 134 747 102 747 q 228 716 185 747 q 304 629 270 686 l 431 424 l 511 424 l 511 629 l 401 648 l 401 734 l 511 734 l 755 734 l 755 648 l 645 629 l 645 424 l 732 424 l 859 629 q 935 716 892 686 q 1029 747 977 747 q 1081 739 1061 747 q 1126 715 1102 730 l 1108 624 q 1075 629 1079 629 q 1057 630 1070 630 q 1006 614 1028 630 q 965 568 983 597 l 838 378 l 1026 100 l 1130 85 l 1130 0 l 925 0 l 734 311 l 645 311 l 645 104 l 755 85 l 755 0 l 401 0 l 401 85 l 511 104 l 511 311 l 421 311 z "},"з":{"ha":711,"x_min":57,"x_max":636,"o":"m 357 429 q 458 455 428 429 q 488 533 488 482 q 454 611 488 579 q 349 643 419 643 q 243 610 286 643 q 200 529 200 576 l 73 529 l 72 533 q 149 687 68 627 q 349 746 229 746 q 550 691 477 746 q 623 533 623 635 q 593 442 623 484 q 509 377 563 401 q 604 312 571 355 q 636 207 636 269 q 557 45 636 104 q 349 -13 478 -13 q 143 45 229 -13 q 60 213 57 103 l 62 217 l 189 217 q 233 127 189 165 q 349 90 278 90 q 461 123 421 90 q 501 207 501 157 q 466 293 501 266 q 357 320 431 320 l 230 320 l 230 429 l 357 429 z "},"и":{"ha":947,"x_min":66,"x_max":881,"o":"m 420 734 l 420 648 l 309 629 l 309 214 l 313 213 l 637 734 l 770 734 l 881 734 l 881 648 l 770 629 l 770 104 l 881 85 l 881 0 l 526 0 l 526 85 l 637 104 l 637 519 l 633 521 l 309 0 l 66 0 l 66 85 l 176 104 l 176 629 l 66 648 l 66 734 l 309 734 l 420 734 z "},"к":{"ha":857,"x_min":66,"x_max":823,"o":"m 66 648 l 66 734 l 420 734 l 420 648 l 310 629 l 310 424 l 380 424 l 534 629 q 615 717 575 687 q 704 747 654 747 q 755 739 735 747 q 802 715 776 731 l 783 624 q 749 629 753 629 q 731 630 745 630 q 682 612 706 630 q 640 568 658 593 l 498 385 l 729 102 l 823 85 l 823 0 l 645 0 l 397 311 l 310 311 l 310 104 l 420 85 l 420 0 l 66 0 l 66 85 l 176 104 l 176 629 l 66 648 z "},"л":{"ha":892,"x_min":47,"x_max":831,"o":"m 338 628 l 338 420 q 281 102 338 203 q 85 0 224 0 l 47 0 l 49 114 l 77 115 q 177 184 149 115 q 205 420 205 254 l 205 629 l 94 648 l 94 734 l 721 734 l 831 734 l 831 648 l 721 629 l 721 104 l 831 85 l 831 0 l 477 0 l 477 85 l 587 104 l 587 628 l 338 628 z "},"м":{"ha":1169,"x_min":66,"x_max":1109,"o":"m 587 175 l 591 175 l 831 734 l 998 734 l 1109 734 l 1109 648 l 998 629 l 998 104 l 1109 85 l 1109 0 l 754 0 l 754 85 l 865 104 l 865 509 l 861 511 l 635 0 l 543 0 l 314 522 l 310 520 l 310 104 l 420 85 l 420 0 l 66 0 l 66 85 l 176 104 l 176 629 l 66 648 l 66 734 l 176 734 l 349 734 l 587 175 z "},"н":{"ha":946,"x_min":66,"x_max":881,"o":"m 66 648 l 66 734 l 420 734 l 420 648 l 310 629 l 310 416 l 636 416 l 636 629 l 526 648 l 526 734 l 636 734 l 770 734 l 881 734 l 881 648 l 770 629 l 770 104 l 881 85 l 881 0 l 526 0 l 526 85 l 636 104 l 636 312 l 310 312 l 310 104 l 420 85 l 420 0 l 66 0 l 66 85 l 176 104 l 176 629 l 66 648 z "},"п":{"ha":947,"x_min":66,"x_max":881,"o":"m 66 85 l 176 104 l 176 629 l 66 648 l 66 734 l 881 734 l 881 648 l 770 629 l 770 104 l 881 85 l 881 0 l 526 0 l 526 85 l 637 104 l 637 628 l 310 628 l 310 104 l 420 85 l 420 0 l 66 0 l 66 85 z "},"т":{"ha":804,"x_min":53,"x_max":747,"o":"m 747 734 l 747 515 l 633 515 l 623 630 l 465 630 l 465 104 l 576 85 l 576 0 l 221 0 l 221 85 l 332 104 l 332 630 l 177 630 l 167 515 l 53 515 l 53 734 l 747 734 z "},"ф":{"ha":998,"x_min":62,"x_max":936,"o":"m 559 726 q 610 742 583 736 q 669 747 637 747 q 866 640 797 747 q 936 353 936 532 l 936 339 q 866 82 936 179 q 670 -14 797 -14 q 610 -9 638 -14 q 559 6 583 -3 l 559 -177 l 670 -196 l 670 -282 l 315 -282 l 315 -196 l 426 -177 l 426 3 q 379 -9 404 -5 q 327 -14 355 -14 q 131 82 200 -14 q 62 339 62 179 l 62 353 q 131 640 62 532 q 328 747 199 747 q 380 743 355 747 q 426 730 404 738 l 426 953 l 315 972 l 315 1058 l 559 1058 l 559 726 m 802 353 q 759 562 802 481 q 628 642 716 642 q 591 639 608 642 q 559 631 574 636 l 559 100 q 590 93 573 95 q 629 90 608 90 q 759 159 717 90 q 802 339 802 227 l 802 353 m 195 339 q 234 158 195 226 q 361 90 273 90 q 396 93 380 90 q 426 100 412 95 l 426 633 q 396 640 412 637 q 362 642 380 642 q 235 562 274 642 q 195 353 195 482 l 195 339 z "},"ц":{"ha":924,"x_min":47,"x_max":863,"o":"m 752 734 l 752 104 l 842 104 l 829 -218 l 710 -218 l 710 0 l 47 0 l 47 85 l 158 104 l 158 629 l 47 648 l 47 734 l 292 734 l 402 734 l 402 648 l 292 629 l 292 104 l 618 104 l 618 629 l 508 648 l 508 734 l 618 734 l 752 734 m 863 734 l 863 648 l 752 629 l 752 734 l 863 734 z "},"ч":{"ha":919,"x_min":44,"x_max":848,"o":"m 399 734 l 399 649 l 288 630 l 288 519 q 326 389 288 431 q 438 348 363 348 q 524 353 483 348 q 604 368 564 358 l 604 629 l 494 648 l 494 734 l 848 734 l 848 648 l 738 629 l 738 104 l 848 85 l 848 0 l 494 0 l 494 85 l 604 104 l 604 262 q 524 247 565 252 q 438 242 484 242 q 230 312 305 242 q 155 519 155 382 l 155 630 l 44 649 l 44 734 l 288 734 l 399 734 z "},"ш":{"ha":1270,"x_min":66,"x_max":1204,"o":"m 66 648 l 66 734 l 310 734 l 420 734 l 420 648 l 310 629 l 310 104 l 568 104 l 568 734 l 701 734 l 701 104 l 960 104 l 960 629 l 849 648 l 849 734 l 1093 734 l 1204 734 l 1204 648 l 1093 629 l 1093 104 l 1204 85 l 1204 0 l 66 0 l 66 85 l 176 104 l 176 629 l 66 648 z "},"щ":{"ha":1270,"x_min":58,"x_max":1203,"o":"m 1196 648 l 1085 629 l 1085 105 l 1203 105 l 1190 -218 l 1071 -218 l 1071 0 l 58 0 l 58 85 l 168 104 l 168 629 l 58 648 l 58 734 l 168 734 l 302 734 l 412 734 l 412 648 l 302 629 l 302 104 l 559 104 l 559 734 l 693 734 l 693 104 l 951 104 l 951 629 l 841 648 l 841 734 l 1196 734 l 1196 648 z "},"ъ":{"ha":963,"x_min":21,"x_max":897,"o":"m 145 629 l 136 516 l 21 516 l 21 734 l 439 734 l 550 734 l 550 648 l 439 629 l 439 481 l 621 481 q 824 415 751 481 q 897 243 897 349 q 824 68 897 137 q 621 0 751 0 l 195 0 l 195 85 l 306 104 l 306 629 l 145 629 m 439 377 l 439 104 l 621 104 q 728 143 694 104 q 762 239 762 181 q 728 336 762 294 q 621 377 693 377 l 439 377 z "},"ы":{"ha":1175,"x_min":66,"x_max":1137,"o":"m 310 734 l 310 481 l 492 481 q 694 415 622 481 q 767 243 767 349 q 694 68 767 137 q 492 0 621 0 l 66 0 l 66 85 l 176 104 l 176 629 l 66 648 l 66 734 l 176 734 l 310 734 m 782 85 l 892 104 l 892 629 l 782 648 l 782 734 l 1026 734 l 1026 104 l 1137 85 l 1137 0 l 782 0 l 782 85 m 310 377 l 310 104 l 492 104 q 598 143 564 104 q 633 239 633 181 q 598 336 633 294 q 492 377 564 377 l 310 377 m 420 734 l 420 648 l 310 629 l 310 734 l 420 734 z "},"ь":{"ha":822,"x_min":66,"x_max":767,"o":"m 310 734 l 310 481 l 492 481 q 694 415 622 481 q 767 243 767 349 q 694 68 767 137 q 492 0 621 0 l 66 0 l 66 85 l 176 104 l 176 629 l 66 648 l 66 734 l 176 734 l 310 734 m 310 377 l 310 104 l 492 104 q 598 143 564 104 q 633 239 633 181 q 598 336 633 294 q 492 377 564 377 l 310 377 m 420 734 l 420 648 l 310 629 l 310 734 l 420 734 z "},"э":{"ha":739,"x_min":62,"x_max":684,"o":"m 355 90 q 498 155 453 90 q 546 318 543 220 l 545 321 l 273 321 l 273 426 l 544 426 l 545 429 q 494 581 540 520 q 355 642 448 642 q 271 628 308 642 q 210 591 233 614 l 181 475 l 74 475 l 81 638 q 196 718 126 689 q 355 747 267 747 q 599 643 514 747 q 684 381 684 538 l 684 353 q 600 90 684 195 q 355 -14 515 -14 q 150 59 238 -14 q 66 228 62 133 l 67 232 l 188 232 q 238 131 188 172 q 355 90 288 90 z "},"ю":{"ha":1198,"x_min":47,"x_max":1125,"o":"m 47 85 l 157 104 l 157 629 l 47 648 l 47 734 l 291 734 l 291 424 l 471 424 q 571 657 484 568 q 796 747 657 747 q 1037 642 948 747 q 1125 374 1125 537 l 1125 359 q 1037 90 1125 195 q 798 -14 949 -14 q 568 78 654 -14 q 470 319 481 171 l 291 319 l 291 104 l 401 85 l 401 0 l 47 0 l 47 85 m 602 359 q 651 166 602 242 q 798 90 701 90 q 942 166 892 90 q 991 359 991 242 l 991 374 q 942 566 991 489 q 796 642 892 642 q 651 566 700 642 q 602 374 602 489 l 602 359 z "},"я":{"ha":883,"x_min":44,"x_max":823,"o":"m 468 85 l 578 104 l 578 285 l 397 285 l 224 0 l 44 0 l 44 85 l 140 100 l 266 304 q 158 384 196 330 q 121 509 121 438 q 196 671 121 608 q 402 734 271 734 l 712 734 l 823 734 l 823 648 l 712 629 l 712 104 l 823 85 l 823 0 l 468 0 l 468 85 m 255 508 q 289 425 255 459 q 389 390 322 390 l 578 390 l 578 630 l 402 630 q 292 594 330 630 q 255 508 255 557 z "},"ђ":{"ha":880,"x_min":21,"x_max":749,"o":"m 431 800 l 286 800 l 286 636 q 379 718 324 689 q 501 747 434 747 q 684 677 619 747 q 749 460 749 606 l 749 -60 q 691 -235 749 -174 q 529 -296 633 -296 q 489 -293 507 -296 q 452 -284 471 -290 l 463 -182 q 494 -189 471 -186 q 529 -191 517 -191 q 593 -156 570 -191 q 616 -60 616 -121 l 616 461 q 577 595 616 552 q 460 639 538 639 q 360 613 406 639 q 286 542 315 587 l 286 104 l 397 85 l 397 0 l 42 0 l 42 85 l 153 104 l 153 800 l 21 800 l 21 877 l 153 877 l 153 953 l 42 972 l 42 1058 l 286 1058 l 286 877 l 431 877 l 431 800 z "},"є":{"ha":758,"x_min":77,"x_max":699,"o":"m 406 90 q 523 131 473 90 q 574 232 574 172 l 694 232 l 695 228 q 611 59 699 133 q 406 -14 523 -14 q 162 90 246 -14 q 77 353 77 195 l 77 381 q 162 643 77 538 q 406 747 247 747 q 565 718 494 747 q 681 638 635 689 l 687 475 l 581 475 l 551 591 q 490 628 528 614 q 406 642 453 642 q 265 579 311 642 q 216 422 219 515 l 217 418 l 464 418 l 464 314 l 217 314 l 216 311 q 264 153 219 215 q 406 90 310 90 z "},"љ":{"ha":1211,"x_min":44,"x_max":1149,"o":"m 342 628 l 342 420 q 282 102 342 205 q 82 0 222 0 l 44 0 l 46 107 l 74 108 q 177 182 146 108 q 209 420 209 256 l 209 629 l 98 648 l 98 734 l 802 734 l 802 648 l 692 629 l 692 455 l 873 455 q 1076 392 1004 455 q 1149 230 1149 330 q 1076 65 1149 130 q 873 0 1003 0 l 448 0 l 448 85 l 558 104 l 558 628 l 342 628 m 692 351 l 692 103 l 873 103 q 980 141 945 103 q 1015 231 1015 179 q 980 316 1015 281 q 873 351 946 351 l 692 351 z "},"њ":{"ha":1284,"x_min":66,"x_max":1227,"o":"m 66 85 l 176 104 l 176 629 l 66 648 l 66 734 l 420 734 l 420 648 l 310 629 l 310 457 l 636 457 l 636 629 l 526 648 l 526 734 l 770 734 l 881 734 l 881 648 l 770 629 l 770 454 l 952 454 q 1155 392 1082 454 q 1227 230 1227 330 q 1155 65 1227 130 q 952 0 1082 0 l 526 0 l 526 85 l 636 104 l 636 353 l 310 353 l 310 104 l 420 85 l 420 0 l 66 0 l 66 85 m 770 351 l 770 103 l 952 103 q 1059 141 1024 103 q 1093 231 1093 179 q 1059 316 1093 281 q 952 351 1025 351 l 770 351 z "},"ћ":{"ha":897,"x_min":33,"x_max":860,"o":"m 42 85 l 153 104 l 153 788 l 33 788 l 33 893 l 153 893 l 153 953 l 42 972 l 42 1058 l 286 1058 l 286 893 l 468 893 l 468 788 l 286 788 l 286 636 q 379 718 324 689 q 501 747 434 747 q 684 677 619 747 q 749 460 749 606 l 749 104 l 860 85 l 860 0 l 505 0 l 505 85 l 616 104 l 616 461 q 577 595 616 552 q 460 639 538 639 q 360 613 406 639 q 286 542 315 587 l 286 104 l 397 85 l 397 0 l 42 0 l 42 85 z "},"џ":{"ha":947,"x_min":66,"x_max":882,"o":"m 543 -241 l 409 -241 l 409 0 l 66 0 l 66 85 l 177 104 l 177 629 l 66 648 l 66 734 l 311 734 l 421 734 l 421 648 l 311 629 l 311 104 l 637 104 l 637 629 l 527 648 l 527 734 l 637 734 l 771 734 l 882 734 l 882 648 l 771 629 l 771 104 l 882 85 l 882 0 l 543 0 l 543 -241 z "},"Ѡ":{"ha":1196,"x_min":98,"x_max":1104,"o":"m 1104 987 l 1104 265 q 1026 57 1104 129 q 821 -14 947 -14 q 689 15 747 -14 q 600 103 631 45 q 505 15 565 45 q 368 -14 445 -14 q 172 57 246 -14 q 98 265 98 129 l 98 987 l 231 987 l 231 265 q 269 135 231 180 q 368 90 307 90 q 487 135 441 90 q 532 265 532 179 l 532 987 l 670 987 l 670 265 q 711 135 670 180 q 821 90 753 90 q 929 135 888 90 q 970 265 970 180 l 970 987 l 1104 987 z "},"ѡ":{"ha":1088,"x_min":102,"x_max":997,"o":"m 997 734 l 997 239 q 926 51 997 115 q 740 -14 854 -14 q 627 10 676 -14 q 548 83 577 35 q 464 10 516 35 q 345 -14 411 -14 q 169 51 235 -14 q 102 239 102 115 l 102 734 l 235 734 l 235 239 q 265 128 235 165 q 345 90 295 90 q 444 128 406 90 q 482 239 482 166 l 482 734 l 616 734 l 616 239 q 650 128 616 165 q 740 90 684 90 q 829 128 795 90 q 863 239 863 166 l 863 734 l 997 734 z "},"ѣ":{"ha":817,"x_min":51,"x_max":771,"o":"m 314 838 l 532 838 l 532 734 l 314 734 l 314 507 l 496 507 q 699 438 626 507 q 771 256 771 368 q 698 72 771 144 q 496 0 625 0 l 70 0 l 70 85 l 180 104 l 180 734 l 51 734 l 51 838 l 180 838 l 180 953 l 70 972 l 70 1058 l 314 1058 l 314 838 m 314 403 l 314 104 l 496 104 q 603 146 568 104 q 637 252 637 189 q 602 358 637 313 q 496 403 568 403 l 314 403 z "},"Ѥ":{"ha":1223,"x_min":39,"x_max":1178,"o":"m 1178 685 l 1084 685 l 1059 825 q 979 877 1026 857 q 865 897 931 897 q 645 806 726 897 q 552 570 564 714 l 554 566 l 922 566 l 922 460 l 551 460 l 549 457 q 634 194 553 298 q 852 91 714 91 q 974 112 919 91 q 1059 163 1029 133 l 1084 303 l 1178 303 l 1178 127 q 1050 30 1135 73 q 852 -14 964 -14 q 544 120 666 -14 q 413 460 421 254 l 283 460 l 283 104 l 393 85 l 393 0 l 39 0 l 39 85 l 149 104 l 149 882 l 39 901 l 39 987 l 149 987 l 283 987 l 393 987 l 393 901 l 283 882 l 283 566 l 415 566 q 552 880 433 758 q 852 1002 671 1002 q 1050 959 964 1002 q 1178 861 1135 915 l 1178 685 z "},"ѥ":{"ha":1116,"x_min":60,"x_max":1069,"o":"m 304 418 l 450 418 q 543 654 459 561 q 777 747 627 747 q 936 718 865 747 q 1052 638 1006 689 l 1058 475 l 951 475 l 922 591 q 861 628 899 614 q 777 642 824 642 q 636 579 682 642 q 587 421 590 515 l 588 418 l 832 418 l 832 313 l 588 313 l 587 310 q 635 153 590 215 q 777 90 681 90 q 894 131 844 90 q 945 232 945 172 l 1065 232 l 1066 228 q 982 59 1069 133 q 777 -14 894 -14 q 544 78 627 -14 q 450 313 460 170 l 304 313 l 304 104 l 414 85 l 414 0 l 60 0 l 60 85 l 170 104 l 170 629 l 60 648 l 60 734 l 170 734 l 304 734 l 304 418 z "},"Ѧ":{"ha":968,"x_min":35,"x_max":927,"o":"m 35 85 l 106 96 l 427 987 l 541 987 l 857 96 l 927 85 l 927 0 l 644 0 l 644 85 l 720 98 l 649 310 l 544 310 l 544 0 l 411 0 l 411 310 l 315 310 l 241 98 l 318 85 l 318 0 l 35 0 l 35 85 m 353 421 l 611 421 l 486 790 l 481 790 l 353 421 z "},"ѧ":{"ha":816,"x_min":41,"x_max":774,"o":"m 547 199 l 475 199 l 475 0 l 342 0 l 342 199 l 265 199 l 186 0 l 41 0 l 41 85 l 88 94 l 349 734 l 463 734 l 725 94 l 774 85 l 774 0 l 627 0 l 547 199 m 307 304 l 505 304 l 419 516 l 407 562 l 403 562 l 391 516 l 307 304 z "},"Ѩ":{"ha":1312,"x_min":27,"x_max":1299,"o":"m 382 987 l 382 901 l 271 882 l 271 422 l 595 422 l 800 987 l 913 987 l 1229 96 l 1299 85 l 1299 0 l 1016 0 l 1016 85 l 1093 98 l 1021 310 l 916 310 l 916 0 l 783 0 l 783 310 l 687 310 l 614 98 l 690 85 l 690 0 l 408 0 l 408 85 l 478 96 l 555 311 l 271 311 l 271 104 l 382 85 l 382 0 l 27 0 l 27 85 l 138 104 l 138 882 l 27 901 l 27 987 l 138 987 l 271 987 l 382 987 m 726 421 l 983 421 l 858 790 l 854 790 l 726 421 z "},"ѩ":{"ha":1194,"x_min":28,"x_max":1147,"o":"m 273 304 l 547 304 l 722 734 l 836 734 l 1098 94 l 1147 85 l 1147 0 l 1000 0 l 920 199 l 848 199 l 848 0 l 715 0 l 715 199 l 638 199 l 559 0 l 414 0 l 414 85 l 461 94 l 504 199 l 273 199 l 273 104 l 383 85 l 383 0 l 28 0 l 28 85 l 139 104 l 139 629 l 28 648 l 28 734 l 139 734 l 273 734 l 273 304 m 680 304 l 878 304 l 792 516 l 780 562 l 776 562 l 764 516 l 680 304 z "},"Ѫ":{"ha":1285,"x_min":37,"x_max":1249,"o":"m 567 447 l 478 447 q 328 404 374 447 q 281 252 281 361 l 281 104 l 392 85 l 392 0 l 37 0 l 37 85 l 148 104 l 148 252 q 232 481 148 410 q 478 552 315 552 l 503 552 l 299 887 l 201 901 l 201 987 l 1094 987 l 1094 901 l 997 887 l 793 552 l 808 552 q 1054 481 970 552 q 1139 252 1139 410 l 1139 104 l 1249 85 l 1249 0 l 895 0 l 895 85 l 1005 104 l 1005 252 q 958 404 1005 361 q 808 447 911 447 l 729 447 l 712 418 l 712 104 l 823 85 l 823 0 l 468 0 l 468 85 l 578 104 l 578 429 l 567 447 m 644 552 l 651 552 l 844 882 l 452 882 l 644 552 z "},"ѫ":{"ha":1085,"x_min":46,"x_max":1040,"o":"m 368 85 l 479 104 l 479 299 l 475 305 l 434 305 q 304 263 344 305 q 264 110 264 220 l 264 0 l 46 0 l 46 85 l 130 104 l 130 110 q 202 334 130 263 q 414 409 275 404 l 280 633 l 184 648 l 184 734 l 911 734 l 911 648 l 815 633 l 682 409 q 886 331 815 402 q 956 110 956 260 l 956 104 l 1040 85 l 1040 0 l 823 0 l 823 110 q 782 262 823 220 q 652 305 742 305 l 620 305 l 612 292 l 612 104 l 723 85 l 723 0 l 368 0 l 368 85 m 547 412 l 667 628 l 429 628 l 547 412 z "},"Ѭ":{"ha":1653,"x_min":38,"x_max":1633,"o":"m 38 85 l 149 104 l 149 882 l 38 901 l 38 987 l 393 987 l 393 901 l 282 882 l 282 553 l 886 553 l 683 887 l 585 901 l 585 987 l 1478 987 l 1478 901 l 1381 887 l 1177 552 l 1192 552 q 1438 481 1354 552 q 1522 252 1522 410 l 1522 104 l 1633 85 l 1633 0 l 1278 0 l 1278 85 l 1389 104 l 1389 252 q 1342 404 1389 361 q 1192 447 1295 447 l 1113 447 l 1096 418 l 1096 104 l 1206 85 l 1206 0 l 852 0 l 852 85 l 962 104 l 962 429 l 951 447 l 862 447 q 712 404 758 447 q 665 252 665 361 l 665 104 l 776 85 l 776 0 l 421 0 l 421 85 l 532 104 l 532 252 q 545 363 532 314 q 585 448 558 412 l 282 448 l 282 104 l 393 85 l 393 0 l 38 0 l 38 85 m 1028 552 l 1035 552 l 1227 882 l 836 882 l 1028 552 z "},"ѭ":{"ha":1484,"x_min":12,"x_max":1402,"o":"m 12 85 l 123 104 l 123 629 l 12 648 l 12 734 l 256 734 l 256 410 l 774 410 l 642 633 l 545 648 l 545 734 l 1272 734 l 1272 648 l 1177 633 l 1043 409 q 1247 331 1177 402 q 1318 110 1318 260 l 1318 104 l 1402 85 l 1402 0 l 1184 0 l 1184 110 q 1144 262 1184 220 q 1014 305 1103 305 l 981 305 l 974 292 l 974 104 l 1084 85 l 1084 0 l 730 0 l 730 85 l 840 104 l 840 299 l 837 305 l 795 305 q 665 263 705 305 q 625 110 625 220 l 625 0 l 408 0 l 408 85 l 492 104 l 492 110 q 504 221 492 172 q 541 305 516 269 l 256 305 l 256 104 l 367 85 l 367 0 l 12 0 l 12 85 m 909 412 l 1028 628 l 790 628 l 909 412 z "},"Ѯ":{"ha":714,"x_min":28,"x_max":642,"o":"m 290 559 q 444 603 394 559 q 493 723 493 646 q 444 841 493 793 q 303 889 395 889 q 211 875 251 889 q 144 838 170 861 l 136 722 l 28 722 l 29 886 q 145 965 75 937 q 303 994 215 994 q 536 919 445 994 q 627 720 627 844 q 583 595 627 650 q 461 509 538 539 q 595 422 549 481 q 642 276 642 362 q 552 63 642 140 q 319 -14 463 -14 l 286 -14 q 211 -34 234 -14 q 187 -90 187 -54 q 219 -166 187 -137 q 295 -215 250 -195 l 241 -301 q 113 -214 166 -269 q 60 -83 60 -158 q 121 48 60 5 q 291 92 182 92 l 319 92 q 457 142 407 92 q 508 273 508 193 q 452 409 508 363 q 290 454 397 454 l 193 454 l 193 559 l 290 559 m 357 1192 l 456 1293 l 572 1293 l 572 1280 l 397 1114 l 317 1114 l 145 1279 l 145 1293 l 258 1293 l 357 1192 z "},"ѯ":{"ha":642,"x_min":21,"x_max":586,"o":"m 571 524 q 535 431 571 473 q 437 364 500 389 q 548 300 509 342 q 586 200 586 258 q 504 42 586 98 q 291 -14 422 -14 l 258 -14 q 183 -34 207 -14 q 159 -90 159 -54 q 191 -166 159 -137 q 268 -215 223 -195 l 214 -301 q 86 -214 138 -269 q 33 -83 33 -158 q 93 48 33 5 q 263 92 154 92 l 291 92 q 410 120 367 92 q 452 197 452 148 q 404 280 452 252 q 261 308 355 308 l 165 308 l 165 413 l 261 413 q 394 444 351 413 q 437 526 437 475 q 398 603 437 572 q 281 635 359 635 q 198 625 235 635 q 137 597 161 614 l 127 497 l 22 497 l 21 645 q 131 715 64 690 q 281 740 197 740 q 490 680 410 740 q 571 524 571 621 m 281 960 l 380 1060 l 496 1060 l 496 1048 l 321 882 l 241 882 l 69 1046 l 69 1060 l 182 1060 l 281 960 z "},"Ѳ":{"ha":951,"x_min":54,"x_max":928,"o":"m 928 486 q 804 128 928 271 q 484 -14 680 -14 q 173 128 292 -14 q 54 486 54 271 l 54 500 q 173 859 54 715 q 484 1002 292 1002 q 804 859 680 1002 q 928 500 928 715 l 928 486 m 484 892 q 275 794 352 892 q 191 543 197 697 l 193 540 l 788 540 l 789 543 q 702 794 783 697 q 484 892 621 892 m 484 95 q 700 188 620 95 q 789 431 779 280 l 787 435 l 194 435 l 193 431 q 278 188 201 281 q 484 95 355 95 z "},"ѳ":{"ha":804,"x_min":71,"x_max":727,"o":"m 71 374 q 159 642 71 536 q 398 747 247 747 q 638 642 550 747 q 727 374 727 537 l 727 359 q 639 90 727 195 q 399 -14 551 -14 q 159 91 247 -14 q 71 359 71 195 l 71 374 m 399 90 q 534 153 486 90 q 588 315 583 216 l 587 318 l 210 318 l 209 315 q 262 153 214 216 q 399 90 311 90 m 398 642 q 265 582 313 642 q 210 427 217 521 l 211 423 l 586 423 l 587 427 q 531 582 580 521 q 398 642 483 642 z "},"Ѵ":{"ha":941,"x_min":39,"x_max":903,"o":"m 330 901 l 252 888 l 454 259 l 476 177 l 480 177 l 503 259 l 674 805 q 752 956 707 911 q 869 1001 796 1001 l 903 1000 l 903 886 l 895 886 q 840 864 861 886 q 801 789 820 843 l 535 0 l 420 0 l 108 891 l 39 901 l 39 987 l 330 987 l 330 901 z "},"ѵ":{"ha":789,"x_min":44,"x_max":753,"o":"m 327 648 l 247 634 l 376 216 l 388 164 l 392 164 l 405 216 l 506 579 q 578 706 534 665 q 679 747 623 747 q 719 743 702 747 q 753 730 736 740 l 738 627 q 727 631 734 629 q 711 633 720 633 q 669 615 689 633 q 640 569 649 597 l 439 0 l 338 0 l 114 637 l 44 648 l 44 734 l 327 734 l 327 648 z "},"Ѻ":{"ha":980,"x_min":54,"x_max":928,"o":"m 552 814 l 418 814 l 418 1078 l 552 1078 l 552 814 m 552 -96 l 418 -96 l 418 174 l 552 174 l 552 -96 m 928 486 q 804 128 928 271 q 484 -14 680 -14 q 173 128 292 -14 q 54 486 54 271 l 54 500 q 173 859 54 715 q 484 1002 292 1002 q 804 859 680 1002 q 928 500 928 715 l 928 486 m 794 502 q 712 783 794 674 q 484 892 629 892 q 266 783 344 892 q 187 502 187 673 l 187 486 q 266 204 187 313 q 484 95 344 95 q 713 203 631 95 q 794 486 794 312 l 794 502 z "},"ѻ":{"ha":791,"x_min":71,"x_max":727,"o":"m 444 567 l 310 567 l 310 818 l 444 818 l 444 567 m 444 -80 l 310 -80 l 310 170 l 444 170 l 444 -80 m 71 374 q 159 642 71 536 q 398 747 247 747 q 638 642 550 747 q 727 374 727 537 l 727 359 q 639 90 727 195 q 399 -14 551 -14 q 159 91 247 -14 q 71 359 71 195 l 71 374 m 204 359 q 253 166 204 242 q 399 90 302 90 q 544 166 494 90 q 593 359 593 242 l 593 374 q 544 566 593 489 q 398 642 494 642 q 253 566 302 642 q 204 374 204 489 l 204 359 z "},"Ѽ":{"ha":1181,"x_min":92,"x_max":1095,"o":"m 823 981 l 827 983 q 1020 907 945 985 q 1095 682 1095 829 l 1095 291 q 1020 64 1095 142 q 823 -14 945 -14 q 687 15 746 -14 q 593 101 627 43 q 499 15 559 43 q 363 -14 439 -14 q 166 64 241 -14 q 92 291 92 142 l 92 682 q 166 907 92 829 q 359 983 240 985 l 363 981 l 363 882 q 263 831 301 882 q 226 682 226 779 l 226 291 q 263 141 226 193 q 363 90 301 90 q 481 135 436 90 q 526 265 526 179 l 526 558 l 661 558 l 661 265 q 705 135 661 180 q 823 90 750 90 q 923 141 885 90 q 961 291 961 193 l 961 682 q 923 831 961 779 q 823 882 885 882 l 823 981 m 893 1191 l 893 1103 l 861 1103 q 671 1145 772 1103 q 541 1187 570 1187 q 488 1168 507 1187 q 469 1115 469 1150 l 469 1103 l 377 1103 l 377 1127 q 419 1238 377 1200 q 538 1275 461 1275 q 687 1233 587 1275 q 863 1191 786 1191 l 893 1191 m 564 894 l 509 939 l 549 1017 l 548 1112 l 675 1112 l 675 1028 l 564 894 z "},"ѽ":{"ha":1039,"x_min":77,"x_max":972,"o":"m 728 734 l 732 736 q 905 668 838 739 q 972 462 972 597 l 972 264 q 905 57 972 128 q 728 -14 838 -14 q 607 10 660 -14 q 524 83 555 35 q 440 10 492 35 q 321 -14 387 -14 q 144 57 211 -14 q 77 264 77 128 l 77 462 q 144 668 77 597 q 317 736 210 739 l 321 734 l 321 635 q 241 591 271 635 q 211 462 211 547 l 211 264 q 241 134 211 178 q 321 90 271 90 q 420 128 382 90 q 458 239 458 166 l 458 397 l 591 397 l 591 239 q 629 128 591 165 q 728 90 666 90 q 808 135 777 90 q 838 264 838 179 l 838 462 q 808 591 838 547 q 728 635 777 635 l 728 734 m 846 947 l 846 860 l 814 860 q 624 902 725 860 q 494 943 522 943 q 440 925 460 943 q 420 871 420 907 l 420 859 l 330 859 l 330 884 q 372 994 330 957 q 491 1031 414 1031 q 639 989 540 1031 q 815 947 739 947 l 846 947 m 628 785 l 516 650 l 462 695 l 501 773 l 500 868 l 628 868 l 628 785 z "},"Ѿ":{"ha":1196,"x_min":98,"x_max":1104,"o":"m 316 1145 l 316 1219 l 873 1219 l 874 1145 l 649 1145 l 649 1059 l 528 1059 l 528 1145 l 316 1145 m 970 987 l 970 265 q 929 135 970 180 q 821 90 888 90 q 711 135 753 90 q 670 265 670 180 l 670 987 l 532 987 l 532 265 q 487 135 532 179 q 368 90 441 90 q 269 135 307 90 q 231 265 231 180 l 231 987 l 98 987 l 98 265 q 172 57 98 129 q 368 -14 246 -14 q 505 15 445 -14 q 600 103 565 45 q 689 15 631 45 q 821 -14 747 -14 q 1026 57 947 -14 q 1104 265 1104 129 l 1104 987 l 970 987 z "},"ѿ":{"ha":1061,"x_min":102,"x_max":997,"o":"m 273 914 l 273 988 l 830 988 l 832 914 l 606 914 l 606 827 l 486 827 l 486 914 l 273 914 m 863 734 l 863 239 q 829 128 863 166 q 740 90 795 90 q 650 128 684 90 q 616 239 616 165 l 616 734 l 482 734 l 482 239 q 444 128 482 166 q 345 90 406 90 q 265 128 295 90 q 235 239 235 165 l 235 734 l 102 734 l 102 239 q 169 51 102 115 q 345 -14 235 -14 q 464 10 411 -14 q 548 83 516 35 q 627 10 577 35 q 740 -14 676 -14 q 926 51 854 -14 q 997 239 997 115 l 997 734 l 863 734 z "},"Ҁ":{"ha":859,"x_min":77,"x_max":821,"o":"m 533 -260 l 400 -260 l 400 -10 q 166 124 254 9 q 77 406 77 239 l 77 581 q 183 883 77 764 q 456 1002 288 1002 q 722 912 623 1002 q 818 676 821 823 l 817 672 l 688 672 q 628 836 688 776 q 456 897 567 897 q 277 806 344 897 q 211 583 211 716 l 211 406 q 277 180 211 271 q 456 90 344 90 l 533 90 l 533 -260 z "},"ҁ":{"ha":718,"x_min":71,"x_max":677,"o":"m 465 -260 l 331 -260 l 331 -9 q 139 114 208 12 q 71 353 71 215 l 71 381 q 157 641 71 535 q 392 747 243 747 q 596 671 515 747 q 674 485 677 595 l 673 481 l 552 481 q 506 595 552 547 q 392 642 459 642 q 252 564 299 642 q 204 381 204 486 l 204 353 q 251 168 204 245 q 392 90 298 90 l 465 90 l 465 -260 z "},"҂":{"ha":772,"x_min":26,"x_max":745,"o":"m 360 303 l 556 186 l 507 102 l 310 217 l 187 0 l 70 0 l 222 270 l 26 386 l 74 470 l 273 354 l 410 601 l 214 717 l 262 802 l 460 686 l 586 910 l 701 910 l 547 634 l 745 518 l 694 434 l 498 549 l 360 303 z "},"҃":{"ha":683,"x_min":106,"x_max":593,"o":"m 224 891 l 224 806 l 106 806 l 106 966 l 475 966 l 475 1039 l 593 1038 l 593 891 l 224 891 z "},"҄":{"ha":707,"x_min":93,"x_max":608,"o":"m 123 972 q 298 1014 199 972 q 447 1056 397 1056 q 566 1019 524 1056 q 608 908 608 981 l 608 884 l 517 884 l 517 896 q 497 949 517 931 q 444 968 477 968 q 314 926 415 968 q 124 884 212 884 l 93 884 l 93 972 l 123 972 z "},"҅":{"ha":336,"x_min":85,"x_max":252,"o":"m 85 1017 l 85 1101 l 212 1101 l 212 1006 l 252 927 l 197 882 l 85 1017 z "},"҆":{"ha":333,"x_min":85,"x_max":252,"o":"m 140 882 l 85 927 l 125 1006 l 124 1101 l 252 1101 l 252 1017 l 140 882 z "},"҈":{"ha":1375,"x_min":30,"x_max":1349,"o":"m 543 859 l 541 863 q 576 952 538 917 q 680 987 614 987 q 783 952 745 987 q 819 863 821 917 l 817 859 l 747 859 q 730 908 747 888 q 680 928 713 928 q 630 908 646 928 q 614 859 614 888 l 543 859 m 943 671 l 942 675 q 977 764 939 728 q 1080 799 1015 799 q 1184 764 1145 799 q 1220 675 1223 729 l 1219 671 l 1147 671 q 1131 721 1147 701 q 1080 740 1115 740 q 1031 720 1046 740 q 1015 671 1015 701 l 943 671 m 1070 330 l 1069 334 q 1104 422 1065 387 q 1207 458 1142 458 q 1311 423 1272 458 q 1346 334 1349 388 l 1345 330 l 1274 330 q 1258 379 1274 360 q 1207 399 1242 399 q 1157 379 1173 399 q 1141 330 1141 359 l 1070 330 m 937 -22 l 935 -18 q 970 71 932 35 q 1074 106 1008 106 q 1177 71 1139 106 q 1213 -18 1215 36 l 1211 -22 l 1141 -22 q 1124 27 1141 8 q 1074 47 1108 47 q 1024 27 1040 47 q 1008 -22 1008 7 l 937 -22 m 546 -214 l 545 -210 q 579 -121 541 -156 q 683 -87 617 -87 q 786 -121 748 -87 q 822 -210 825 -156 l 821 -214 l 750 -214 q 733 -165 750 -184 q 683 -146 717 -146 q 633 -165 649 -146 q 617 -214 617 -184 l 546 -214 m 154 671 l 153 675 q 188 764 149 729 q 292 799 226 799 q 395 764 357 799 q 431 675 433 729 l 429 671 l 359 671 q 342 720 359 701 q 292 740 326 740 q 242 720 258 740 q 226 671 226 701 l 154 671 m 35 330 l 33 334 q 68 422 30 387 q 172 458 106 458 q 275 423 237 458 q 311 334 313 388 l 309 330 l 239 330 q 222 379 239 360 q 172 399 206 399 q 122 379 138 399 q 106 330 106 359 l 35 330 m 147 -22 l 146 -18 q 181 71 142 35 q 284 106 219 106 q 388 71 349 106 q 424 -18 427 36 l 422 -22 l 351 -22 q 335 27 351 8 q 284 47 319 47 q 235 27 250 47 q 219 -22 219 7 l 147 -22 z "},"҉":{"ha":1332,"x_min":33,"x_max":1292,"o":"m 730 -41 l 737 -50 l 654 -280 l 589 -280 l 637 -41 l 730 -41 m 597 764 l 589 773 l 672 1002 l 737 1002 l 690 764 l 597 764 m 1057 428 l 1066 436 l 1292 352 l 1292 286 l 1057 334 l 1057 428 m 268 294 l 259 286 l 33 370 l 33 436 l 268 388 l 268 294 m 895 680 l 896 690 l 1114 794 l 1160 748 q 960 612 1135 732 l 895 680 m 431 14 l 429 3 l 212 -101 l 165 -54 l 365 81 l 431 14 m 336 583 l 324 585 l 224 806 l 268 852 l 402 650 l 336 583 m 988 109 l 1000 108 l 1101 -113 l 1056 -161 l 922 42 l 988 109 z "},"ҍ":{"ha":812,"x_min":26,"x_max":767,"o":"m 310 987 l 508 987 l 508 882 l 310 882 l 310 507 l 492 507 q 695 438 623 507 q 767 256 767 368 q 694 72 767 144 q 492 0 621 0 l 66 0 l 66 85 l 176 104 l 176 882 l 26 882 l 26 987 l 176 987 l 176 1014 l 66 1034 l 66 1119 l 310 1119 l 310 987 m 310 403 l 310 104 l 492 104 q 598 147 564 104 q 633 252 633 189 q 598 358 633 313 q 492 403 564 403 l 310 403 z "},"Ҏ":{"ha":882,"x_min":48,"x_max":843,"o":"m 843 403 l 765 332 l 511 608 l 590 678 l 843 403 m 502 987 q 748 906 660 987 q 836 692 836 825 q 748 477 836 557 q 502 396 660 396 l 292 396 l 292 104 l 403 85 l 403 0 l 48 0 l 48 85 l 159 104 l 159 882 l 48 901 l 48 987 l 159 987 l 502 987 m 292 500 l 502 500 q 652 554 602 500 q 702 690 702 608 q 652 827 702 772 q 502 882 602 882 l 292 882 l 292 500 z "},"ҏ":{"ha":855,"x_min":44,"x_max":780,"o":"m 764 24 l 686 -47 l 457 206 l 536 277 l 764 24 m 44 -196 l 155 -177 l 155 629 l 44 648 l 44 734 l 269 734 l 281 644 q 371 721 318 694 q 492 747 423 747 q 704 639 629 747 q 780 353 780 531 l 780 339 q 704 83 780 180 q 494 -14 628 -14 q 375 8 427 -14 q 288 76 324 31 l 288 -177 l 399 -196 l 399 -282 l 44 -282 l 44 -196 m 646 353 q 597 559 646 479 q 452 639 548 639 q 354 613 395 639 q 288 543 313 587 l 288 185 q 354 115 313 140 q 453 90 394 90 q 597 159 548 90 q 646 339 646 229 l 646 353 z "},"Ґ":{"ha":819,"x_min":41,"x_max":757,"o":"m 650 1214 l 757 1214 l 757 882 l 285 882 l 285 104 l 395 85 l 395 0 l 41 0 l 41 85 l 151 104 l 151 882 l 41 901 l 41 987 l 631 987 l 650 1214 z "},"ґ":{"ha":728,"x_min":42,"x_max":629,"o":"m 515 734 l 542 870 l 629 870 l 629 628 l 286 628 l 286 104 l 397 85 l 397 0 l 42 0 l 42 85 l 153 104 l 153 629 l 42 648 l 42 734 l 153 734 l 515 734 z "},"ғ":{"ha":729,"x_min":49,"x_max":648,"o":"m 404 0 l 159 0 l 159 324 l 56 324 l 56 429 l 159 429 l 159 629 l 49 648 l 49 734 l 648 734 l 648 545 l 561 545 l 552 628 l 293 628 l 293 429 l 490 429 l 490 324 l 293 324 l 293 104 l 404 85 l 404 0 m 159 0 l 49 0 l 49 85 l 159 104 l 159 0 z "},"Ҕ":{"ha":841,"x_min":52,"x_max":785,"o":"m 52 85 l 163 104 l 163 882 l 52 901 l 52 987 l 768 987 l 768 769 l 654 769 l 644 882 l 296 882 l 296 565 l 378 565 q 678 461 571 565 q 785 173 785 357 q 703 -100 785 -5 q 467 -193 621 -195 l 463 -191 l 461 -95 q 608 -26 564 -95 q 652 173 652 43 q 583 381 650 310 q 378 453 515 453 l 296 453 l 296 104 l 407 85 l 407 0 l 52 0 l 52 85 z "},"ҕ":{"ha":778,"x_min":42,"x_max":720,"o":"m 641 545 l 554 545 l 545 628 l 286 628 l 286 438 l 373 438 q 623 351 526 438 q 720 115 720 264 q 652 -74 718 21 q 457 -193 587 -169 l 422 -92 q 548 -15 510 -68 q 586 115 586 37 q 526 271 585 215 q 373 326 468 326 l 286 326 l 286 104 l 397 85 l 397 0 l 42 0 l 42 85 l 153 104 l 153 629 l 42 648 l 42 734 l 153 734 l 619 734 l 619 732 l 641 732 l 641 545 z "},"Ҝ":{"ha":997,"x_min":47,"x_max":958,"o":"m 47 85 l 158 104 l 158 882 l 47 901 l 47 987 l 292 987 l 402 987 l 402 901 l 292 882 l 292 543 l 357 543 l 357 724 l 464 724 l 464 543 l 508 543 l 669 864 q 750 969 708 943 q 852 995 792 995 q 910 987 885 995 q 958 965 935 979 l 938 871 q 909 876 924 874 q 880 878 895 878 q 825 862 846 878 q 781 804 804 845 l 623 509 l 857 99 l 951 85 l 951 0 l 748 0 l 524 430 l 464 430 l 464 281 l 357 281 l 357 430 l 292 430 l 292 104 l 402 85 l 402 0 l 47 0 l 47 85 z "},"ҝ":{"ha":928,"x_min":61,"x_max":872,"o":"m 61 85 l 172 104 l 172 629 l 61 648 l 61 734 l 305 734 l 416 734 l 416 648 l 305 629 l 305 424 l 369 424 l 369 567 l 475 567 l 475 424 l 492 424 l 605 629 q 678 717 639 687 q 768 747 718 747 q 820 739 800 747 q 866 715 840 731 l 847 624 q 813 629 818 629 q 795 630 809 630 q 749 615 768 630 q 711 568 730 600 l 601 390 l 791 99 l 872 85 l 872 0 l 688 0 l 505 311 l 475 311 l 475 182 l 369 182 l 369 311 l 305 311 l 305 104 l 416 85 l 416 0 l 61 0 l 61 85 z "},"Ҡ":{"ha":1212,"x_min":14,"x_max":1183,"o":"m 138 882 l 127 770 l 14 770 l 14 987 l 538 987 l 648 987 l 648 901 l 538 882 l 538 543 l 646 543 l 869 864 q 964 967 924 940 q 1059 995 1005 995 q 1113 987 1090 995 q 1159 964 1135 979 l 1139 870 q 1107 876 1121 873 q 1080 878 1093 878 q 1026 861 1048 878 q 975 804 1004 844 l 762 508 l 1090 102 l 1183 85 l 1183 0 l 859 0 l 859 85 l 935 95 l 665 430 l 538 430 l 538 104 l 648 85 l 648 0 l 294 0 l 294 85 l 404 104 l 404 882 l 138 882 z "},"ҡ":{"ha":1061,"x_min":56,"x_max":1042,"o":"m 180 628 l 170 516 l 56 516 l 56 734 l 529 734 l 640 734 l 640 648 l 529 629 l 529 424 l 600 424 l 753 629 q 834 717 794 687 q 923 747 873 747 q 975 739 954 747 q 1021 715 995 731 l 1002 624 q 968 629 972 629 q 950 630 964 630 q 901 612 925 630 q 859 568 877 593 l 717 385 l 948 102 l 1042 85 l 1042 0 l 864 0 l 616 311 l 529 311 l 529 104 l 640 85 l 640 0 l 285 0 l 285 85 l 395 104 l 395 628 l 180 628 z "},"Ҥ":{"ha":1387,"x_min":33,"x_max":1341,"o":"m 387 987 l 387 901 l 277 882 l 277 541 l 755 541 l 755 882 l 645 901 l 645 987 l 1341 987 l 1341 770 l 1227 770 l 1217 882 l 911 882 l 907 885 l 889 882 l 889 104 l 1000 85 l 1000 0 l 645 0 l 645 85 l 755 104 l 755 436 l 277 436 l 277 104 l 387 85 l 387 0 l 33 0 l 33 85 l 143 104 l 143 882 l 33 901 l 33 987 l 143 987 l 277 987 l 387 987 z "},"ҥ":{"ha":1076,"x_min":58,"x_max":1040,"o":"m 1040 516 l 926 516 l 916 628 l 762 628 l 762 104 l 873 85 l 873 0 l 517 0 l 517 85 l 628 104 l 628 312 l 302 312 l 302 104 l 412 85 l 412 0 l 58 0 l 58 85 l 168 104 l 168 629 l 58 648 l 58 734 l 168 734 l 302 734 l 412 734 l 412 648 l 302 629 l 302 416 l 628 416 l 628 629 l 517 648 l 517 734 l 628 734 l 1040 734 l 1040 516 z "},"Ҧ":{"ha":1442,"x_min":52,"x_max":1355,"o":"m 52 901 l 52 987 l 1021 987 l 1021 901 l 910 882 l 910 565 l 948 565 q 1248 461 1141 565 q 1355 173 1355 357 q 1273 -100 1355 -5 q 1036 -193 1190 -195 l 1032 -191 l 1031 -95 q 1177 -26 1133 -95 q 1221 173 1221 43 q 1152 381 1220 310 q 948 453 1084 453 l 910 453 l 910 104 l 1021 85 l 1021 0 l 666 0 l 666 85 l 777 104 l 777 882 l 296 882 l 296 104 l 407 85 l 407 0 l 52 0 l 52 85 l 163 104 l 163 882 l 52 901 z "},"ҧ":{"ha":1295,"x_min":58,"x_max":1177,"o":"m 873 734 l 873 648 l 762 629 l 762 439 l 817 439 q 1076 352 976 439 q 1177 115 1177 264 q 1109 -74 1175 22 q 914 -193 1044 -169 l 880 -92 q 1005 -15 966 -68 q 1043 115 1043 38 q 980 271 1042 215 q 817 327 918 327 l 762 327 l 762 104 l 873 85 l 873 0 l 518 0 l 518 85 l 629 104 l 629 628 l 302 628 l 302 104 l 412 85 l 412 0 l 58 0 l 58 85 l 168 104 l 168 629 l 58 648 l 58 734 l 168 734 l 762 734 l 873 734 z "},"Ҩ":{"ha":1045,"x_min":72,"x_max":968,"o":"m 968 -20 q 826 -8 893 -20 q 700 30 758 5 q 599 -3 652 8 q 488 -14 546 -14 q 188 121 303 -14 q 72 460 72 256 l 72 570 q 157 877 72 755 q 376 996 242 1000 l 380 995 l 380 892 q 253 801 300 892 q 205 571 205 711 l 205 460 q 282 198 205 300 q 488 95 359 95 q 532 97 511 95 q 574 104 553 100 q 447 265 492 170 q 403 475 403 360 l 403 625 q 480 893 403 786 q 682 1000 557 1000 q 883 895 806 1000 q 960 625 960 791 l 960 460 q 922 262 960 353 q 814 106 884 171 q 887 93 848 97 q 968 88 926 88 l 968 -20 m 536 473 q 576 290 536 370 q 691 163 616 210 l 695 163 q 792 287 758 209 q 827 460 827 365 l 827 627 q 788 818 827 745 q 682 891 749 891 q 576 816 616 891 q 536 627 536 741 l 536 473 z "},"ҩ":{"ha":867,"x_min":76,"x_max":806,"o":"m 806 -8 q 691 1 745 -8 q 589 31 636 11 q 505 -3 549 8 q 410 -14 460 -14 q 169 100 262 -14 q 76 387 76 214 l 76 425 q 142 655 76 564 q 311 742 208 745 l 315 741 l 315 638 q 238 579 267 638 q 210 427 210 519 l 210 387 q 264 177 210 259 q 410 95 318 95 q 440 97 426 95 q 469 102 455 98 q 372 229 406 156 q 339 389 339 302 l 339 458 q 397 668 339 587 q 555 748 456 748 q 713 662 654 748 q 772 444 772 576 l 772 373 q 750 232 772 298 q 687 115 728 165 q 743 104 713 107 q 806 100 773 100 l 806 -8 m 639 373 l 639 446 q 617 584 639 530 q 557 635 595 638 l 553 635 q 494 590 515 638 q 473 460 473 541 l 473 387 q 498 263 473 318 q 571 174 523 208 l 575 174 q 622 259 605 208 q 639 373 639 311 l 639 373 z "},"Ҵ":{"ha":1232,"x_min":52,"x_max":1210,"o":"m 699 987 l 699 769 l 585 769 l 574 882 l 467 882 l 467 104 l 947 104 l 947 882 l 837 901 l 837 987 l 1192 987 l 1192 901 l 1081 882 l 1081 104 l 1210 104 l 1210 -238 l 1078 -238 l 1078 0 l 223 0 l 223 85 l 334 104 l 334 882 l 176 882 l 167 769 l 52 769 l 52 987 l 699 987 z "},"ҵ":{"ha":1067,"x_min":35,"x_max":1023,"o":"m 669 734 l 669 516 l 555 516 l 545 629 l 431 629 l 431 104 l 779 104 l 779 734 l 1023 734 l 1023 648 l 912 629 l 912 104 l 1002 104 l 989 -218 l 870 -218 l 870 0 l 187 0 l 187 85 l 298 104 l 298 629 l 159 629 l 149 516 l 35 516 l 35 734 l 669 734 z "},"Ҹ":{"ha":1036,"x_min":40,"x_max":994,"o":"m 541 214 l 434 214 l 434 690 l 541 690 l 541 214 m 639 85 l 749 104 l 749 409 q 625 380 685 389 q 481 372 564 372 q 235 443 319 372 q 151 675 151 514 l 151 882 l 40 901 l 40 987 l 395 987 l 395 901 l 284 882 l 284 675 q 331 520 284 564 q 481 477 378 477 q 617 487 552 477 q 749 515 682 496 l 749 882 l 639 901 l 639 987 l 749 987 l 994 987 l 994 901 l 884 882 l 884 104 l 994 85 l 994 0 l 639 0 l 639 85 z "},"ҹ":{"ha":917,"x_min":62,"x_max":866,"o":"m 518 153 l 411 153 l 411 538 l 518 538 l 518 153 m 416 734 l 416 649 l 306 630 l 306 519 q 343 389 306 431 q 456 348 381 348 q 541 353 500 348 q 622 368 582 358 l 622 629 l 511 648 l 511 734 l 866 734 l 866 648 l 755 629 l 755 104 l 866 85 l 866 0 l 511 0 l 511 85 l 622 104 l 622 262 q 542 247 583 252 q 456 242 501 242 q 248 312 323 242 q 172 519 172 382 l 172 630 l 62 649 l 62 734 l 306 734 l 416 734 z "},"Һ":{"ha":1042,"x_min":39,"x_max":994,"o":"m 395 987 l 395 902 l 284 883 l 284 578 q 409 606 349 597 q 552 616 469 616 q 799 544 714 616 q 883 312 883 473 l 883 105 l 994 86 l 994 0 l 639 0 l 639 86 l 749 105 l 749 312 q 702 467 749 423 q 552 510 655 510 q 416 500 481 510 q 284 472 351 490 l 284 105 l 395 86 l 395 0 l 39 0 l 39 86 l 150 105 l 150 883 l 39 902 l 39 987 l 150 987 l 284 987 l 395 987 z "},"Ҽ":{"ha":1044,"x_min":41,"x_max":993,"o":"m 677 -16 q 369 101 480 -16 q 258 410 258 218 l 258 479 q 96 559 151 492 q 44 730 41 625 l 45 733 l 147 733 q 174 629 147 670 q 258 574 201 587 l 258 576 q 365 880 258 760 q 626 1000 471 1000 q 899 880 805 1000 q 993 549 993 760 l 993 475 l 392 475 l 392 410 q 463 178 392 267 q 677 89 533 89 q 803 104 751 89 q 905 146 855 120 l 938 52 q 839 6 904 27 q 677 -16 774 -16 m 392 566 l 859 566 l 859 588 q 804 811 859 728 q 626 895 749 895 q 454 804 517 895 q 392 576 392 713 l 392 566 z "},"ҽ":{"ha":889,"x_min":7,"x_max":764,"o":"m 484 -14 q 240 88 331 -14 q 150 353 150 190 l 150 364 q 43 445 79 387 q 7 588 7 502 l 113 588 q 124 518 113 548 q 159 470 136 488 q 270 670 184 593 q 464 747 356 747 q 688 658 612 747 q 764 419 764 568 l 764 336 l 288 336 l 286 332 q 340 158 288 227 q 484 90 391 90 q 603 110 552 90 q 692 163 654 129 l 744 76 q 640 12 705 38 q 484 -14 575 -14 m 464 642 q 349 586 397 642 q 291 444 302 529 l 292 440 l 631 440 l 631 458 q 589 589 631 536 q 464 642 547 642 z "},"Ӄ":{"ha":967,"x_min":47,"x_max":903,"o":"m 47 901 l 47 987 l 402 987 l 402 901 l 292 882 l 292 563 l 378 563 l 731 987 l 903 987 l 903 901 l 798 883 l 528 560 q 786 443 694 545 q 878 171 878 340 q 795 -102 878 -7 q 559 -195 713 -197 l 555 -193 l 553 -97 q 700 -28 656 -97 q 745 171 745 41 q 675 379 743 308 q 471 450 608 450 l 292 450 l 292 104 l 402 85 l 402 0 l 47 0 l 47 85 l 158 104 l 158 882 l 47 901 z "},"ӄ":{"ha":867,"x_min":61,"x_max":778,"o":"m 61 85 l 172 104 l 172 629 l 61 648 l 61 734 l 416 734 l 416 648 l 305 629 l 305 424 l 362 424 l 598 734 l 776 734 l 776 648 l 675 630 l 501 416 q 703 322 629 397 q 778 119 778 246 q 711 -61 777 29 q 517 -175 646 -152 l 481 -73 q 607 -2 568 -52 q 645 119 645 47 q 584 264 644 217 q 418 311 524 311 l 305 311 l 305 104 l 416 85 l 416 0 l 61 0 l 61 85 z "},"Ӈ":{"ha":1060,"x_min":52,"x_max":1019,"o":"m 52 901 l 52 987 l 296 987 l 407 987 l 407 901 l 296 882 l 296 541 l 775 541 l 775 882 l 665 901 l 665 987 l 1019 987 l 1019 901 l 909 882 l 909 -60 q 850 -235 909 -174 q 688 -296 792 -296 q 649 -293 667 -296 q 612 -284 631 -290 l 621 -182 q 653 -189 630 -186 q 688 -191 676 -191 q 752 -156 728 -191 q 775 -60 775 -121 l 775 436 l 296 436 l 296 104 l 407 85 l 407 0 l 52 0 l 52 85 l 163 104 l 163 882 l 52 901 z "},"ӈ":{"ha":928,"x_min":61,"x_max":876,"o":"m 61 648 l 61 734 l 305 734 l 416 734 l 416 648 l 305 629 l 305 416 l 631 416 l 631 629 l 521 648 l 521 734 l 631 734 l 876 734 l 876 648 l 766 629 l 766 -60 q 707 -235 766 -174 q 544 -296 648 -296 q 505 -293 523 -296 q 468 -284 487 -290 l 478 -182 q 510 -189 487 -186 q 544 -191 532 -191 q 608 -156 585 -191 q 631 -60 631 -121 l 631 312 l 305 312 l 305 104 l 416 85 l 416 0 l 61 0 l 61 85 l 172 104 l 172 629 l 61 648 z "},"Ә":{"ha":951,"x_min":53,"x_max":869,"o":"m 422 1002 q 750 877 632 1002 q 869 548 869 751 l 869 437 q 754 113 869 241 q 474 -14 640 -14 q 160 105 268 -14 q 53 437 53 225 l 53 511 l 735 511 l 735 548 q 657 799 735 702 q 422 897 579 897 q 290 881 345 897 q 181 840 235 865 l 148 934 q 252 980 183 958 q 422 1002 320 1002 m 474 90 q 660 183 591 90 q 734 420 730 277 l 186 420 l 186 397 q 254 173 186 256 q 474 90 321 90 z "},"Ӡ":{"ha":762,"x_min":53,"x_max":707,"o":"m 511 879 l 510 882 l 206 882 l 197 769 l 82 769 l 82 987 l 671 987 l 672 906 l 394 573 q 625 487 543 564 q 707 275 707 410 q 613 63 707 140 q 371 -14 520 -14 q 147 58 241 -14 q 56 270 53 131 l 58 274 l 186 274 q 237 143 186 197 q 371 90 289 90 q 519 141 465 90 q 573 273 573 191 q 518 425 573 376 q 355 473 463 473 l 256 473 l 256 578 l 511 879 z "},"ӡ":{"ha":766,"x_min":52,"x_max":705,"o":"m 670 734 l 671 652 l 402 318 q 626 231 547 307 q 705 21 705 154 q 612 -191 705 -113 q 370 -268 519 -268 q 145 -195 239 -268 q 55 16 52 -122 l 56 20 l 184 20 q 236 -110 184 -56 q 370 -163 288 -163 q 517 -112 463 -163 q 572 18 572 -62 q 517 171 572 123 q 353 219 462 219 l 253 219 l 253 323 l 496 625 l 494 628 l 205 628 l 195 515 l 81 515 l 81 734 l 670 734 z "},"Ӻ":{"ha":847,"x_min":43,"x_max":819,"o":"m 43 0 m 102 85 l 213 104 l 213 882 l 102 901 l 102 987 l 819 987 l 819 769 l 704 769 l 694 882 l 347 882 l 347 104 l 457 85 l 457 0 l 102 0 l 102 85 m 478 482 l 43 482 l 43 587 l 478 587 l 478 482 m 458 69 l 458 -54 q 403 -217 458 -159 q 252 -275 349 -275 q 215 -272 232 -275 q 176 -262 198 -269 l 186 -154 q 217 -160 195 -157 q 252 -162 239 -162 q 305 -134 286 -162 q 324 -54 324 -106 l 324 69 l 458 69 z "},"ӻ":{"ha":750,"x_min":43,"x_max":707,"o":"m 218 629 l 107 648 l 107 734 l 684 734 l 684 732 l 707 732 l 707 545 l 619 545 l 610 628 l 351 628 l 351 105 l 462 85 l 462 0 l 107 0 l 107 85 l 218 105 l 218 629 m 478 362 l 43 362 l 43 467 l 478 467 l 478 362 m 489 87 l 489 -35 q 434 -199 489 -141 q 283 -256 380 -256 q 246 -253 263 -256 q 208 -244 229 -250 l 217 -136 q 248 -141 227 -139 q 283 -144 270 -144 q 336 -116 317 -144 q 355 -35 355 -88 l 355 87 l 489 87 z "},"Ԁ":{"ha":916,"x_min":54,"x_max":873,"o":"m 386 0 q 141 83 228 0 q 54 301 54 167 q 140 516 54 435 q 386 597 227 597 l 629 597 l 629 882 l 519 901 l 519 987 l 873 987 l 873 901 l 763 882 l 763 104 l 873 85 l 873 0 l 386 0 m 629 104 l 629 492 l 386 492 q 236 438 286 492 q 187 302 187 384 q 236 162 187 219 q 386 104 286 104 l 629 104 z "},"Ԃ":{"ha":1155,"x_min":54,"x_max":1107,"o":"m 386 0 q 141 83 228 0 q 54 301 54 167 q 140 516 54 435 q 386 597 227 597 l 629 597 l 629 882 l 519 901 l 519 987 l 629 987 l 763 987 l 873 987 l 873 901 l 763 882 l 763 104 l 820 104 q 931 153 892 105 q 972 286 970 201 q 963 395 973 338 q 932 505 952 452 l 1061 505 q 1095 386 1083 437 q 1106 286 1107 335 q 1021 74 1103 148 q 820 0 939 0 l 386 0 m 629 104 l 629 492 l 386 492 q 236 438 286 492 q 187 302 187 384 q 236 162 187 219 q 386 104 286 104 l 629 104 z "},"ԃ":{"ha":1173,"x_min":57,"x_max":1111,"o":"m 669 1058 l 669 234 q 698 130 667 170 q 781 90 729 90 q 923 162 873 91 q 975 359 972 233 q 965 493 976 425 q 935 631 955 562 l 1064 632 q 1099 485 1086 549 q 1109 359 1111 421 q 1013 82 1107 178 q 781 -14 920 -14 q 645 13 700 -16 q 562 105 590 42 q 471 16 526 46 q 342 -14 416 -14 q 133 83 208 -14 q 57 339 57 180 l 57 353 q 133 639 57 530 q 344 747 208 747 q 452 726 405 747 q 535 665 500 705 l 535 953 l 425 972 l 425 1058 l 535 1058 l 669 1058 m 535 553 q 470 616 509 593 q 378 639 431 639 q 236 559 281 639 q 191 353 191 480 l 191 339 q 236 161 191 228 q 376 94 281 94 q 473 119 433 94 q 539 189 513 144 q 536 211 537 199 q 535 234 535 222 l 535 553 z "},"Ԅ":{"ha":1063,"x_min":33,"x_max":1013,"o":"m 492 251 q 445 380 492 331 q 321 429 399 429 l 191 429 l 191 534 l 283 534 q 446 577 396 534 q 496 708 496 619 q 453 837 496 791 q 321 882 411 882 q 221 868 265 882 q 149 831 177 854 l 140 715 l 33 715 l 33 878 q 154 958 81 929 q 321 987 228 987 q 550 915 470 987 q 629 707 629 843 q 590 575 629 631 q 475 486 550 519 q 590 399 555 458 q 625 252 625 339 l 625 206 q 652 122 625 155 q 724 90 679 90 q 836 163 796 91 q 879 359 876 235 q 874 446 879 401 q 862 537 870 491 l 801 546 l 801 632 l 967 632 q 1002 480 990 541 q 1013 359 1013 420 q 927 82 1010 179 q 724 -14 845 -14 q 556 37 616 -16 q 492 206 497 90 l 492 251 z "},"ԅ":{"ha":979,"x_min":22,"x_max":898,"o":"m 850 500 q 886 382 873 431 q 897 284 898 332 q 815 60 893 138 q 623 -18 737 -18 q 482 19 529 -20 q 431 145 435 58 l 431 196 q 396 271 431 244 q 294 298 360 298 l 151 298 l 149 402 l 274 402 q 392 436 353 402 q 431 524 431 470 q 399 610 431 578 q 300 642 367 642 q 194 607 234 642 q 155 516 155 573 l 27 516 l 26 520 q 99 680 22 614 q 300 746 176 746 q 496 689 427 746 q 566 528 566 631 q 532 429 566 472 q 436 359 499 386 q 535 299 505 340 q 566 197 566 257 l 566 145 q 578 101 565 117 q 623 86 591 86 q 725 139 689 87 q 763 284 760 191 q 760 343 763 313 q 750 405 756 374 l 685 414 l 685 500 l 850 500 l 850 500 z "},"Ԇ":{"ha":753,"x_min":18,"x_max":707,"o":"m 177 429 l 177 533 l 269 533 q 432 576 382 533 q 481 708 481 619 q 439 836 481 790 q 307 882 397 882 q 207 867 251 882 q 135 830 163 853 l 125 714 l 18 714 l 19 878 q 140 957 66 928 q 307 986 214 986 q 536 915 456 986 q 615 707 615 843 q 575 574 615 630 q 460 485 536 518 q 576 398 541 458 q 612 252 612 338 l 612 159 q 622 77 612 113 q 658 17 633 40 l 658 0 l 520 0 q 485 68 492 24 q 478 161 478 113 l 478 250 q 432 379 478 330 q 307 429 385 429 l 177 429 m 707 43 q 673 -96 707 -23 q 584 -216 640 -168 l 509 -166 q 557 -66 541 -117 q 573 41 573 -16 l 573 144 l 707 144 l 707 43 z "},"ԇ":{"ha":694,"x_min":14,"x_max":627,"o":"m 143 298 l 142 401 l 267 401 q 385 435 346 401 q 424 524 424 469 q 392 610 424 578 q 292 641 359 642 q 187 607 227 641 q 148 515 148 572 l 20 515 l 18 519 q 91 680 14 613 q 292 746 168 746 q 488 688 418 746 q 558 528 558 631 q 524 428 558 471 q 427 358 490 384 q 527 294 496 338 q 557 182 557 249 l 557 117 q 567 57 557 86 q 600 13 577 28 l 600 0 l 463 0 q 431 49 437 16 q 424 117 424 83 l 424 182 q 388 267 424 236 q 286 298 352 298 l 143 298 m 627 33 q 593 -106 627 -33 q 504 -227 560 -178 l 429 -176 q 477 -77 460 -127 q 493 31 493 -26 l 493 134 l 627 134 l 627 33 z "},"Ԉ":{"ha":1347,"x_min":37,"x_max":1284,"o":"m 709 882 l 389 882 l 389 521 q 316 125 389 251 q 73 0 243 0 l 37 0 l 37 104 l 65 104 q 211 202 165 104 q 256 521 256 300 l 256 882 l 145 901 l 145 987 l 843 987 l 954 987 l 954 901 l 843 882 l 843 234 q 873 130 842 170 q 956 90 903 90 q 1097 162 1047 91 q 1149 359 1147 233 q 1145 447 1149 402 q 1132 537 1141 492 l 1071 546 l 1071 631 l 1109 631 l 1238 632 q 1272 485 1260 549 q 1283 359 1284 421 q 1187 82 1280 178 q 956 -14 1093 -14 q 777 44 840 -16 q 709 234 714 104 l 709 882 z "},"ԉ":{"ha":1157,"x_min":44,"x_max":1085,"o":"m 551 628 l 342 628 l 342 422 q 282 103 342 207 q 83 0 222 0 l 44 0 l 46 114 l 75 115 q 178 186 147 115 q 209 422 209 258 l 209 629 l 98 648 l 98 734 l 795 734 l 795 648 l 684 629 l 684 234 q 714 130 684 170 q 797 90 745 90 q 908 154 869 91 q 950 329 947 218 q 946 411 950 370 q 934 493 942 452 l 873 502 l 873 587 l 1038 587 q 1073 447 1061 506 q 1084 329 1085 387 q 999 75 1081 163 q 797 -14 917 -14 q 619 44 682 -16 q 551 234 556 104 l 551 628 z "},"Ԋ":{"ha":1400,"x_min":47,"x_max":1343,"o":"m 47 85 l 158 104 l 158 882 l 47 901 l 47 987 l 292 987 l 402 987 l 402 901 l 292 882 l 292 541 l 768 541 l 768 882 l 657 901 l 657 987 l 768 987 l 1012 987 l 1012 901 l 901 882 l 901 234 q 931 130 901 170 q 1014 90 962 90 q 1156 162 1105 91 q 1208 359 1206 233 q 1204 447 1208 402 q 1191 537 1200 492 l 1131 546 l 1131 631 l 1167 631 l 1296 632 q 1331 485 1319 548 q 1342 359 1343 421 q 1245 82 1339 178 q 1014 -14 1152 -14 q 836 44 899 -16 q 768 234 773 104 l 768 436 l 292 436 l 292 104 l 402 85 l 402 0 l 47 0 l 47 85 z "},"ԋ":{"ha":1247,"x_min":61,"x_max":1174,"o":"m 61 85 l 172 104 l 172 629 l 61 648 l 61 734 l 416 734 l 416 648 l 305 629 l 305 416 l 639 416 l 639 629 l 528 648 l 528 734 l 639 734 l 883 734 l 883 648 l 772 629 l 772 234 q 802 130 772 170 q 885 90 833 90 q 997 154 957 91 q 1039 329 1036 218 q 1029 456 1040 391 q 998 587 1019 522 l 1126 587 q 1162 446 1149 504 q 1173 329 1174 387 q 1088 75 1170 163 q 885 -14 1006 -14 q 707 44 770 -16 q 639 234 644 104 l 639 312 l 305 312 l 305 104 l 416 85 l 416 0 l 61 0 l 61 85 z "},"Ԍ":{"ha":856,"x_min":77,"x_max":799,"o":"m 760 533 q 793 370 788 399 q 798 288 799 341 q 702 64 795 142 q 470 -14 608 -14 q 186 104 296 -14 q 77 405 77 222 l 77 583 q 186 883 77 764 q 470 1002 296 1002 q 606 986 546 1002 q 713 942 667 971 l 671 850 q 576 885 625 873 q 470 897 528 897 q 281 806 351 897 q 211 584 211 716 l 211 405 q 281 180 211 271 q 470 90 351 90 q 612 143 562 91 q 665 288 662 195 q 661 360 665 323 q 651 438 658 398 l 593 447 l 593 533 l 760 533 l 760 533 z "},"ԍ":{"ha":725,"x_min":71,"x_max":659,"o":"m 641 364 q 654 279 650 318 q 659 204 659 240 q 587 41 656 97 q 406 -14 518 -14 q 160 92 250 -14 q 71 353 71 198 l 71 381 q 157 641 71 534 q 392 747 243 747 q 503 735 455 747 q 583 703 551 724 l 553 603 q 479 632 521 621 q 392 642 438 642 q 251 564 298 642 q 204 381 204 486 l 204 353 q 255 168 204 245 q 406 90 305 90 q 497 119 471 91 q 526 204 524 147 q 525 237 526 220 q 524 271 524 254 l 475 278 l 475 364 l 641 364 l 641 364 z "},"Ԏ":{"ha":1005,"x_min":52,"x_max":947,"o":"m 833 987 l 833 769 l 719 769 l 709 882 l 505 882 l 505 234 q 535 130 505 170 q 618 90 566 90 q 760 162 709 91 q 813 359 810 233 q 809 447 813 402 q 795 537 804 492 l 734 546 l 734 631 l 772 631 l 901 632 q 936 485 924 548 q 946 359 947 421 q 850 82 943 178 q 618 -14 756 -14 q 440 44 503 -16 q 372 234 377 104 l 372 882 l 176 882 l 166 769 l 52 769 l 52 987 l 833 987 z "},"ԏ":{"ha":897,"x_min":61,"x_max":808,"o":"m 676 515 l 562 515 l 551 630 l 434 630 l 434 234 q 464 130 433 170 q 547 90 494 90 q 639 132 606 91 q 674 246 671 173 q 672 285 674 265 q 669 327 671 305 l 590 337 l 590 422 l 775 422 q 800 328 791 370 q 808 246 808 286 q 730 53 805 120 q 547 -14 656 -14 q 369 44 432 -16 q 300 234 306 104 l 300 630 l 185 630 l 175 515 l 61 515 l 61 734 l 676 734 l 676 515 z "},"Ԑ":{"ha":878,"x_min":72,"x_max":836,"o":"m 72 275 q 120 419 72 361 q 260 507 168 478 q 132 595 178 539 q 87 720 87 652 q 188 928 87 855 q 463 1002 288 1002 q 718 927 614 1002 q 819 733 822 852 l 818 729 l 690 729 q 624 848 690 800 q 463 897 558 897 q 281 848 342 897 q 220 723 220 799 q 277 601 220 645 q 452 556 333 556 l 576 556 l 576 450 l 452 450 q 268 407 330 450 q 205 273 205 363 q 274 141 205 191 q 463 90 342 90 q 636 143 569 90 q 704 274 704 197 l 831 274 l 833 270 q 726 58 836 131 q 463 -14 616 -14 q 180 63 288 -14 q 72 275 72 140 z "}," ":{"ha":708,"x_min":0,"x_max":0,"o":""}," ":{"ha":1417,"x_min":0,"x_max":0,"o":""}," ":{"ha":708,"x_min":0,"x_max":0,"o":""}," ":{"ha":1417,"x_min":0,"x_max":0,"o":""}," ":{"ha":473,"x_min":0,"x_max":0,"o":""}," ":{"ha":354,"x_min":0,"x_max":0,"o":""}," ":{"ha":236,"x_min":0,"x_max":0,"o":""}," ":{"ha":781,"x_min":0,"x_max":0,"o":""}," ":{"ha":380,"x_min":0,"x_max":0,"o":""}," ":{"ha":283,"x_min":0,"x_max":0,"o":""}," ":{"ha":142,"x_min":0,"x_max":0,"o":""},"​":{"ha":0,"x_min":0,"x_max":0,"o":""},"–":{"ha":949,"x_min":109,"x_max":846,"o":"m 109 439 m 845 439 l 109 439 l 109 545 l 845 545 l 845 439 z "},"—":{"ha":1094,"x_min":112,"x_max":1018,"o":"m 112 439 m 1018 439 l 112 439 l 112 545 l 1018 545 l 1018 439 z "},"‗":{"ha":789,"x_min":83,"x_max":708,"o":"m 83 0 m 708 -277 l 83 -277 l 83 -172 l 708 -172 l 708 -277 m 708 -104 l 83 -104 l 83 0 l 708 0 l 708 -104 z "},"‘":{"ha":283,"x_min":65,"x_max":263,"o":"m 65 811 q 98 951 65 878 q 187 1071 130 1023 l 263 1021 q 215 921 231 972 q 199 813 199 871 l 199 692 l 65 692 l 65 811 z "},"’":{"ha":283,"x_min":31,"x_max":229,"o":"m 229 933 q 196 793 229 865 q 106 673 163 720 l 31 724 q 79 822 62 772 q 95 931 95 873 l 95 1058 l 229 1058 l 229 933 z "},"‚":{"ha":283,"x_min":24,"x_max":222,"o":"m 222 53 q 189 -86 222 -14 q 99 -207 155 -159 l 24 -157 q 72 -57 56 -108 q 88 51 88 -7 l 88 169 l 222 169 l 222 53 z "},"‛":{"ha":338,"x_min":28,"x_max":227,"o":"m 28 673 m 28 933 q 61 793 28 865 q 151 673 94 720 l 227 724 q 178 822 195 772 q 162 931 162 873 l 162 1058 l 28 1058 l 28 933 z "},"“":{"ha":505,"x_min":65,"x_max":484,"o":"m 65 692 m 65 811 q 98 951 65 878 q 187 1071 130 1023 l 263 1021 q 215 921 231 972 q 199 813 199 871 l 199 692 l 65 692 l 65 811 m 286 811 q 319 951 286 878 q 408 1071 351 1023 l 484 1021 q 436 921 452 972 q 420 813 420 871 l 420 692 l 286 692 l 286 811 z "},"”":{"ha":510,"x_min":39,"x_max":453,"o":"m 39 673 m 237 933 q 204 793 237 865 q 115 673 172 720 l 39 724 q 87 822 71 772 q 104 931 104 873 l 104 1058 l 237 1058 l 237 933 m 453 933 q 420 793 453 865 q 331 673 387 720 l 255 724 q 303 822 287 772 q 319 931 319 873 l 319 1058 l 453 1058 l 453 933 z "},"„":{"ha":492,"x_min":24,"x_max":430,"o":"m 222 53 q 189 -86 222 -14 q 99 -207 155 -159 l 24 -157 q 72 -57 56 -108 q 88 51 88 -7 l 88 169 l 222 169 l 222 53 m 430 53 q 397 -86 430 -14 q 307 -207 363 -159 l 232 -157 q 280 -57 264 -108 q 296 51 296 -7 l 296 169 l 430 169 l 430 53 z "},"†":{"ha":762,"x_min":43,"x_max":714,"o":"m 714 628 l 443 628 l 443 0 l 309 0 l 309 628 l 43 628 l 43 734 l 309 734 l 309 987 l 443 987 l 443 734 l 714 734 l 714 628 z "},"‡":{"ha":772,"x_min":48,"x_max":719,"o":"m 719 0 l 448 0 l 448 -282 l 314 -282 l 314 0 l 48 0 l 48 104 l 314 104 l 314 628 l 48 628 l 48 734 l 314 734 l 314 987 l 448 987 l 448 734 l 719 734 l 719 628 l 448 628 l 448 104 l 719 104 l 719 0 z "},"•":{"ha":469,"x_min":92,"x_max":372,"o":"m 92 538 q 130 635 92 597 q 231 673 168 673 q 334 635 296 673 q 372 538 372 597 l 372 497 q 334 400 372 437 q 232 363 296 363 q 130 400 168 363 q 92 497 92 437 l 92 538 z "},"‥":{"ha":635,"x_min":99,"x_max":532,"o":"m 99 0 m 233 0 l 99 0 l 99 137 l 233 137 l 233 0 m 532 0 l 399 0 l 399 137 l 532 137 l 532 0 z "},"…":{"ha":913,"x_min":99,"x_max":817,"o":"m 99 0 m 233 0 l 99 0 l 99 137 l 233 137 l 233 0 m 532 0 l 399 0 l 399 137 l 532 137 l 532 0 m 817 0 l 683 0 l 683 137 l 817 137 l 817 0 z "},"‰":{"ha":1333,"x_min":52,"x_max":1281,"o":"m 564 242 q 619 387 564 328 q 767 446 675 446 q 857 424 817 446 q 922 366 897 403 q 986 424 947 403 q 1076 446 1026 446 q 1225 387 1169 446 q 1281 242 1281 328 l 1281 189 q 1225 44 1281 102 q 1078 -14 1170 -14 q 987 6 1027 -14 q 922 64 947 27 q 857 6 897 27 q 768 -14 818 -14 q 619 44 675 -14 q 564 189 564 102 l 564 242 m 52 798 q 107 943 52 884 q 255 1002 163 1002 q 404 943 349 1002 q 460 798 460 884 l 460 745 q 404 601 460 659 q 256 543 349 543 q 107 601 163 543 q 52 745 52 659 l 52 798 m 663 189 q 690 103 663 138 q 768 68 718 68 q 846 103 819 68 q 873 189 873 138 l 873 242 q 845 328 873 292 q 767 363 817 363 q 690 328 717 363 q 663 242 663 292 l 663 189 m 972 189 q 999 103 972 138 q 1078 68 1027 68 q 1154 103 1127 68 q 1181 189 1181 138 l 1181 242 q 1154 328 1181 292 q 1076 363 1126 363 q 999 328 1026 363 q 972 242 972 292 l 972 189 m 151 745 q 178 660 151 695 q 256 625 205 625 q 333 660 306 625 q 361 745 361 694 l 361 798 q 333 883 361 848 q 255 919 305 919 q 178 883 205 919 q 151 798 151 848 l 151 745 m 300 75 l 226 120 l 708 892 l 782 846 l 300 75 z "},"‹":{"ha":402,"x_min":46,"x_max":347,"o":"m 174 373 l 347 103 l 246 103 l 46 367 l 46 380 l 246 644 l 347 644 l 174 373 z "},"›":{"ha":402,"x_min":56,"x_max":357,"o":"m 157 644 l 357 380 l 357 367 l 157 103 l 56 103 l 229 373 l 56 644 l 157 644 z "},"⁄":{"ha":610,"x_min":28,"x_max":585,"o":"m 102 75 l 28 120 l 511 892 l 585 846 l 102 75 z "},"⁴":{"ha":618,"x_min":45,"x_max":574,"o":"m 473 592 l 574 592 l 574 505 l 473 505 l 473 380 l 357 380 l 357 505 l 48 505 l 45 570 l 353 1002 l 473 1002 l 473 592 m 174 592 l 357 592 l 357 848 l 353 848 l 344 831 l 174 592 z "},"ⁿ":{"ha":637,"x_min":102,"x_max":536,"o":"m 194 984 l 215 903 q 277 970 239 946 q 361 994 314 994 q 490 943 444 994 q 536 786 536 892 l 536 441 l 414 441 l 414 764 q 390 864 414 833 q 321 895 366 895 q 261 876 286 895 q 224 826 237 858 l 224 441 l 102 441 l 102 984 l 194 984 z "},"₤":{"ha":816,"x_min":62,"x_max":767,"o":"m 309 299 q 297 192 307 243 q 269 104 287 141 l 642 104 l 653 218 l 766 218 l 766 104 l 767 104 l 766 0 l 105 0 l 105 104 l 112 104 q 158 171 142 113 q 176 299 174 230 l 62 299 l 62 404 l 173 404 l 169 501 l 62 501 l 62 606 l 165 606 l 161 705 q 237 923 161 844 q 441 1002 313 1002 q 651 931 576 1002 q 723 743 726 860 l 722 739 l 593 739 q 550 858 593 819 q 441 897 507 897 q 334 846 374 897 q 295 705 295 795 l 298 606 l 585 606 l 585 501 l 302 501 l 306 404 l 585 404 l 585 299 l 309 299 z "},"₧":{"ha":1165,"x_min":52,"x_max":1097,"o":"m 403 987 q 648 903 560 987 q 736 685 736 819 q 648 466 736 550 q 403 382 560 382 l 296 382 l 296 105 l 407 85 l 407 0 l 52 0 l 52 85 l 163 105 l 163 882 l 52 902 l 52 987 l 163 987 l 403 987 m 296 488 l 403 488 q 553 544 503 488 q 603 684 603 601 q 553 825 603 767 q 403 882 503 882 l 296 882 l 296 488 m 924 911 l 924 734 l 1063 734 l 1063 635 l 924 635 l 924 189 q 945 117 924 138 q 1002 96 966 96 q 1041 99 1019 96 q 1078 105 1063 102 l 1097 14 q 1041 -6 1078 1 q 968 -14 1004 -14 q 838 35 886 -14 q 790 189 790 84 l 790 635 l 674 635 l 674 734 l 790 734 l 790 911 l 924 911 z "},"€":{"ha":716,"x_min":48,"x_max":660,"o":"m 614 347 l 286 347 l 284 344 q 339 160 281 229 q 497 90 397 90 q 574 96 536 90 q 646 113 612 102 l 660 7 q 580 -9 622 -3 q 497 -14 538 -14 q 244 84 340 -14 q 147 347 147 182 l 48 347 l 48 431 l 147 431 l 147 544 l 48 544 l 48 629 l 147 629 l 147 639 q 243 903 147 804 q 496 1002 339 1002 q 575 996 536 1002 q 660 981 615 991 l 646 873 q 572 890 610 884 q 496 897 534 897 q 339 827 397 897 q 281 640 281 757 l 281 629 l 614 629 l 614 544 l 281 544 l 281 431 l 614 431 l 614 347 z "},"℅":{"ha":972,"x_min":54,"x_max":926,"o":"m 429 716 l 430 712 q 382 592 433 641 q 245 543 331 543 q 106 601 158 543 q 54 745 54 659 l 54 798 q 105 943 54 884 q 244 1002 157 1002 q 381 951 330 1002 q 430 831 433 901 l 429 827 l 335 827 q 312 892 335 866 q 244 919 288 919 q 176 883 200 919 q 153 798 153 848 l 153 745 q 177 660 153 695 q 245 625 201 625 q 312 652 288 625 q 335 716 335 680 l 429 716 m 518 189 q 574 44 518 102 q 724 -14 630 -14 q 871 44 815 -14 q 926 189 926 102 l 926 242 q 870 387 926 328 q 722 446 814 446 q 574 387 629 446 q 518 242 518 328 l 518 189 m 618 242 q 645 328 618 292 q 722 363 672 363 q 800 328 772 363 q 827 242 827 292 l 827 189 q 800 103 827 138 q 724 68 773 68 q 645 103 672 68 q 618 189 618 138 l 618 242 m 774 846 l 701 892 l 218 120 l 292 75 l 774 846 z "},"ℓ":{"ha":630,"x_min":44,"x_max":571,"o":"m 459 -9 l 455 -10 q 250 68 320 -13 q 180 292 180 149 l 180 300 q 113 288 147 292 q 44 284 79 284 l 44 406 q 115 411 81 406 q 180 424 149 415 l 180 745 q 234 933 180 865 q 382 1002 288 1002 q 518 943 465 1002 q 571 787 571 885 l 571 759 q 502 537 571 652 q 314 354 433 422 l 314 292 q 347 144 314 194 q 459 95 380 95 l 459 -9 m 437 758 l 437 787 q 422 865 437 839 q 382 892 407 892 q 331 855 348 892 q 314 745 314 818 l 314 502 l 318 501 q 407 614 376 545 q 437 758 437 684 l 437 758 z "},"№":{"ha":1553,"x_min":26,"x_max":1510,"o":"m 1466 245 l 1086 245 l 1086 343 l 1466 343 l 1466 245 m 1042 771 q 1105 935 1042 871 q 1276 998 1168 998 q 1447 935 1383 998 q 1510 771 1510 871 l 1510 692 q 1447 528 1510 591 q 1277 465 1383 465 q 1105 528 1169 465 q 1042 692 1042 591 l 1042 771 m 1158 692 q 1188 597 1158 633 q 1277 561 1219 561 q 1363 597 1333 561 q 1394 692 1394 633 l 1394 771 q 1363 865 1394 828 q 1276 901 1333 901 q 1188 865 1219 901 q 1158 771 1158 828 l 1158 692 m 993 987 l 993 901 l 882 882 l 882 0 l 749 0 l 274 762 l 270 761 l 270 104 l 380 85 l 380 0 l 26 0 l 26 85 l 136 104 l 136 882 l 26 901 l 26 987 l 136 987 l 270 987 l 745 226 l 749 227 l 749 882 l 638 901 l 638 987 l 882 987 l 993 987 z "},"™":{"ha":852,"x_min":66,"x_max":756,"o":"m 692 854 l 688 856 l 587 623 l 552 623 l 447 865 l 443 865 l 443 623 l 380 623 l 380 987 l 458 987 l 567 723 l 571 723 l 682 987 l 756 987 l 756 623 l 692 623 l 692 854 m 327 932 l 228 932 l 228 623 l 164 623 l 164 932 l 66 932 l 66 987 l 327 987 l 327 932 z "},"℮":{"ha":813,"x_min":66,"x_max":757,"o":"m 672 64 q 549 6 613 26 q 421 -14 486 -14 q 170 98 273 -14 q 66 367 66 210 q 175 634 66 520 q 421 747 285 747 q 659 642 562 747 q 757 380 757 537 l 757 349 l 236 349 l 236 126 q 321 71 273 90 q 421 52 369 52 q 549 72 486 52 q 671 134 612 92 l 672 64 m 421 684 q 323 662 371 684 q 236 601 275 640 l 236 413 l 602 413 l 602 607 q 518 663 566 642 q 421 684 471 684 z "},"⅛":{"ha":1116,"x_min":73,"x_max":1097,"o":"m 73 0 m 277 438 l 159 438 l 159 882 l 73 882 l 73 973 l 277 989 l 277 438 m 281 75 l 207 120 l 689 892 l 763 846 l 281 75 m 1081 401 q 1056 331 1081 361 q 989 281 1031 300 q 1068 229 1038 262 q 1097 153 1097 195 q 1035 35 1097 77 q 877 -7 972 -7 q 713 35 778 -7 q 648 153 648 77 q 677 229 648 195 q 760 282 707 263 q 690 331 715 300 q 665 401 665 361 q 724 512 665 473 q 876 551 784 551 q 1023 512 964 551 q 1081 401 1081 473 m 981 157 q 950 215 981 192 q 876 237 920 237 q 796 215 829 237 q 763 157 763 193 q 795 101 763 122 q 877 81 828 81 q 951 101 921 81 q 981 157 981 122 m 964 395 q 938 444 964 426 q 876 462 913 462 q 808 444 835 462 q 781 395 781 427 q 808 345 781 364 q 877 326 836 326 q 938 345 913 326 q 964 395 964 364 z "},"⅜":{"ha":1215,"x_min":74,"x_max":1200,"o":"m 74 0 m 290 767 q 357 786 336 767 q 379 841 379 806 q 355 890 379 871 q 283 909 330 909 q 222 893 245 909 q 198 850 198 877 l 88 850 l 87 854 q 140 958 83 918 q 283 998 197 998 q 439 958 382 998 q 496 843 496 918 q 472 775 496 806 q 406 726 448 744 q 479 678 454 710 q 505 600 505 646 q 444 482 505 524 q 283 440 382 440 q 136 479 197 440 q 78 594 74 519 l 79 598 l 189 598 q 215 548 189 567 q 283 528 240 528 q 360 548 332 528 q 389 601 389 568 q 364 663 389 644 q 290 682 340 682 l 200 682 l 200 767 l 290 767 m 405 75 l 331 120 l 813 892 l 887 846 l 405 75 m 1183 401 q 1159 331 1183 361 q 1091 281 1134 300 q 1170 229 1141 262 q 1200 153 1200 195 q 1137 35 1200 77 q 979 -7 1074 -7 q 815 35 880 -7 q 750 153 750 77 q 780 229 750 195 q 862 282 810 263 q 792 331 817 300 q 767 401 767 361 q 827 512 767 473 q 979 551 886 551 q 1125 512 1067 551 q 1183 401 1183 473 m 1084 157 q 1053 215 1084 192 q 979 237 1022 237 q 898 215 931 237 q 865 157 865 193 q 898 101 865 122 q 979 81 930 81 q 1054 101 1023 81 q 1084 157 1084 122 m 1066 395 q 1041 444 1066 426 q 979 462 1015 462 q 910 444 937 462 q 883 395 883 427 q 911 345 883 364 q 979 326 939 326 q 1041 345 1015 326 q 1066 395 1066 364 z "},"⅝":{"ha":1251,"x_min":74,"x_max":1232,"o":"m 74 0 m 96 678 l 131 987 l 481 987 l 481 897 l 235 897 l 218 771 q 264 791 237 783 q 319 800 291 800 q 460 752 409 802 q 511 616 511 703 q 457 485 511 534 q 290 436 403 436 q 136 473 197 436 q 78 583 74 511 l 79 587 l 189 593 q 216 543 189 561 q 290 524 244 524 q 369 548 343 524 q 395 616 395 571 q 369 688 395 661 q 297 715 342 715 q 230 704 253 715 q 197 672 208 692 l 96 678 m 443 75 l 369 120 l 851 892 l 925 846 l 443 75 m 1215 401 q 1191 331 1215 361 q 1123 281 1166 300 q 1202 229 1173 262 q 1232 153 1232 195 q 1169 35 1232 77 q 1011 -7 1106 -7 q 847 35 912 -7 q 782 153 782 77 q 812 229 782 195 q 894 282 842 263 q 824 331 849 300 q 799 401 799 361 q 859 512 799 473 q 1010 551 918 551 q 1157 512 1099 551 q 1215 401 1215 473 m 1116 157 q 1085 215 1116 192 q 1010 237 1054 237 q 930 215 963 237 q 897 157 897 193 q 930 101 897 122 q 1011 81 962 81 q 1085 101 1055 81 q 1116 157 1116 122 m 1098 395 q 1073 444 1098 426 q 1010 462 1047 462 q 942 444 969 462 q 915 395 915 427 q 943 345 915 364 q 1011 326 970 326 q 1073 345 1047 326 q 1098 395 1098 364 z "},"⅞":{"ha":1136,"x_min":73,"x_max":1119,"o":"m 73 0 m 472 898 q 343 722 381 791 q 306 530 306 653 l 306 444 l 189 444 l 189 530 q 242 747 189 652 q 354 898 294 841 l 73 898 l 73 987 l 472 987 l 472 898 m 313 75 l 239 120 l 721 892 l 795 846 l 313 75 m 1103 401 q 1078 331 1103 361 q 1010 281 1053 300 q 1089 229 1060 262 q 1119 153 1119 195 q 1056 35 1119 77 q 899 -7 994 -7 q 734 35 800 -7 q 669 153 669 77 q 699 229 669 195 q 781 282 729 263 q 711 331 736 300 q 686 401 686 361 q 746 512 686 473 q 898 551 806 551 q 1044 512 986 551 q 1103 401 1103 473 m 1003 157 q 972 215 1003 192 q 898 237 941 237 q 818 215 850 237 q 785 157 785 193 q 817 101 785 122 q 899 81 850 81 q 973 101 943 81 q 1003 157 1003 122 m 985 395 q 960 444 985 426 q 898 462 935 462 q 829 444 857 462 q 802 395 802 427 q 830 345 802 364 q 899 326 858 326 q 960 345 935 326 q 985 395 985 364 z "},"∂":{"ha":808,"x_min":53,"x_max":731,"o":"m 333 1030 q 622 848 512 987 q 731 507 731 710 l 731 363 q 633 91 731 197 q 390 -14 536 -14 q 148 81 242 -14 q 53 316 53 176 q 138 569 53 474 q 370 663 222 663 q 491 644 435 663 q 585 589 548 624 l 587 592 q 491 803 572 723 q 292 919 411 884 l 333 1030 m 393 90 q 540 168 483 90 q 597 363 597 245 l 597 450 q 515 527 573 496 q 370 558 456 558 q 232 490 278 558 q 186 316 186 422 q 242 158 186 227 q 393 90 298 90 z "},"∏":{"ha":1049,"x_min":41,"x_max":1008,"o":"m 1008 901 l 897 882 l 897 -143 l 764 -143 l 764 882 l 285 882 l 285 -143 l 151 -143 l 151 882 l 41 901 l 41 987 l 1008 987 l 1008 901 z "},"∑":{"ha":840,"x_min":47,"x_max":811,"o":"m 602 391 l 209 -74 l 210 -77 l 687 -77 l 697 35 l 811 35 l 811 -182 l 47 -182 l 47 -83 l 460 400 l 47 888 l 47 987 l 758 987 l 758 769 l 644 769 l 633 882 l 210 882 l 208 879 l 602 408 l 602 391 z "},"−":{"ha":775,"x_min":104,"x_max":671,"o":"m 671 439 l 104 439 l 104 545 l 671 545 l 671 439 z "},"√":{"ha":838,"x_min":41,"x_max":810,"o":"m 374 231 l 387 174 l 391 174 l 404 231 l 674 987 l 810 987 l 438 0 l 337 0 l 169 426 l 41 426 l 41 532 l 264 532 l 374 231 z "},"∞":{"ha":1425,"x_min":72,"x_max":1343,"o":"m 1343 344 q 1259 89 1343 191 q 1035 -14 1174 -14 q 842 59 922 -14 q 707 237 761 132 q 572 59 652 132 q 380 -14 491 -14 q 156 89 241 -14 q 72 344 72 191 l 72 389 q 156 644 72 541 q 379 747 240 747 q 571 674 490 747 q 707 496 652 601 q 842 674 761 600 q 1036 747 924 747 q 1259 644 1174 747 q 1343 389 1343 540 l 1343 344 m 205 344 q 250 159 205 229 q 380 90 294 90 q 545 185 473 90 q 635 353 617 279 l 635 381 q 544 547 616 452 q 379 642 472 642 q 250 572 294 642 q 205 389 205 502 l 205 344 m 1209 389 q 1164 572 1209 502 q 1036 642 1120 642 q 870 548 942 642 q 779 381 798 454 l 779 353 q 869 184 797 279 q 1035 90 941 90 q 1164 160 1120 90 q 1209 344 1209 229 l 1209 389 z "},"∫":{"ha":461,"x_min":-61,"x_max":433,"o":"m 235 -60 q 177 -235 235 -174 q 15 -296 119 -296 q -23 -293 -5 -296 q -61 -284 -41 -290 l -52 -182 q -20 -189 -42 -186 q 15 -191 3 -191 q 78 -156 55 -191 q 102 -60 102 -121 l 102 827 q 163 1008 102 944 q 334 1072 224 1072 q 381 1068 357 1072 q 433 1058 404 1065 l 416 960 q 388 965 403 963 q 356 967 373 967 q 266 930 297 967 q 235 827 235 893 l 235 -60 l 235 -60 z "},"≈":{"ha":806,"x_min":87,"x_max":728,"o":"m 94 593 q 168 665 126 639 q 254 692 210 692 q 323 684 301 692 q 413 642 345 676 q 494 604 471 612 q 561 595 516 595 q 646 622 604 595 q 721 694 688 648 l 728 576 q 653 504 695 530 q 568 477 611 477 q 500 486 523 477 q 420 524 478 494 q 330 566 351 558 q 261 574 308 574 q 175 547 217 574 q 101 475 133 521 l 94 593 m 87 303 q 161 376 119 349 q 248 402 203 402 q 316 395 294 403 q 406 353 338 387 q 488 313 467 321 q 554 305 510 305 q 640 331 597 305 q 714 405 682 357 l 721 286 q 646 213 688 239 q 561 187 604 187 q 494 196 516 187 q 413 234 471 204 q 321 277 342 269 q 254 284 300 285 q 168 258 210 284 q 94 184 126 231 l 87 303 z "},"≠":{"ha":707,"x_min":100,"x_max":665,"o":"m 530 669 l 665 669 l 665 558 l 468 558 l 373 387 l 665 387 l 665 276 l 311 276 l 220 112 l 161 153 l 230 276 l 100 276 l 100 387 l 292 387 l 387 558 l 100 558 l 100 669 l 448 669 l 547 847 l 606 806 l 530 669 z "},"≤":{"ha":712,"x_min":101,"x_max":667,"o":"m 101 1 m 285 478 l 227 467 l 227 463 l 285 451 l 664 312 l 664 189 l 111 421 l 111 512 l 664 742 l 664 620 l 285 478 m 667 1 l 101 1 l 101 106 l 667 106 l 667 1 z "},"≥":{"ha":727,"x_min":97,"x_max":677,"o":"m 97 0 m 97 623 l 97 742 l 677 512 l 677 421 l 97 189 l 97 309 l 503 454 l 559 465 l 559 468 l 503 481 l 97 623 m 667 0 l 101 0 l 101 105 l 667 105 l 667 0 z "},"◊":{"ha":713,"x_min":37,"x_max":681,"o":"m 307 987 l 408 987 l 681 493 l 411 0 l 310 0 l 37 493 l 307 987 m 545 493 l 371 840 l 359 876 l 355 876 l 342 840 l 174 493 l 347 146 l 359 112 l 363 112 l 376 146 l 545 493 z "},"":{"ha":353,"x_min":45,"x_max":236,"o":"m 236 86 q 206 -54 236 17 q 120 -172 176 -125 l 45 -122 q 93 -24 77 -74 q 109 84 109 26 l 109 165 l 236 165 l 236 86 z "},"ﬁ":{"ha":840,"x_min":31,"x_max":808,"o":"m 31 635 l 31 734 l 145 734 l 145 813 q 218 1004 145 937 q 418 1072 290 1072 q 508 1061 463 1072 q 611 1031 553 1050 l 589 922 q 512 947 553 937 q 429 957 471 957 q 314 922 349 957 q 279 813 279 886 l 279 734 l 697 734 l 697 104 l 808 85 l 808 0 l 453 0 l 453 85 l 564 104 l 564 635 l 279 635 l 279 104 l 389 85 l 389 0 l 35 0 l 35 85 l 145 104 l 145 635 l 31 635 z "},"ﬂ":{"ha":916,"x_min":35,"x_max":864,"o":"m 509 85 l 620 104 l 620 936 q 539 951 581 945 q 456 957 498 957 q 320 915 362 957 q 279 787 279 873 l 279 734 l 449 734 l 449 635 l 279 635 l 279 104 l 389 85 l 389 0 l 35 0 l 35 85 l 145 104 l 145 635 l 47 635 l 47 734 l 145 734 l 145 787 q 225 998 145 923 q 446 1072 304 1072 q 561 1061 504 1072 q 693 1030 618 1050 l 753 1030 l 753 104 l 864 85 l 864 0 l 509 0 l 509 85 z "},"﻿":{"ha":0,"x_min":0,"x_max":0,"o":""},"￼":{"ha":1510,"x_min":97,"x_max":1412,"o":"m 595 393 q 551 500 595 458 q 438 542 507 542 q 326 500 369 542 q 282 393 282 458 l 282 317 q 326 210 282 251 q 439 169 369 169 q 551 210 508 169 q 595 317 595 251 l 595 393 m 790 171 q 888 198 852 171 q 924 276 924 224 q 905 330 924 307 q 854 363 887 354 q 897 394 882 373 q 911 441 911 415 q 874 518 911 492 q 768 543 836 543 l 640 543 l 640 171 l 790 171 m 532 317 q 507 244 532 271 q 439 218 482 218 q 370 244 395 218 q 345 317 345 271 l 345 393 q 370 466 345 439 q 438 493 395 493 q 507 466 481 493 q 532 393 532 439 l 532 317 m 1179 288 q 1161 240 1179 258 q 1115 222 1142 222 q 1063 237 1081 222 q 1044 283 1044 252 l 987 283 l 986 279 q 1018 200 982 227 q 1115 172 1053 172 q 1206 203 1170 172 q 1242 288 1242 235 l 1242 545 l 1179 545 l 1179 288 m 97 -270 l 97 -56 l 174 -56 l 174 -193 l 307 -193 l 307 -270 l 97 -270 m 1202 -270 l 1202 -193 l 1337 -193 l 1337 -56 l 1412 -56 l 1412 -270 l 1202 -270 m 97 793 l 97 986 l 307 986 l 307 907 l 174 907 l 174 793 l 97 793 m 1202 907 l 1202 986 l 1412 986 l 1412 793 l 1337 793 l 1337 907 l 1202 907 m 790 336 l 793 336 q 843 319 825 335 q 860 278 860 304 q 842 236 860 251 q 790 222 824 222 l 705 222 l 705 336 l 790 336 m 931 907 l 931 986 l 1120 986 l 1120 907 l 931 907 m 661 907 l 661 986 l 848 986 l 848 907 l 661 907 m 390 907 l 390 986 l 577 986 l 577 907 l 390 907 m 931 -270 l 931 -193 l 1120 -193 l 1120 -270 l 931 -270 m 661 -270 l 661 -193 l 848 -193 l 848 -270 l 661 -270 m 390 -270 l 390 -193 l 577 -193 l 577 -270 l 390 -270 m 705 486 l 768 486 q 828 475 809 486 q 848 438 848 465 q 827 397 848 411 q 768 384 807 384 l 705 384 l 705 486 m 174 282 l 97 282 l 97 453 l 174 453 l 174 282 m 174 538 l 97 538 l 97 708 l 174 708 l 174 538 m 174 28 l 97 28 l 97 197 l 174 197 l 174 28 m 1412 282 l 1337 282 l 1337 453 l 1412 453 l 1412 282 m 1412 538 l 1337 538 l 1337 708 l 1412 708 l 1412 538 m 1412 28 l 1337 28 l 1337 197 l 1412 197 l 1412 28 z "},"�":{"ha":1342,"x_min":24,"x_max":1322,"o":"m 672 1097 l 1322 436 l 672 -225 l 24 436 l 672 1097 m 728 273 q 737 329 728 309 q 773 368 746 350 q 854 438 822 394 q 886 536 886 483 q 828 674 886 623 q 671 725 771 725 q 523 681 579 725 q 468 549 466 637 l 470 545 l 602 545 q 622 597 602 579 q 671 614 642 614 q 728 593 708 614 q 748 536 748 572 q 731 476 748 502 q 685 431 713 450 q 611 363 631 393 q 591 273 591 332 l 728 273 m 728 211 l 591 211 l 591 96 l 728 96 l 728 211 m 677 -374 l 680 -374 l 680 -376 l 677 -376 l 677 -374 m 676 1455 l 679 1455 l 679 1453 l 676 1453 l 676 1455 z "}," ":{"ha":345,"x_min":0,"x_max":0,"o":"z "},"­":{"ha":541,"x_min":104,"x_max":436,"o":"m 104 365 m 436 365 l 104 365 l 104 469 l 436 469 l 436 365 z "},"Đ":{"ha":983,"x_min":45,"x_max":911,"o":"m 482 987 q 793 868 675 987 q 911 561 911 749 l 911 426 q 793 118 911 237 q 482 0 675 0 l 68 0 l 68 85 l 179 104 l 179 450 l 45 450 l 45 555 l 179 555 l 179 882 l 68 901 l 68 987 l 482 987 m 479 450 l 313 450 l 313 104 l 482 104 q 698 195 619 104 q 777 426 777 285 l 777 562 q 698 792 777 702 q 482 882 619 882 l 313 882 l 313 555 l 479 555 l 479 450 z "},"Ð":{"ha":983,"x_min":45,"x_max":911,"o":"m 482 987 q 793 868 675 987 q 911 561 911 749 l 911 426 q 793 118 911 237 q 482 0 675 0 l 68 0 l 68 85 l 179 104 l 179 450 l 45 450 l 45 555 l 179 555 l 179 882 l 68 901 l 68 987 l 482 987 m 479 450 l 313 450 l 313 104 l 482 104 q 698 195 619 104 q 777 426 777 285 l 777 562 q 698 792 777 702 q 482 882 619 882 l 313 882 l 313 555 l 479 555 l 479 450 z "},"ħ":{"ha":917,"x_min":35,"x_max":880,"o":"m 62 85 l 173 104 l 173 783 l 35 783 l 35 888 l 173 888 l 173 953 l 62 972 l 62 1058 l 307 1058 l 307 888 l 469 888 l 469 783 l 307 783 l 307 636 q 399 718 345 689 q 522 747 454 747 q 705 677 640 747 q 770 460 770 606 l 770 104 l 880 85 l 880 0 l 526 0 l 526 85 l 636 104 l 636 461 q 597 595 636 552 q 481 639 558 639 q 381 613 426 639 q 307 542 336 587 l 307 104 l 417 85 l 417 0 l 62 0 l 62 85 z "},"Ŧ":{"ha":871,"x_min":25,"x_max":846,"o":"m 846 987 l 846 769 l 732 769 l 722 882 l 503 882 l 503 610 l 659 610 l 659 505 l 503 505 l 503 104 l 613 85 l 613 0 l 258 0 l 258 85 l 369 104 l 369 505 l 224 505 l 224 610 l 369 610 l 369 882 l 149 882 l 140 769 l 25 769 l 25 987 l 846 987 z "},"ŧ":{"ha":509,"x_min":-1,"x_max":467,"o":"m 294 911 l 294 734 l 433 734 l 433 635 l 294 635 l 294 512 l 433 512 l 433 407 l 294 407 l 294 189 q 315 117 294 138 q 372 96 336 96 q 411 99 389 96 q 448 105 433 102 l 467 14 q 411 -6 448 1 q 338 -14 374 -14 q 208 35 256 -14 q 160 189 160 84 l 160 407 l -1 407 l -1 512 l 160 512 l 160 635 l 44 635 l 44 734 l 160 734 l 160 911 l 294 911 z "},"À":{"ha":1017,"x_min":37,"x_max":982,"o":"m 37 0 m 37 85 l 111 96 l 456 987 l 570 987 l 909 96 l 982 85 l 982 0 l 699 0 l 699 85 l 773 98 l 708 280 l 313 280 l 245 98 l 320 85 l 320 0 l 37 0 l 37 85 m 354 392 l 667 392 l 514 816 l 510 816 l 354 392 m 572 1057 l 464 1057 l 295 1234 l 297 1238 l 453 1238 l 572 1057 z "},"Á":{"ha":1017,"x_min":37,"x_max":982,"o":"m 37 0 m 37 85 l 111 96 l 456 987 l 570 987 l 909 96 l 982 85 l 982 0 l 699 0 l 699 85 l 773 98 l 708 280 l 313 280 l 245 98 l 320 85 l 320 0 l 37 0 l 37 85 m 354 392 l 667 392 l 514 816 l 510 816 l 354 392 m 553 1236 l 709 1236 l 710 1232 l 528 1055 l 428 1055 l 553 1236 z "},"Â":{"ha":1017,"x_min":37,"x_max":982,"o":"m 37 0 m 37 85 l 111 96 l 456 987 l 570 987 l 909 96 l 982 85 l 982 0 l 699 0 l 699 85 l 773 98 l 708 280 l 313 280 l 245 98 l 320 85 l 320 0 l 37 0 l 37 85 m 354 392 l 667 392 l 514 816 l 510 816 l 354 392 m 722 1093 l 722 1076 l 613 1076 l 513 1177 l 415 1076 l 307 1076 l 307 1094 l 473 1255 l 554 1255 l 722 1093 z "},"Ã":{"ha":1017,"x_min":37,"x_max":982,"o":"m 37 0 m 37 85 l 111 96 l 456 987 l 570 987 l 909 96 l 982 85 l 982 0 l 699 0 l 699 85 l 773 98 l 708 280 l 313 280 l 245 98 l 320 85 l 320 0 l 37 0 l 37 85 m 354 392 l 667 392 l 514 816 l 510 816 l 354 392 m 743 1250 q 702 1142 743 1186 q 601 1098 662 1098 q 500 1129 553 1098 q 414 1161 448 1161 q 365 1139 385 1161 q 345 1086 345 1117 l 273 1103 q 312 1213 273 1166 q 414 1259 352 1259 q 509 1227 452 1259 q 601 1196 566 1196 q 649 1218 629 1196 q 669 1272 669 1240 l 743 1250 z "},"Ä":{"ha":1017,"x_min":37,"x_max":982,"o":"m 37 0 m 37 85 l 111 96 l 456 987 l 570 987 l 909 96 l 982 85 l 982 0 l 699 0 l 699 85 l 773 98 l 708 280 l 313 280 l 245 98 l 320 85 l 320 0 l 37 0 l 37 85 m 354 392 l 667 392 l 514 816 l 510 816 l 354 392 m 734 1088 l 587 1088 l 587 1223 l 734 1223 l 734 1088 m 416 1088 l 268 1088 l 268 1223 l 416 1223 l 416 1088 z "},"Å":{"ha":1017,"x_min":37,"x_max":982,"o":"m 37 0 m 37 85 l 111 96 l 456 987 l 570 987 l 909 96 l 982 85 l 982 0 l 699 0 l 699 85 l 773 98 l 708 280 l 313 280 l 245 98 l 320 85 l 320 0 l 37 0 l 37 85 m 354 392 l 667 392 l 514 816 l 510 816 l 354 392 m 376 1177 q 417 1272 376 1234 q 517 1311 458 1311 q 616 1273 575 1311 q 656 1177 656 1234 q 616 1082 656 1118 q 517 1045 575 1045 q 417 1082 458 1045 q 376 1177 376 1118 m 446 1177 q 467 1127 446 1147 q 517 1106 488 1106 q 566 1126 546 1106 q 587 1177 587 1146 q 566 1228 587 1207 q 517 1249 546 1249 q 467 1228 488 1249 q 446 1177 446 1207 z "},"Ǻ":{"ha":1017,"x_min":37,"x_max":982,"o":"m 37 0 m 37 85 l 111 96 l 456 987 l 570 987 l 909 96 l 982 85 l 982 0 l 699 0 l 699 85 l 773 98 l 708 280 l 313 280 l 245 98 l 320 85 l 320 0 l 37 0 l 37 85 m 354 392 l 667 392 l 514 816 l 510 816 l 354 392 m 584 1324 l 713 1324 l 714 1320 l 568 1200 l 487 1200 l 584 1324 m 398 1053 q 433 1134 398 1102 q 516 1166 467 1166 q 598 1134 564 1166 q 632 1053 632 1102 q 598 973 632 1004 q 516 942 564 942 q 432 973 467 942 q 398 1053 398 1004 m 457 1053 q 474 1013 457 1029 q 516 996 492 996 q 556 1013 539 996 q 572 1053 572 1029 q 556 1096 572 1078 q 516 1113 539 1113 q 474 1096 492 1113 q 457 1053 457 1078 z "},"Ç":{"ha":896,"x_min":48,"x_max":814,"o":"m 48 0 m 814 684 l 720 684 l 694 824 q 614 876 662 856 q 501 897 567 897 q 264 785 347 897 q 182 502 182 673 l 182 486 q 263 202 182 315 q 488 90 344 90 q 610 111 555 90 q 694 163 665 132 l 720 302 l 814 302 l 814 127 q 686 29 771 72 q 488 -14 600 -14 q 172 128 295 -14 q 48 486 48 271 l 48 500 q 170 860 48 718 q 488 1002 291 1002 q 686 958 600 1002 q 814 860 771 914 l 814 684 m 525 -5 l 517 -41 q 590 -76 561 -48 q 619 -158 619 -104 q 566 -262 619 -223 q 412 -300 512 -300 l 408 -227 q 486 -210 456 -227 q 515 -160 515 -193 q 491 -115 515 -127 q 408 -97 467 -102 l 429 -5 l 525 -5 z "},"È":{"ha":886,"x_min":48,"x_max":814,"o":"m 48 0 m 48 0 l 48 85 l 159 104 l 159 882 l 48 901 l 48 987 l 806 987 l 806 750 l 692 750 l 681 882 l 292 882 l 292 563 l 670 563 l 670 458 l 292 458 l 292 104 l 689 104 l 700 237 l 814 237 l 814 0 l 48 0 m 500 1058 l 392 1058 l 223 1234 l 225 1238 l 381 1238 l 500 1058 z "},"É":{"ha":886,"x_min":48,"x_max":814,"o":"m 48 0 m 48 0 l 48 85 l 159 104 l 159 882 l 48 901 l 48 987 l 806 987 l 806 750 l 692 750 l 681 882 l 292 882 l 292 563 l 670 563 l 670 458 l 292 458 l 292 104 l 689 104 l 700 237 l 814 237 l 814 0 l 48 0 m 481 1236 l 637 1236 l 638 1232 l 456 1056 l 356 1056 l 481 1236 z "},"Ê":{"ha":886,"x_min":48,"x_max":814,"o":"m 48 0 m 48 0 l 48 85 l 159 104 l 159 882 l 48 901 l 48 987 l 806 987 l 806 750 l 692 750 l 681 882 l 292 882 l 292 563 l 670 563 l 670 458 l 292 458 l 292 104 l 689 104 l 700 237 l 814 237 l 814 0 l 48 0 m 650 1094 l 650 1077 l 541 1077 l 441 1177 l 343 1077 l 235 1077 l 235 1095 l 401 1255 l 482 1255 l 650 1094 z "},"Ë":{"ha":886,"x_min":48,"x_max":814,"o":"m 48 0 m 48 0 l 48 85 l 159 104 l 159 882 l 48 901 l 48 987 l 806 987 l 806 750 l 692 750 l 681 882 l 292 882 l 292 563 l 670 563 l 670 458 l 292 458 l 292 104 l 689 104 l 700 237 l 814 237 l 814 0 l 48 0 m 663 1088 l 515 1088 l 515 1224 l 663 1224 l 663 1088 m 344 1088 l 196 1088 l 196 1224 l 344 1224 l 344 1088 z "},"Ì":{"ha":449,"x_min":11,"x_max":402,"o":"m 11 0 m 47 901 l 47 987 l 402 987 l 402 901 l 292 882 l 292 104 l 402 85 l 402 0 l 47 0 l 47 85 l 158 104 l 158 882 l 47 901 m 288 1057 l 180 1057 l 11 1233 l 13 1237 l 169 1237 l 288 1057 z "},"Í":{"ha":449,"x_min":47,"x_max":425,"o":"m 47 0 m 47 901 l 47 987 l 402 987 l 402 901 l 292 882 l 292 104 l 402 85 l 402 0 l 47 0 l 47 85 l 158 104 l 158 882 l 47 901 m 268 1235 l 424 1235 l 425 1231 l 243 1055 l 143 1055 l 268 1235 z "},"Î":{"ha":449,"x_min":22,"x_max":438,"o":"m 22 0 m 47 901 l 47 987 l 402 987 l 402 901 l 292 882 l 292 104 l 402 85 l 402 0 l 47 0 l 47 85 l 158 104 l 158 882 l 47 901 m 438 1093 l 438 1076 l 329 1076 l 229 1176 l 131 1076 l 22 1076 l 22 1093 l 189 1254 l 270 1254 l 438 1093 z "},"Ï":{"ha":449,"x_min":-16,"x_max":450,"o":"m 0 0 m 47 901 l 47 987 l 402 987 l 402 901 l 292 882 l 292 104 l 402 85 l 402 0 l 47 0 l 47 85 l 158 104 l 158 882 l 47 901 m 450 1087 l 302 1087 l 302 1223 l 450 1223 l 450 1087 m 132 1087 l -16 1087 l -16 1223 l 132 1223 l 132 1087 z "},"Ñ":{"ha":1058,"x_min":48,"x_max":1015,"o":"m 48 0 m 1015 987 l 1015 901 l 905 882 l 905 0 l 771 0 l 296 762 l 292 761 l 292 104 l 403 85 l 403 0 l 48 0 l 48 85 l 159 104 l 159 882 l 48 901 l 48 987 l 159 987 l 292 987 l 767 226 l 771 227 l 771 882 l 661 901 l 661 987 l 905 987 l 1015 987 m 739 1251 q 698 1143 739 1187 q 597 1099 658 1099 q 496 1130 549 1099 q 410 1162 444 1162 q 361 1140 381 1162 q 341 1086 341 1118 l 269 1104 q 308 1214 269 1167 q 410 1260 348 1260 q 505 1228 448 1260 q 597 1196 562 1196 q 645 1218 625 1196 q 665 1272 665 1240 l 739 1251 z "},"Ò":{"ha":980,"x_min":54,"x_max":928,"o":"m 54 0 m 928 486 q 804 128 928 271 q 484 -14 680 -14 q 173 128 292 -14 q 54 486 54 271 l 54 500 q 173 859 54 715 q 484 1002 292 1002 q 804 859 680 1002 q 928 500 928 715 l 928 486 m 794 502 q 712 783 794 674 q 484 892 629 892 q 266 783 344 892 q 187 502 187 673 l 187 486 q 266 204 187 313 q 484 95 344 95 q 713 203 631 95 q 794 486 794 312 l 794 502 m 546 1057 l 438 1057 l 269 1234 l 271 1238 l 427 1238 l 546 1057 z "},"Ó":{"ha":980,"x_min":54,"x_max":928,"o":"m 54 0 m 928 486 q 804 128 928 271 q 484 -14 680 -14 q 173 128 292 -14 q 54 486 54 271 l 54 500 q 173 859 54 715 q 484 1002 292 1002 q 804 859 680 1002 q 928 500 928 715 l 928 486 m 794 502 q 712 783 794 674 q 484 892 629 892 q 266 783 344 892 q 187 502 187 673 l 187 486 q 266 204 187 313 q 484 95 344 95 q 713 203 631 95 q 794 486 794 312 l 794 502 m 527 1236 l 683 1236 l 684 1232 l 502 1055 l 402 1055 l 527 1236 z "},"Ô":{"ha":980,"x_min":54,"x_max":928,"o":"m 54 0 m 928 486 q 804 128 928 271 q 484 -14 680 -14 q 173 128 292 -14 q 54 486 54 271 l 54 500 q 173 859 54 715 q 484 1002 292 1002 q 804 859 680 1002 q 928 500 928 715 l 928 486 m 794 502 q 712 783 794 674 q 484 892 629 892 q 266 783 344 892 q 187 502 187 673 l 187 486 q 266 204 187 313 q 484 95 344 95 q 713 203 631 95 q 794 486 794 312 l 794 502 m 696 1093 l 696 1076 l 587 1076 l 488 1177 l 389 1076 l 281 1076 l 281 1094 l 448 1255 l 528 1255 l 696 1093 z "},"Õ":{"ha":980,"x_min":54,"x_max":928,"o":"m 54 0 m 928 486 q 804 128 928 271 q 484 -14 680 -14 q 173 128 292 -14 q 54 486 54 271 l 54 500 q 173 859 54 715 q 484 1002 292 1002 q 804 859 680 1002 q 928 500 928 715 l 928 486 m 794 502 q 712 783 794 674 q 484 892 629 892 q 266 783 344 892 q 187 502 187 673 l 187 486 q 266 204 187 313 q 484 95 344 95 q 713 203 631 95 q 794 486 794 312 l 794 502 m 717 1250 q 676 1142 717 1186 q 575 1098 636 1098 q 475 1129 527 1098 q 388 1161 422 1161 q 339 1139 359 1161 q 319 1086 319 1117 l 247 1103 q 287 1213 247 1166 q 388 1259 326 1259 q 483 1227 426 1259 q 575 1196 540 1196 q 623 1218 603 1196 q 644 1272 644 1240 l 717 1250 z "},"Ö":{"ha":980,"x_min":54,"x_max":928,"o":"m 54 0 m 928 486 q 804 128 928 271 q 484 -14 680 -14 q 173 128 292 -14 q 54 486 54 271 l 54 500 q 173 859 54 715 q 484 1002 292 1002 q 804 859 680 1002 q 928 500 928 715 l 928 486 m 794 502 q 712 783 794 674 q 484 892 629 892 q 266 783 344 892 q 187 502 187 673 l 187 486 q 266 204 187 313 q 484 95 344 95 q 713 203 631 95 q 794 486 794 312 l 794 502 m 709 1088 l 561 1088 l 561 1223 l 709 1223 l 709 1088 m 390 1088 l 242 1088 l 242 1223 l 390 1223 l 390 1088 z "},"Ù":{"ha":1045,"x_min":41,"x_max":1005,"o":"m 41 0 m 395 987 l 395 901 l 285 882 l 285 318 q 349 148 285 206 q 517 90 412 90 q 694 148 627 90 q 761 318 761 205 l 761 882 l 650 901 l 650 987 l 895 987 l 1005 987 l 1005 901 l 895 882 l 895 318 q 790 72 895 157 q 517 -14 685 -14 q 252 72 353 -14 q 151 318 151 157 l 151 882 l 41 901 l 41 987 l 151 987 l 395 987 m 568 1057 l 460 1057 l 292 1234 l 294 1238 l 450 1238 l 568 1057 z "},"Ú":{"ha":1045,"x_min":41,"x_max":1005,"o":"m 41 0 m 395 987 l 395 901 l 285 882 l 285 318 q 349 148 285 206 q 517 90 412 90 q 694 148 627 90 q 761 318 761 205 l 761 882 l 650 901 l 650 987 l 895 987 l 1005 987 l 1005 901 l 895 882 l 895 318 q 790 72 895 157 q 517 -14 685 -14 q 252 72 353 -14 q 151 318 151 157 l 151 882 l 41 901 l 41 987 l 151 987 l 395 987 m 549 1236 l 705 1236 l 707 1232 l 524 1055 l 425 1055 l 549 1236 z "},"Û":{"ha":1045,"x_min":41,"x_max":1005,"o":"m 41 0 m 395 987 l 395 901 l 285 882 l 285 318 q 349 148 285 206 q 517 90 412 90 q 694 148 627 90 q 761 318 761 205 l 761 882 l 650 901 l 650 987 l 895 987 l 1005 987 l 1005 901 l 895 882 l 895 318 q 790 72 895 157 q 517 -14 685 -14 q 252 72 353 -14 q 151 318 151 157 l 151 882 l 41 901 l 41 987 l 151 987 l 395 987 m 719 1093 l 719 1076 l 610 1076 l 510 1177 l 412 1076 l 303 1076 l 303 1094 l 470 1255 l 551 1255 l 719 1093 z "},"Ü":{"ha":1045,"x_min":41,"x_max":1005,"o":"m 41 0 m 395 987 l 395 901 l 285 882 l 285 318 q 349 148 285 206 q 517 90 412 90 q 694 148 627 90 q 761 318 761 205 l 761 882 l 650 901 l 650 987 l 895 987 l 1005 987 l 1005 901 l 895 882 l 895 318 q 790 72 895 157 q 517 -14 685 -14 q 252 72 353 -14 q 151 318 151 157 l 151 882 l 41 901 l 41 987 l 151 987 l 395 987 m 731 1088 l 583 1088 l 583 1223 l 731 1223 l 731 1088 m 412 1088 l 264 1088 l 264 1223 l 412 1223 l 412 1088 z "},"Ý":{"ha":960,"x_min":37,"x_max":917,"o":"m 37 0 m 376 901 l 270 888 l 477 486 l 684 888 l 578 901 l 578 987 l 917 987 l 917 901 l 833 888 l 541 347 l 541 104 l 651 85 l 651 0 l 297 0 l 297 85 l 408 104 l 408 357 l 120 888 l 37 901 l 37 987 l 376 987 l 376 901 m 513 1236 l 669 1236 l 671 1232 l 488 1055 l 389 1055 l 513 1236 z "},"à":{"ha":765,"x_min":71,"x_max":714,"o":"m 71 0 m 539 0 q 530 54 533 30 q 525 101 526 77 q 428 19 486 52 q 304 -14 370 -14 q 130 42 190 -14 q 71 199 71 98 q 155 360 71 304 q 387 417 239 417 l 524 417 l 524 503 q 484 605 524 567 q 370 642 443 642 q 282 629 320 642 q 220 594 243 616 l 205 517 l 102 517 l 102 659 q 224 723 153 699 q 378 747 295 747 q 581 684 503 747 q 658 501 658 620 l 658 148 q 658 120 658 134 q 660 93 659 106 l 714 85 l 714 0 l 539 0 m 324 98 q 446 130 391 98 q 524 206 500 161 l 524 327 l 382 327 q 252 289 300 327 q 204 197 204 251 q 234 123 204 149 q 324 98 264 98 m 435 838 l 327 838 l 158 1014 l 160 1018 l 316 1018 l 435 838 z "},"á":{"ha":765,"x_min":71,"x_max":714,"o":"m 71 0 m 539 0 q 530 54 533 30 q 525 101 526 77 q 428 19 486 52 q 304 -14 370 -14 q 130 42 190 -14 q 71 199 71 98 q 155 360 71 304 q 387 417 239 417 l 524 417 l 524 503 q 484 605 524 567 q 370 642 443 642 q 282 629 320 642 q 220 594 243 616 l 205 517 l 102 517 l 102 659 q 224 723 153 699 q 378 747 295 747 q 581 684 503 747 q 658 501 658 620 l 658 148 q 658 120 658 134 q 660 93 659 106 l 714 85 l 714 0 l 539 0 m 324 98 q 446 130 391 98 q 524 206 500 161 l 524 327 l 382 327 q 252 289 300 327 q 204 197 204 251 q 234 123 204 149 q 324 98 264 98 m 416 1016 l 572 1016 l 573 1012 l 391 836 l 291 836 l 416 1016 z "},"â":{"ha":765,"x_min":71,"x_max":714,"o":"m 71 0 m 539 0 q 530 54 533 30 q 525 101 526 77 q 428 19 486 52 q 304 -14 370 -14 q 130 42 190 -14 q 71 199 71 98 q 155 360 71 304 q 387 417 239 417 l 524 417 l 524 503 q 484 605 524 567 q 370 642 443 642 q 282 629 320 642 q 220 594 243 616 l 205 517 l 102 517 l 102 659 q 224 723 153 699 q 378 747 295 747 q 581 684 503 747 q 658 501 658 620 l 658 148 q 658 120 658 134 q 660 93 659 106 l 714 85 l 714 0 l 539 0 m 324 98 q 446 130 391 98 q 524 206 500 161 l 524 327 l 382 327 q 252 289 300 327 q 204 197 204 251 q 234 123 204 149 q 324 98 264 98 m 585 873 l 585 857 l 476 857 l 376 957 l 278 857 l 170 857 l 170 874 l 336 1035 l 417 1035 l 585 873 z "},"ã":{"ha":765,"x_min":71,"x_max":714,"o":"m 71 0 m 539 0 q 530 54 533 30 q 525 101 526 77 q 428 19 486 52 q 304 -14 370 -14 q 130 42 190 -14 q 71 199 71 98 q 155 360 71 304 q 387 417 239 417 l 524 417 l 524 503 q 484 605 524 567 q 370 642 443 642 q 282 629 320 642 q 220 594 243 616 l 205 517 l 102 517 l 102 659 q 224 723 153 699 q 378 747 295 747 q 581 684 503 747 q 658 501 658 620 l 658 148 q 658 120 658 134 q 660 93 659 106 l 714 85 l 714 0 l 539 0 m 324 98 q 446 130 391 98 q 524 206 500 161 l 524 327 l 382 327 q 252 289 300 327 q 204 197 204 251 q 234 123 204 149 q 324 98 264 98 m 606 1030 q 565 922 606 966 q 464 878 525 878 q 363 910 416 878 q 277 941 311 941 q 228 919 248 941 q 208 866 208 897 l 136 884 q 175 993 136 947 q 277 1040 215 1040 q 372 1008 315 1040 q 464 976 429 976 q 512 998 492 976 q 532 1052 532 1020 l 606 1030 z "},"ä":{"ha":765,"x_min":71,"x_max":714,"o":"m 71 0 m 539 0 q 530 54 533 30 q 525 101 526 77 q 428 19 486 52 q 304 -14 370 -14 q 130 42 190 -14 q 71 199 71 98 q 155 360 71 304 q 387 417 239 417 l 524 417 l 524 503 q 484 605 524 567 q 370 642 443 642 q 282 629 320 642 q 220 594 243 616 l 205 517 l 102 517 l 102 659 q 224 723 153 699 q 378 747 295 747 q 581 684 503 747 q 658 501 658 620 l 658 148 q 658 120 658 134 q 660 93 659 106 l 714 85 l 714 0 l 539 0 m 324 98 q 446 130 391 98 q 524 206 500 161 l 524 327 l 382 327 q 252 289 300 327 q 204 197 204 251 q 234 123 204 149 q 324 98 264 98 m 597 868 l 450 868 l 450 1004 l 597 1004 l 597 868 m 279 868 l 131 868 l 131 1004 l 279 1004 l 279 868 z "},"å":{"ha":765,"x_min":71,"x_max":714,"o":"m 71 0 m 539 0 q 530 54 533 30 q 525 101 526 77 q 428 19 486 52 q 304 -14 370 -14 q 130 42 190 -14 q 71 199 71 98 q 155 360 71 304 q 387 417 239 417 l 524 417 l 524 503 q 484 605 524 567 q 370 642 443 642 q 282 629 320 642 q 220 594 243 616 l 205 517 l 102 517 l 102 659 q 224 723 153 699 q 378 747 295 747 q 581 684 503 747 q 658 501 658 620 l 658 148 q 658 120 658 134 q 660 93 659 106 l 714 85 l 714 0 l 539 0 m 324 98 q 446 130 391 98 q 524 206 500 161 l 524 327 l 382 327 q 252 289 300 327 q 204 197 204 251 q 234 123 204 149 q 324 98 264 98 m 239 957 q 280 1053 239 1014 q 380 1091 321 1091 q 479 1053 438 1091 q 519 957 519 1015 q 479 862 519 899 q 380 825 438 825 q 280 862 321 825 q 239 957 239 899 m 309 957 q 330 907 309 928 q 380 886 351 886 q 429 906 409 886 q 450 957 450 926 q 429 1008 450 987 q 380 1029 409 1029 q 330 1008 351 1029 q 309 957 309 987 z "},"ǻ":{"ha":765,"x_min":71,"x_max":714,"o":"m 71 0 m 539 0 q 530 54 533 30 q 525 101 526 77 q 428 19 486 52 q 304 -14 370 -14 q 130 42 190 -14 q 71 199 71 98 q 155 360 71 304 q 387 417 239 417 l 524 417 l 524 503 q 484 605 524 567 q 370 642 443 642 q 282 629 320 642 q 220 594 243 616 l 205 517 l 102 517 l 102 659 q 224 723 153 699 q 378 747 295 747 q 581 684 503 747 q 658 501 658 620 l 658 148 q 658 120 658 134 q 660 93 659 106 l 714 85 l 714 0 l 539 0 m 324 98 q 446 130 391 98 q 524 206 500 161 l 524 327 l 382 327 q 252 289 300 327 q 204 197 204 251 q 234 123 204 149 q 324 98 264 98 m 447 1105 l 576 1105 l 577 1101 l 431 981 l 350 981 l 447 1105 m 261 834 q 296 915 261 883 q 379 947 330 947 q 461 915 427 947 q 495 834 495 883 q 461 754 495 785 q 379 723 427 723 q 295 754 330 723 q 261 834 261 785 m 320 834 q 337 794 320 810 q 379 777 355 777 q 419 793 402 777 q 435 834 435 810 q 419 877 435 859 q 379 894 402 894 q 337 877 355 894 q 320 834 320 859 z "},"ç":{"ha":749,"x_min":61,"x_max":682,"o":"m 61 0 m 390 90 q 507 131 456 90 q 557 232 557 172 l 677 232 l 679 228 q 594 59 682 133 q 390 -14 507 -14 q 145 90 230 -14 q 61 353 61 195 l 61 381 q 146 643 61 538 q 390 747 231 747 q 548 718 478 747 q 665 638 618 689 l 671 475 l 564 475 l 535 591 q 474 628 511 614 q 390 642 437 642 q 240 567 285 642 q 195 381 195 491 l 195 353 q 239 165 195 240 q 390 90 284 90 m 395 -6 l 387 -41 q 460 -77 431 -49 q 490 -159 490 -104 q 436 -262 490 -224 q 283 -301 382 -301 l 278 -227 q 356 -211 327 -227 q 386 -161 386 -194 q 361 -115 386 -128 q 278 -98 337 -102 l 300 -6 l 395 -6 z "},"è":{"ha":747,"x_min":61,"x_max":675,"o":"m 61 0 m 395 -14 q 152 88 242 -14 q 61 353 61 190 l 61 382 q 154 643 61 539 q 375 747 248 747 q 599 658 523 747 q 675 419 675 568 l 675 336 l 199 336 l 197 332 q 251 158 199 227 q 395 90 302 90 q 514 110 463 90 q 603 163 566 129 l 655 76 q 551 12 616 38 q 395 -14 486 -14 m 375 642 q 260 586 308 642 q 202 444 213 529 l 203 440 l 542 440 l 542 458 q 500 589 542 536 q 375 642 458 642 m 435 838 l 327 838 l 158 1014 l 160 1018 l 316 1018 l 435 838 z "},"é":{"ha":747,"x_min":61,"x_max":675,"o":"m 61 0 m 395 -14 q 152 88 242 -14 q 61 353 61 190 l 61 382 q 154 643 61 539 q 375 747 248 747 q 599 658 523 747 q 675 419 675 568 l 675 336 l 199 336 l 197 332 q 251 158 199 227 q 395 90 302 90 q 514 110 463 90 q 603 163 566 129 l 655 76 q 551 12 616 38 q 395 -14 486 -14 m 375 642 q 260 586 308 642 q 202 444 213 529 l 203 440 l 542 440 l 542 458 q 500 589 542 536 q 375 642 458 642 m 416 1016 l 572 1016 l 573 1012 l 391 836 l 291 836 l 416 1016 z "},"ê":{"ha":747,"x_min":61,"x_max":675,"o":"m 61 0 m 395 -14 q 152 88 242 -14 q 61 353 61 190 l 61 382 q 154 643 61 539 q 375 747 248 747 q 599 658 523 747 q 675 419 675 568 l 675 336 l 199 336 l 197 332 q 251 158 199 227 q 395 90 302 90 q 514 110 463 90 q 603 163 566 129 l 655 76 q 551 12 616 38 q 395 -14 486 -14 m 375 642 q 260 586 308 642 q 202 444 213 529 l 203 440 l 542 440 l 542 458 q 500 589 542 536 q 375 642 458 642 m 585 873 l 585 857 l 476 857 l 376 957 l 278 857 l 170 857 l 170 874 l 336 1035 l 417 1035 l 585 873 z "},"ë":{"ha":747,"x_min":61,"x_max":675,"o":"m 61 0 m 395 -14 q 152 88 242 -14 q 61 353 61 190 l 61 382 q 154 643 61 539 q 375 747 248 747 q 599 658 523 747 q 675 419 675 568 l 675 336 l 199 336 l 197 332 q 251 158 199 227 q 395 90 302 90 q 514 110 463 90 q 603 163 566 129 l 655 76 q 551 12 616 38 q 395 -14 486 -14 m 375 642 q 260 586 308 642 q 202 444 213 529 l 203 440 l 542 440 l 542 458 q 500 589 542 536 q 375 642 458 642 m 597 868 l 450 868 l 450 1004 l 597 1004 l 597 868 m 279 868 l 131 868 l 131 1004 l 279 1004 l 279 868 z "},"ì":{"ha":456,"x_min":16,"x_max":416,"o":"m 16 0 m 61 648 l 61 734 l 305 734 l 305 104 l 416 85 l 416 0 l 61 0 l 61 85 l 172 104 l 172 629 l 61 648 m 293 837 l 185 837 l 16 1013 l 18 1017 l 174 1017 l 293 837 z "},"í":{"ha":456,"x_min":61,"x_max":431,"o":"m 61 0 m 61 648 l 61 734 l 305 734 l 305 104 l 416 85 l 416 0 l 61 0 l 61 85 l 172 104 l 172 629 l 61 648 m 273 1015 l 429 1015 l 431 1011 l 248 835 l 149 835 l 273 1015 z "},"î":{"ha":456,"x_min":28,"x_max":444,"o":"m 28 0 m 61 648 l 61 734 l 305 734 l 305 104 l 416 85 l 416 0 l 61 0 l 61 85 l 172 104 l 172 629 l 61 648 m 444 873 l 444 856 l 334 856 l 235 956 l 136 856 l 28 856 l 28 873 l 195 1034 l 275 1034 l 444 873 z "},"ï":{"ha":456,"x_min":-11,"x_max":456,"o":"m 0 0 m 61 648 l 61 734 l 305 734 l 305 104 l 416 85 l 416 0 l 61 0 l 61 85 l 172 104 l 172 629 l 61 648 m 456 867 l 308 867 l 308 1003 l 456 1003 l 456 867 m 137 867 l -11 867 l -11 1003 l 137 1003 l 137 867 z "},"ñ":{"ha":894,"x_min":41,"x_max":857,"o":"m 41 0 m 41 85 l 151 104 l 151 629 l 41 648 l 41 734 l 271 734 l 280 625 q 372 715 317 683 q 498 747 427 747 q 682 678 616 747 q 747 463 747 608 l 747 104 l 857 85 l 857 0 l 503 0 l 503 85 l 613 104 l 613 460 q 575 598 613 557 q 458 639 536 639 q 356 611 400 639 q 285 535 311 583 l 285 104 l 395 85 l 395 0 l 41 0 l 41 85 m 683 1030 q 643 922 683 966 q 541 878 602 878 q 441 910 493 878 q 354 941 389 941 q 306 919 326 941 q 286 866 286 897 l 213 884 q 253 993 213 947 q 354 1040 292 1040 q 449 1008 392 1040 q 541 976 506 976 q 589 998 569 976 q 610 1052 610 1020 l 683 1030 z "},"ò":{"ha":779,"x_min":61,"x_max":718,"o":"m 61 0 m 61 374 q 149 642 61 536 q 389 747 237 747 q 629 642 541 747 q 718 374 718 537 l 718 359 q 629 90 718 195 q 390 -14 541 -14 q 149 91 237 -14 q 61 359 61 195 l 61 374 m 195 359 q 244 166 195 242 q 390 90 293 90 q 534 166 485 90 q 584 359 584 242 l 584 374 q 534 566 584 489 q 389 642 485 642 q 243 566 292 642 q 195 374 195 489 l 195 359 m 447 838 l 339 838 l 170 1014 l 172 1018 l 328 1018 l 447 838 z "},"ó":{"ha":779,"x_min":61,"x_max":718,"o":"m 61 0 m 61 374 q 149 642 61 536 q 389 747 237 747 q 629 642 541 747 q 718 374 718 537 l 718 359 q 629 90 718 195 q 390 -14 541 -14 q 149 91 237 -14 q 61 359 61 195 l 61 374 m 195 359 q 244 166 195 242 q 390 90 293 90 q 534 166 485 90 q 584 359 584 242 l 584 374 q 534 566 584 489 q 389 642 485 642 q 243 566 292 642 q 195 374 195 489 l 195 359 m 428 1016 l 584 1016 l 585 1012 l 403 836 l 303 836 l 428 1016 z "},"ô":{"ha":779,"x_min":61,"x_max":718,"o":"m 61 0 m 61 374 q 149 642 61 536 q 389 747 237 747 q 629 642 541 747 q 718 374 718 537 l 718 359 q 629 90 718 195 q 390 -14 541 -14 q 149 91 237 -14 q 61 359 61 195 l 61 374 m 195 359 q 244 166 195 242 q 390 90 293 90 q 534 166 485 90 q 584 359 584 242 l 584 374 q 534 566 584 489 q 389 642 485 642 q 243 566 292 642 q 195 374 195 489 l 195 359 m 597 873 l 597 857 l 488 857 l 389 957 l 290 857 l 182 857 l 182 874 l 349 1035 l 429 1035 l 597 873 z "},"õ":{"ha":779,"x_min":61,"x_max":718,"o":"m 61 0 m 61 374 q 149 642 61 536 q 389 747 237 747 q 629 642 541 747 q 718 374 718 537 l 718 359 q 629 90 718 195 q 390 -14 541 -14 q 149 91 237 -14 q 61 359 61 195 l 61 374 m 195 359 q 244 166 195 242 q 390 90 293 90 q 534 166 485 90 q 584 359 584 242 l 584 374 q 534 566 584 489 q 389 642 485 642 q 243 566 292 642 q 195 374 195 489 l 195 359 m 618 1030 q 577 922 618 966 q 476 878 537 878 q 376 910 428 878 q 289 941 323 941 q 240 919 260 941 q 220 866 220 897 l 148 884 q 188 993 148 947 q 289 1040 227 1040 q 384 1008 327 1040 q 476 976 441 976 q 524 998 504 976 q 545 1052 545 1020 l 618 1030 z "},"ö":{"ha":779,"x_min":61,"x_max":718,"o":"m 61 0 m 61 374 q 149 642 61 536 q 389 747 237 747 q 629 642 541 747 q 718 374 718 537 l 718 359 q 629 90 718 195 q 390 -14 541 -14 q 149 91 237 -14 q 61 359 61 195 l 61 374 m 195 359 q 244 166 195 242 q 390 90 293 90 q 534 166 485 90 q 584 359 584 242 l 584 374 q 534 566 584 489 q 389 642 485 642 q 243 566 292 642 q 195 374 195 489 l 195 359 m 610 868 l 462 868 l 462 1004 l 610 1004 l 610 868 m 291 868 l 143 868 l 143 1004 l 291 1004 l 291 868 z "},"ù":{"ha":844,"x_min":33,"x_max":798,"o":"m 33 0 m 585 109 q 496 18 551 50 q 370 -14 441 -14 q 184 62 251 -14 q 117 301 117 139 l 117 629 l 33 648 l 33 734 l 117 734 l 250 734 l 250 300 q 285 138 250 182 q 393 94 319 94 q 510 123 464 94 q 581 205 557 152 l 581 629 l 482 648 l 482 734 l 581 734 l 714 734 l 714 104 l 798 85 l 798 0 l 594 0 l 585 109 m 455 837 l 347 837 l 178 1013 l 180 1017 l 336 1017 l 455 837 z "},"ú":{"ha":844,"x_min":33,"x_max":798,"o":"m 33 0 m 585 109 q 496 18 551 50 q 370 -14 441 -14 q 184 62 251 -14 q 117 301 117 139 l 117 629 l 33 648 l 33 734 l 117 734 l 250 734 l 250 300 q 285 138 250 182 q 393 94 319 94 q 510 123 464 94 q 581 205 557 152 l 581 629 l 482 648 l 482 734 l 581 734 l 714 734 l 714 104 l 798 85 l 798 0 l 594 0 l 585 109 m 436 1015 l 592 1015 l 593 1011 l 411 835 l 311 835 l 436 1015 z "},"û":{"ha":844,"x_min":33,"x_max":798,"o":"m 33 0 m 585 109 q 496 18 551 50 q 370 -14 441 -14 q 184 62 251 -14 q 117 301 117 139 l 117 629 l 33 648 l 33 734 l 117 734 l 250 734 l 250 300 q 285 138 250 182 q 393 94 319 94 q 510 123 464 94 q 581 205 557 152 l 581 629 l 482 648 l 482 734 l 581 734 l 714 734 l 714 104 l 798 85 l 798 0 l 594 0 l 585 109 m 606 873 l 606 856 l 496 856 l 397 956 l 298 856 l 190 856 l 190 873 l 357 1034 l 437 1034 l 606 873 z "},"ü":{"ha":844,"x_min":33,"x_max":798,"o":"m 33 0 m 585 109 q 496 18 551 50 q 370 -14 441 -14 q 184 62 251 -14 q 117 301 117 139 l 117 629 l 33 648 l 33 734 l 117 734 l 250 734 l 250 300 q 285 138 250 182 q 393 94 319 94 q 510 123 464 94 q 581 205 557 152 l 581 629 l 482 648 l 482 734 l 581 734 l 714 734 l 714 104 l 798 85 l 798 0 l 594 0 l 585 109 m 618 867 l 470 867 l 470 1003 l 618 1003 l 618 867 m 299 867 l 151 867 l 151 1003 l 299 1003 l 299 867 z "},"ý":{"ha":788,"x_min":24,"x_max":758,"o":"m 24 0 m 758 648 l 692 637 l 412 -113 q 332 -241 385 -186 q 192 -296 280 -296 q 151 -293 176 -296 q 113 -286 126 -289 l 126 -180 q 150 -182 122 -180 q 186 -184 178 -184 q 255 -147 229 -184 q 301 -62 281 -110 l 333 14 l 91 637 l 24 648 l 24 734 l 320 734 l 320 648 l 237 634 l 364 272 l 389 178 l 393 178 l 545 634 l 462 648 l 462 734 l 758 734 l 758 648 m 431 1015 l 587 1015 l 588 1011 l 406 835 l 306 835 l 431 1015 z "},"ÿ":{"ha":788,"x_min":24,"x_max":758,"o":"m 24 0 m 758 648 l 692 637 l 412 -113 q 332 -241 385 -186 q 192 -296 280 -296 q 151 -293 176 -296 q 113 -286 126 -289 l 126 -180 q 150 -182 122 -180 q 186 -184 178 -184 q 255 -147 229 -184 q 301 -62 281 -110 l 333 14 l 91 637 l 24 648 l 24 734 l 320 734 l 320 648 l 237 634 l 364 272 l 389 178 l 393 178 l 545 634 l 462 648 l 462 734 l 758 734 l 758 648 m 612 867 l 465 867 l 465 1003 l 612 1003 l 612 867 m 294 867 l 146 867 l 146 1003 l 294 1003 l 294 867 z "},"Ā":{"ha":1017,"x_min":37,"x_max":982,"o":"m 37 0 m 37 85 l 111 96 l 456 987 l 570 987 l 909 96 l 982 85 l 982 0 l 699 0 l 699 85 l 773 98 l 708 280 l 313 280 l 245 98 l 320 85 l 320 0 l 37 0 l 37 85 m 354 392 l 667 392 l 514 816 l 510 816 l 354 392 m 756 1118 l 267 1118 l 267 1217 l 756 1217 l 756 1118 z "},"ā":{"ha":765,"x_min":71,"x_max":714,"o":"m 71 0 m 539 0 q 530 54 533 30 q 525 101 526 77 q 428 19 486 52 q 304 -14 370 -14 q 130 42 190 -14 q 71 199 71 98 q 155 360 71 304 q 387 417 239 417 l 524 417 l 524 503 q 484 605 524 567 q 370 642 443 642 q 282 629 320 642 q 220 594 243 616 l 205 517 l 102 517 l 102 659 q 224 723 153 699 q 378 747 295 747 q 581 684 503 747 q 658 501 658 620 l 658 148 q 658 120 658 134 q 660 93 659 106 l 714 85 l 714 0 l 539 0 m 324 98 q 446 130 391 98 q 524 206 500 161 l 524 327 l 382 327 q 252 289 300 327 q 204 197 204 251 q 234 123 204 149 q 324 98 264 98 m 619 899 l 130 899 l 130 998 l 619 998 l 619 899 z "},"Ă":{"ha":1017,"x_min":37,"x_max":982,"o":"m 37 0 m 37 85 l 111 96 l 456 987 l 570 987 l 909 96 l 982 85 l 982 0 l 699 0 l 699 85 l 773 98 l 708 280 l 313 280 l 245 98 l 320 85 l 320 0 l 37 0 l 37 85 m 354 392 l 667 392 l 514 816 l 510 816 l 354 392 m 707 1266 l 708 1262 q 656 1134 711 1183 q 508 1084 601 1084 q 359 1134 414 1084 q 308 1262 304 1183 l 309 1266 l 411 1266 q 434 1194 411 1222 q 508 1166 458 1166 q 581 1194 557 1166 q 604 1266 604 1222 l 707 1266 z "},"ă":{"ha":765,"x_min":71,"x_max":714,"o":"m 71 0 m 539 0 q 530 54 533 30 q 525 101 526 77 q 428 19 486 52 q 304 -14 370 -14 q 130 42 190 -14 q 71 199 71 98 q 155 360 71 304 q 387 417 239 417 l 524 417 l 524 503 q 484 605 524 567 q 370 642 443 642 q 282 629 320 642 q 220 594 243 616 l 205 517 l 102 517 l 102 659 q 224 723 153 699 q 378 747 295 747 q 581 684 503 747 q 658 501 658 620 l 658 148 q 658 120 658 134 q 660 93 659 106 l 714 85 l 714 0 l 539 0 m 324 98 q 446 130 391 98 q 524 206 500 161 l 524 327 l 382 327 q 252 289 300 327 q 204 197 204 251 q 234 123 204 149 q 324 98 264 98 m 570 1046 l 571 1042 q 519 914 574 964 q 371 865 464 865 q 222 914 277 865 q 171 1042 168 964 l 172 1046 l 274 1046 q 297 974 274 1002 q 371 946 321 946 q 444 974 420 946 q 467 1046 467 1002 l 570 1046 z "},"Ą":{"ha":1017,"x_min":37,"x_max":1036,"o":"m 37 0 m 37 85 l 111 96 l 456 987 l 570 987 l 909 96 l 982 85 l 982 0 l 699 0 l 699 85 l 773 98 l 708 280 l 313 280 l 245 98 l 320 85 l 320 0 l 37 0 l 37 85 m 354 392 l 667 392 l 514 816 l 510 816 l 354 392 m 982 0 q 908 -67 935 -35 q 881 -136 881 -100 q 896 -181 881 -165 q 946 -197 911 -197 q 980 -192 964 -197 q 1013 -180 996 -187 l 1036 -263 q 982 -284 1011 -276 q 911 -293 952 -293 q 807 -256 848 -293 q 766 -151 766 -218 q 807 -48 766 -97 q 934 39 848 1 l 982 0 z "},"ą":{"ha":765,"x_min":71,"x_max":768,"o":"m 71 0 m 539 0 q 530 54 533 30 q 525 101 526 77 q 428 19 486 52 q 304 -14 370 -14 q 130 42 190 -14 q 71 199 71 98 q 155 360 71 304 q 387 417 239 417 l 524 417 l 524 503 q 484 605 524 567 q 370 642 443 642 q 282 629 320 642 q 220 594 243 616 l 205 517 l 102 517 l 102 659 q 224 723 153 699 q 378 747 295 747 q 581 684 503 747 q 658 501 658 620 l 658 148 q 658 120 658 134 q 660 93 659 106 l 714 85 l 714 0 l 539 0 m 324 98 q 446 130 391 98 q 524 206 500 161 l 524 327 l 382 327 q 252 289 300 327 q 204 197 204 251 q 234 123 204 149 q 324 98 264 98 m 714 0 q 640 -67 667 -35 q 613 -136 613 -100 q 628 -181 613 -165 q 678 -197 644 -197 q 712 -192 696 -197 q 745 -180 728 -187 l 768 -263 q 714 -284 743 -276 q 644 -293 684 -293 q 539 -256 580 -293 q 498 -151 498 -218 q 539 -48 498 -97 q 666 39 580 1 l 714 0 z "},"Ć":{"ha":896,"x_min":48,"x_max":814,"o":"m 48 0 m 814 684 l 720 684 l 694 824 q 614 876 662 856 q 501 897 567 897 q 264 785 347 897 q 182 502 182 673 l 182 486 q 263 202 182 315 q 488 90 344 90 q 610 111 555 90 q 694 163 665 132 l 720 302 l 814 302 l 814 127 q 686 29 771 72 q 488 -14 600 -14 q 172 128 295 -14 q 48 486 48 271 l 48 500 q 170 860 48 718 q 488 1002 291 1002 q 686 958 600 1002 q 814 860 771 914 l 814 684 m 524 1251 l 680 1251 l 681 1246 l 498 1070 l 399 1070 l 524 1251 z "},"ć":{"ha":749,"x_min":61,"x_max":682,"o":"m 61 0 m 390 90 q 507 131 456 90 q 557 232 557 172 l 677 232 l 679 228 q 594 59 682 133 q 390 -14 507 -14 q 145 90 230 -14 q 61 353 61 195 l 61 381 q 146 643 61 538 q 390 747 231 747 q 548 718 478 747 q 665 638 618 689 l 671 475 l 564 475 l 535 591 q 474 628 511 614 q 390 642 437 642 q 240 567 285 642 q 195 381 195 491 l 195 353 q 239 165 195 240 q 390 90 284 90 m 427 1016 l 583 1016 l 585 1012 l 402 836 l 302 836 l 427 1016 z "},"Ĉ":{"ha":896,"x_min":48,"x_max":814,"o":"m 48 0 m 814 684 l 720 684 l 694 824 q 614 876 662 856 q 501 897 567 897 q 264 785 347 897 q 182 502 182 673 l 182 486 q 263 202 182 315 q 488 90 344 90 q 610 111 555 90 q 694 163 665 132 l 720 302 l 814 302 l 814 127 q 686 29 771 72 q 488 -14 600 -14 q 172 128 295 -14 q 48 486 48 271 l 48 500 q 170 860 48 718 q 488 1002 291 1002 q 686 958 600 1002 q 814 860 771 914 l 814 684 m 693 1108 l 693 1091 l 584 1091 l 484 1192 l 386 1091 l 277 1091 l 277 1109 l 444 1270 l 525 1270 l 693 1108 z "},"ĉ":{"ha":749,"x_min":61,"x_max":682,"o":"m 61 0 m 390 90 q 507 131 456 90 q 557 232 557 172 l 677 232 l 679 228 q 594 59 682 133 q 390 -14 507 -14 q 145 90 230 -14 q 61 353 61 195 l 61 381 q 146 643 61 538 q 390 747 231 747 q 548 718 478 747 q 665 638 618 689 l 671 475 l 564 475 l 535 591 q 474 628 511 614 q 390 642 437 642 q 240 567 285 642 q 195 381 195 491 l 195 353 q 239 165 195 240 q 390 90 284 90 m 597 873 l 597 857 l 488 857 l 388 957 l 290 857 l 181 857 l 181 874 l 348 1035 l 429 1035 l 597 873 z "},"Ċ":{"ha":896,"x_min":48,"x_max":814,"o":"m 48 0 m 814 684 l 720 684 l 694 824 q 614 876 662 856 q 501 897 567 897 q 264 785 347 897 q 182 502 182 673 l 182 486 q 263 202 182 315 q 488 90 344 90 q 610 111 555 90 q 694 163 665 132 l 720 302 l 814 302 l 814 127 q 686 29 771 72 q 488 -14 600 -14 q 172 128 295 -14 q 48 486 48 271 l 48 500 q 170 860 48 718 q 488 1002 291 1002 q 686 958 600 1002 q 814 860 771 914 l 814 684 m 552 1101 l 405 1101 l 405 1238 l 552 1238 l 552 1101 z "},"ċ":{"ha":749,"x_min":61,"x_max":682,"o":"m 61 0 m 390 90 q 507 131 456 90 q 557 232 557 172 l 677 232 l 679 228 q 594 59 682 133 q 390 -14 507 -14 q 145 90 230 -14 q 61 353 61 195 l 61 381 q 146 643 61 538 q 390 747 231 747 q 548 718 478 747 q 665 638 618 689 l 671 475 l 564 475 l 535 591 q 474 628 511 614 q 390 642 437 642 q 240 567 285 642 q 195 381 195 491 l 195 353 q 239 165 195 240 q 390 90 284 90 m 456 867 l 309 867 l 309 1003 l 456 1003 l 456 867 z "},"Č":{"ha":896,"x_min":48,"x_max":814,"o":"m 48 0 m 814 684 l 720 684 l 694 824 q 614 876 662 856 q 501 897 567 897 q 264 785 347 897 q 182 502 182 673 l 182 486 q 263 202 182 315 q 488 90 344 90 q 610 111 555 90 q 694 163 665 132 l 720 302 l 814 302 l 814 127 q 686 29 771 72 q 488 -14 600 -14 q 172 128 295 -14 q 48 486 48 271 l 48 500 q 170 860 48 718 q 488 1002 291 1002 q 686 958 600 1002 q 814 860 771 914 l 814 684 m 483 1165 l 583 1265 l 698 1265 l 698 1253 l 524 1087 l 443 1087 l 271 1252 l 271 1265 l 384 1265 l 483 1165 z "},"č":{"ha":749,"x_min":61,"x_max":682,"o":"m 61 0 m 390 90 q 507 131 456 90 q 557 232 557 172 l 677 232 l 679 228 q 594 59 682 133 q 390 -14 507 -14 q 145 90 230 -14 q 61 353 61 195 l 61 381 q 146 643 61 538 q 390 747 231 747 q 548 718 478 747 q 665 638 618 689 l 671 475 l 564 475 l 535 591 q 474 628 511 614 q 390 642 437 642 q 240 567 285 642 q 195 381 195 491 l 195 353 q 239 165 195 240 q 390 90 284 90 m 387 930 l 486 1031 l 602 1031 l 602 1019 l 427 852 l 347 852 l 175 1017 l 175 1031 l 288 1031 l 387 930 z "},"Ď":{"ha":962,"x_min":48,"x_max":890,"o":"m 48 0 m 462 987 q 773 868 655 987 q 890 561 890 749 l 890 426 q 773 118 890 237 q 462 0 655 0 l 48 0 l 48 85 l 159 104 l 159 882 l 48 901 l 48 987 l 159 987 l 462 987 m 292 882 l 292 104 l 462 104 q 678 195 599 104 q 757 426 757 285 l 757 562 q 678 792 757 702 q 462 882 599 882 l 292 882 m 434 1151 l 534 1251 l 649 1251 l 649 1239 l 475 1073 l 394 1073 l 222 1238 l 222 1251 l 335 1251 l 434 1151 z "},"ď":{"ha":935,"x_min":61,"x_max":898,"o":"m 61 0 m 555 87 q 467 12 519 37 q 347 -14 415 -14 q 137 83 212 -14 q 61 339 61 180 l 61 353 q 137 639 61 530 q 348 747 212 747 q 463 723 413 747 q 548 654 513 699 l 548 953 l 437 972 l 437 1058 l 548 1058 l 682 1058 l 682 104 l 792 85 l 792 0 l 566 0 l 555 87 m 195 339 q 240 161 195 229 q 380 94 286 94 q 481 121 440 94 q 548 198 522 149 l 548 538 q 481 612 522 585 q 382 639 439 639 q 240 559 286 639 q 195 353 195 480 l 195 339 m 898 979 q 868 839 898 910 q 782 721 838 768 l 707 771 q 754 869 739 819 q 770 977 770 919 l 770 1058 l 898 1058 l 898 979 z "},"Ē":{"ha":886,"x_min":48,"x_max":814,"o":"m 48 0 m 48 0 l 48 85 l 159 104 l 159 882 l 48 901 l 48 987 l 806 987 l 806 750 l 692 750 l 681 882 l 292 882 l 292 563 l 670 563 l 670 458 l 292 458 l 292 104 l 689 104 l 700 237 l 814 237 l 814 0 l 48 0 m 684 1119 l 195 1119 l 195 1218 l 684 1218 l 684 1119 z "},"ē":{"ha":747,"x_min":61,"x_max":675,"o":"m 61 0 m 395 -14 q 152 88 242 -14 q 61 353 61 190 l 61 382 q 154 643 61 539 q 375 747 248 747 q 599 658 523 747 q 675 419 675 568 l 675 336 l 199 336 l 197 332 q 251 158 199 227 q 395 90 302 90 q 514 110 463 90 q 603 163 566 129 l 655 76 q 551 12 616 38 q 395 -14 486 -14 m 375 642 q 260 586 308 642 q 202 444 213 529 l 203 440 l 542 440 l 542 458 q 500 589 542 536 q 375 642 458 642 m 619 899 l 130 899 l 130 998 l 619 998 l 619 899 z "},"Ĕ":{"ha":886,"x_min":48,"x_max":814,"o":"m 48 0 m 48 0 l 48 85 l 159 104 l 159 882 l 48 901 l 48 987 l 806 987 l 806 750 l 692 750 l 681 882 l 292 882 l 292 563 l 670 563 l 670 458 l 292 458 l 292 104 l 689 104 l 700 237 l 814 237 l 814 0 l 48 0 m 635 1267 l 636 1263 q 584 1135 639 1184 q 436 1085 529 1085 q 288 1135 342 1085 q 236 1263 233 1184 l 237 1267 l 339 1267 q 362 1195 339 1223 q 436 1166 386 1166 q 509 1195 485 1166 q 532 1267 532 1223 l 635 1267 z "},"ĕ":{"ha":747,"x_min":61,"x_max":675,"o":"m 61 0 m 395 -14 q 152 88 242 -14 q 61 353 61 190 l 61 382 q 154 643 61 539 q 375 747 248 747 q 599 658 523 747 q 675 419 675 568 l 675 336 l 199 336 l 197 332 q 251 158 199 227 q 395 90 302 90 q 514 110 463 90 q 603 163 566 129 l 655 76 q 551 12 616 38 q 395 -14 486 -14 m 375 642 q 260 586 308 642 q 202 444 213 529 l 203 440 l 542 440 l 542 458 q 500 589 542 536 q 375 642 458 642 m 570 1046 l 571 1042 q 519 914 574 964 q 371 865 464 865 q 222 914 277 865 q 171 1042 168 964 l 172 1046 l 274 1046 q 297 974 274 1002 q 371 946 321 946 q 444 974 420 946 q 467 1046 467 1002 l 570 1046 z "},"Ė":{"ha":886,"x_min":48,"x_max":814,"o":"m 48 0 m 48 0 l 48 85 l 159 104 l 159 882 l 48 901 l 48 987 l 806 987 l 806 750 l 692 750 l 681 882 l 292 882 l 292 563 l 670 563 l 670 458 l 292 458 l 292 104 l 689 104 l 700 237 l 814 237 l 814 0 l 48 0 m 509 1087 l 362 1087 l 362 1223 l 509 1223 l 509 1087 z "},"ė":{"ha":747,"x_min":61,"x_max":675,"o":"m 61 0 m 395 -14 q 152 88 242 -14 q 61 353 61 190 l 61 382 q 154 643 61 539 q 375 747 248 747 q 599 658 523 747 q 675 419 675 568 l 675 336 l 199 336 l 197 332 q 251 158 199 227 q 395 90 302 90 q 514 110 463 90 q 603 163 566 129 l 655 76 q 551 12 616 38 q 395 -14 486 -14 m 375 642 q 260 586 308 642 q 202 444 213 529 l 203 440 l 542 440 l 542 458 q 500 589 542 536 q 375 642 458 642 m 444 867 l 297 867 l 297 1003 l 444 1003 l 444 867 z "},"Ę":{"ha":886,"x_min":48,"x_max":814,"o":"m 48 0 m 48 0 l 48 85 l 159 104 l 159 882 l 48 901 l 48 987 l 806 987 l 806 750 l 692 750 l 681 882 l 292 882 l 292 563 l 670 563 l 670 458 l 292 458 l 292 104 l 689 104 l 700 237 l 814 237 l 814 0 l 48 0 m 487 6 q 413 -61 439 -29 q 386 -130 386 -94 q 401 -175 386 -159 q 451 -191 416 -191 q 485 -186 469 -191 q 518 -174 500 -181 l 541 -257 q 487 -278 516 -270 q 416 -287 457 -287 q 312 -250 353 -287 q 271 -145 271 -212 q 312 -42 271 -91 q 439 45 353 7 l 487 6 z "},"ę":{"ha":747,"x_min":61,"x_max":675,"o":"m 61 0 m 395 -14 q 152 88 242 -14 q 61 353 61 190 l 61 382 q 154 643 61 539 q 375 747 248 747 q 599 658 523 747 q 675 419 675 568 l 675 336 l 199 336 l 197 332 q 251 158 199 227 q 395 90 302 90 q 514 110 463 90 q 603 163 566 129 l 655 76 q 551 12 616 38 q 395 -14 486 -14 m 375 642 q 260 586 308 642 q 202 444 213 529 l 203 440 l 542 440 l 542 458 q 500 589 542 536 q 375 642 458 642 m 578 39 q 504 -28 531 4 q 477 -97 477 -60 q 493 -142 477 -125 q 543 -158 508 -158 q 576 -153 561 -158 q 610 -140 592 -148 l 632 -224 q 578 -245 608 -237 q 508 -254 549 -254 q 403 -216 444 -254 q 362 -112 362 -179 q 403 -9 362 -58 q 530 78 444 40 l 578 39 z "},"Ě":{"ha":886,"x_min":48,"x_max":814,"o":"m 48 0 m 48 0 l 48 85 l 159 104 l 159 882 l 48 901 l 48 987 l 806 987 l 806 750 l 692 750 l 681 882 l 292 882 l 292 563 l 670 563 l 670 458 l 292 458 l 292 104 l 689 104 l 700 237 l 814 237 l 814 0 l 48 0 m 440 1151 l 540 1251 l 655 1251 l 655 1239 l 481 1073 l 400 1073 l 229 1238 l 229 1251 l 341 1251 l 440 1151 z "},"ě":{"ha":747,"x_min":61,"x_max":675,"o":"m 61 0 m 395 -14 q 152 88 242 -14 q 61 353 61 190 l 61 382 q 154 643 61 539 q 375 747 248 747 q 599 658 523 747 q 675 419 675 568 l 675 336 l 199 336 l 197 332 q 251 158 199 227 q 395 90 302 90 q 514 110 463 90 q 603 163 566 129 l 655 76 q 551 12 616 38 q 395 -14 486 -14 m 375 642 q 260 586 308 642 q 202 444 213 529 l 203 440 l 542 440 l 542 458 q 500 589 542 536 q 375 642 458 642 m 375 930 l 475 1031 l 590 1031 l 590 1019 l 416 852 l 335 852 l 163 1017 l 163 1031 l 276 1031 l 375 930 z "},"Ĝ":{"ha":941,"x_min":37,"x_max":834,"o":"m 37 0 m 834 112 q 706 26 791 66 q 486 -14 621 -14 q 162 125 288 -14 q 37 486 37 264 l 37 502 q 161 863 37 725 q 490 1002 285 1002 q 683 967 600 1002 q 823 877 766 933 l 823 698 l 730 698 l 697 834 q 617 879 664 861 q 504 897 570 897 q 257 787 344 897 q 171 503 171 677 l 171 486 q 255 199 171 309 q 486 90 338 90 q 618 107 566 90 q 701 144 669 124 l 701 361 l 538 368 l 538 466 l 834 466 l 834 112 m 696 1093 l 696 1076 l 587 1076 l 487 1177 l 389 1076 l 280 1076 l 280 1094 l 447 1255 l 528 1255 l 696 1093 z "},"ĝ":{"ha":786,"x_min":61,"x_max":686,"o":"m 61 0 m 61 353 q 138 639 61 530 q 352 747 216 747 q 473 720 421 747 q 561 642 526 693 l 573 734 l 686 734 l 686 9 q 606 -215 686 -133 q 380 -296 527 -296 q 266 -282 328 -296 q 157 -242 204 -267 l 192 -138 q 280 -171 229 -158 q 379 -184 331 -184 q 510 -134 469 -184 q 552 9 552 -83 l 552 79 q 466 9 516 33 q 351 -14 416 -14 q 138 83 216 -14 q 61 339 61 181 l 61 353 m 195 339 q 241 161 195 229 q 384 94 288 94 q 485 122 444 94 q 552 199 526 149 l 552 537 q 485 611 526 584 q 385 639 444 639 q 242 559 290 639 q 195 353 195 479 l 195 339 m 608 873 l 608 857 l 499 857 l 399 957 l 301 857 l 193 857 l 193 874 l 359 1035 l 440 1035 l 608 873 z "}}}
